<?xml version="1.0" encoding="iso-8859-1"?>
<!-- Generator: Adobe Illustrator 19.0.0, SVG Export Plug-In . SVG Version: 6.00 Build 0)  -->
<svg version="1.1" id="Layer_1" xmlns="http://www.w3.org/2000/svg" xmlns:xlink="http://www.w3.org/1999/xlink" x="0px" y="0px"
	 viewBox="0 0 485 485" style="enable-background:new 0 0 485 485;" xml:space="preserve">
<g>
	<g>
		<path style="fill:#E7ECED;" d="M477.5,288.75v30c0,66-54,120-120,120h-230c-66,0-120-54-120-120v-30c0-66,54-120,120-120h230
			C423.5,168.75,477.5,222.75,477.5,288.75z"/>
	</g>
	<g>
		<polygon style="fill:#A8ADAF;" points="207.5,288.75 207.5,338.75 167.5,338.75 167.5,378.75 117.5,378.75 117.5,338.75 
			77.5,338.75 77.5,288.75 117.5,288.75 117.5,248.75 167.5,248.75 167.5,288.75 		"/>
	</g>
	<g>
		<path style="fill:#F4661E;" d="M402.5,293.75c13.8,0,25,11.2,25,25s-11.2,25-25,25s-25-11.2-25-25S388.7,293.75,402.5,293.75z"/>
		<path style="fill:#43B05C;" d="M282.5,293.75c13.8,0,25,11.2,25,25s-11.2,25-25,25s-25-11.2-25-25S268.7,293.75,282.5,293.75z"/>
		<path style="fill:#FFD248;" d="M342.5,343.75c13.8,0,25,11.2,25,25s-11.2,25-25,25s-25-11.2-25-25S328.7,343.75,342.5,343.75z"/>
		<path style="fill:#31C0D8;" d="M342.5,233.75c13.8,0,25,11.2,25,25c0,13.8-11.2,25-25,25s-25-11.2-25-25
			C317.5,244.95,328.7,233.75,342.5,233.75z"/>
	</g>
	<g>
		<path style="fill:#231F20;" d="M357.5,161.25H250v-42.5c0-2.5,1.752-2.5,2.5-2.5h70c7.035,0,17.5-4.66,17.5-17.5v-60h-15v60
			c0,1.058,0,2.373-2.602,2.5H252.5c-12.839,0-17.5,10.466-17.5,17.5v42.5H127.5C57.196,161.25,0,218.446,0,288.75v30
			c0,70.304,57.196,127.5,127.5,127.5h230c70.304,0,127.5-57.196,127.5-127.5v-30C485,218.446,427.804,161.25,357.5,161.25z
			 M470,318.75c0,62.032-50.467,112.5-112.5,112.5h-230c-62.033,0-112.5-50.468-112.5-112.5v-30c0-62.032,50.467-112.5,112.5-112.5
			h230c62.033,0,112.5,50.468,112.5,112.5V318.75z"/>
		<path style="fill:#231F20;" d="M175,241.25h-65v40H70v65h40v40h65v-40h40v-65h-40V241.25z M200,296.25v35h-40v40h-35v-40H85v-35
			h40v-40h35v40H200z"/>
		<path style="fill:#231F20;" d="M342.5,291.25c17.92,0,32.5-14.579,32.5-32.5s-14.58-32.5-32.5-32.5s-32.5,14.579-32.5,32.5
			S324.58,291.25,342.5,291.25z M342.5,241.25c9.649,0,17.5,7.851,17.5,17.5c0,9.649-7.851,17.5-17.5,17.5s-17.5-7.851-17.5-17.5
			S332.851,241.25,342.5,241.25z"/>
		<path style="fill:#231F20;" d="M342.5,336.25c-17.92,0-32.5,14.579-32.5,32.5s14.58,32.5,32.5,32.5s32.5-14.579,32.5-32.5
			S360.42,336.25,342.5,336.25z M342.5,386.25c-9.649,0-17.5-7.851-17.5-17.5s7.851-17.5,17.5-17.5s17.5,7.851,17.5,17.5
			S352.149,386.25,342.5,386.25z"/>
		<path style="fill:#231F20;" d="M282.5,286.25c-17.92,0-32.5,14.579-32.5,32.5s14.58,32.5,32.5,32.5s32.5-14.579,32.5-32.5
			S300.42,286.25,282.5,286.25z M282.5,336.25c-9.649,0-17.5-7.851-17.5-17.5s7.851-17.5,17.5-17.5s17.5,7.851,17.5,17.5
			S292.149,336.25,282.5,336.25z"/>
		<path style="fill:#231F20;" d="M402.5,286.25c-17.92,0-32.5,14.579-32.5,32.5s14.58,32.5,32.5,32.5s32.5-14.579,32.5-32.5
			S420.42,286.25,402.5,286.25z M402.5,336.25c-9.649,0-17.5-7.851-17.5-17.5s7.851-17.5,17.5-17.5s17.5,7.851,17.5,17.5
			S412.149,336.25,402.5,336.25z"/>
		<rect x="207" y="202" style="fill:#231F20;" width="70" height="15"/>
		<rect x="227" y="232" style="fill:#231F20;" width="30" height="15"/>
	</g>
</g>
<g>
</g>
<g>
</g>
<g>
</g>
<g>
</g>
<g>
</g>
<g>
</g>
<g>
</g>
<g>
</g>
<g>
</g>
<g>
</g>
<g>
</g>
<g>
</g>
<g>
</g>
<g>
</g>
<g>
</g>
</svg>
