<?xml version="1.0" encoding="utf-8"?>
<!-- Generator: Adobe Illustrator 23.0.1, SVG Export Plug-In . SVG Version: 6.00 Build 0)  -->
<svg version="1.1" id="Capa_1" xmlns="http://www.w3.org/2000/svg" xmlns:xlink="http://www.w3.org/1999/xlink" x="0px" y="0px"
	 viewBox="0 0 457.5 457.5" style="enable-background:new 0 0 457.5 457.5;" xml:space="preserve">
<style type="text/css">
	.st0{fill:#666666;}
	.st1{fill:#0D7400;}
</style>
<g>
	<path class="st0" d="M199.7,242.7c67,0,121.3-54.4,121.3-121.3C321,54.4,266.7,0,199.7,0c-67,0-121.3,54.4-121.3,121.4
		C78.4,188.3,132.6,242.7,199.7,242.7z"/>
	<path class="st0" d="M353,276c-6.4-13.7-14.5-27.5-24.8-40.7c-5.5-7.1-15.7-14.8-25.4-20.1c-25.4,28.4-62.1,46.4-103.1,46.4
		c-41,0-77.7-18-103-46.4c-9.6,5.4-19.4,13.2-24.8,20.2c-17.4,22.7-44.3,66.7-48.5,126c-0.9,12.5,5.1,31.6,15.5,38.9
		c19.9,13.9,62.7,31.7,151.8,31.7c30.9,0,56.9-1.9,78.9-4.9c-8.9-15-14.1-32.4-14.1-51C255.4,321.8,299,277.5,353,276z"/>
	<path class="st1" d="M353,294.9c-44.9,0-81.3,36.4-81.3,81.3s36.4,81.3,81.3,81.3s81.3-36.4,81.3-81.3
		C434.3,331.3,397.9,294.9,353,294.9z M393.1,391.2h-31.4v31.4c0,5.2-4.2,9.4-9.4,9.4s-9.4-4.2-9.4-9.4v-31.4l-31.4,0
		c-5.2,0-9.4-4.2-9.4-9.4c0-5.2,4.2-9.4,9.4-9.4H343V341c0-5.2,4.2-9.4,9.4-9.4c5.2,0,9.4,4.2,9.4,9.4v31.3h31.3
		c5.2,0,9.4,4.2,9.4,9.4C402.5,387,398.3,391.2,393.1,391.2z"/>
</g>
</svg>
