<?xml version="1.0" standalone="no"?>
<!-- Uploaded to: SVG Repo, www.svgrepo.com, Generator: SVG Repo Mixer Tools -->
<svg fill="#666666" width="704px" height="824px" viewBox="0 0 1024 1024" xmlns="http://www.w3.org/2000/svg" class="icon">
  <path d="M 112 824 C 173.8 824 224 773.8 224 712 C 224 664.3 194.1 623.5 152 607.4 V 579.8 L 352 322.6 L 552 579.8 V 607.4 C 509.9 623.5 480 664.3 480 712 C 480 773.8 530.2 824 592 824 S 704 773.8 704 712 C 704 661.4 670.2 618.5 624 604.7 V 570.3 C 624 560.6 620.7 551 614.7 543.3 L 388 251.7 V 218.1 C 432.2 203.1 464 161.2 464 112 C 464 50.2 413.8 0 352 0 S 240 50.2 240 112 C 240 161.2 271.8 203 316 218.1 V 251.7 L 89.3 543.3 C 83.3 551 80 560.6 80 570.3 V 604.7 C 33.8 618.5 0 661.4 0 712 C 0 773.8 50.2 824 112 824 Z M 640 712 A 48.01 48.01 180 0 1 544 712 A 48.01 48.01 180 0 1 640 712 Z M 304 112 A 48.01 48.01 180 0 1 400 112 A 48.01 48.01 180 0 1 304 112 Z M 112 664 A 48.01 48.01 180 0 1 112 760 A 48.01 48.01 180 0 1 112 664 Z"/>
</svg>