<?xml version="1.0" encoding="iso-8859-1"?>
<!-- Generator: Adobe Illustrator 19.0.0, SVG Export Plug-In . SVG Version: 6.00 Build 0)  -->
<svg version="1.1" id="Layer_1" xmlns="http://www.w3.org/2000/svg" xmlns:xlink="http://www.w3.org/1999/xlink" x="0px" y="0px"
	 viewBox="0 0 460 460" style="enable-background:new 0 0 460 460;" xml:space="preserve">
	<path d="M425.934,0H171.662C153.54000000000002,0,138.798,14.743,138.798,32.864V109.99799999999999C145.78300000000002,109.99799999999999,282.868,109.99799999999999,288.341,109.99799999999999C323.005,109.99799999999999,351.206,138.19899999999998,351.206,172.863C351.206,179.352,351.206,318.35400000000004,351.206,320.002H425.934C444.055,320.002,458.798,305.259,458.798,287.137V32.864C458.797,14.743,444.055,0,425.934,0Z"/>
	<path d="M288.339,139.998H34.068C15.947,139.998,1.2029999999999959,154.74099999999999,1.2029999999999959,172.863V427.135C1.204,445.257,15.946,460,34.068,460H288.34C306.462,460,321.205,445.257,321.205,427.136V172.863C321.206,154.741,306.461,139.998,288.339,139.998Z"/>
</svg>
