<?xml version="1.0" encoding="iso-8859-1"?>
<!-- Generator: Adobe Illustrator 19.0.0, SVG Export Plug-In . SVG Version: 6.00 Build 0)  -->
<svg version="1.1" xmlns="http://www.w3.org/2000/svg" xmlns:xlink="http://www.w3.org/1999/xlink" x="0px" y="0px"
	 viewBox="0 0 490.584 490.584" style="enable-background:new 0 0 490.584 490.584;" xml:space="preserve">
		<path d="M 100.911 419.404 L 224.711 368.404 C 227.811 366.304 230.911 364.204 233.011 362.204 L 436.911 113.604 C 443.111 104.204 442.111 91.804 433.811 84.504 L 337.011 4.404 C 329.011 -1.496 316.711 -2.396 308.911 7.504 L 104.011 256.004 C 101.911 259.104 100.911 262.204 99.811 265.404 L 73.811 397.504 C 72.511 420.104 90.611 424.004 100.911 419.404 Z M 326.611 49.004 L 392.111 103.104 L 214.411 320.204 L 149.511 266.504 L 326.611 49.004 Z M 133.411 306.904 L 177.811 343.704 L 120.611 367.304 L 133.411 306.904 Z"/>
		<path d="M 469.111 448.504 H 119.611 C 119.611 448.504 47.111 451.904 44.411 433.304 C 44.411 432.304 42.611 427.704 52.011 416.304 C 59.311 406.904 58.211 394.504 49.911 387.204 C 40.511 379.904 28.111 381.004 20.811 389.304 C 1.011 413.204 -4.189 434.004 5.211 452.804 C 30.711 500.304 116.511 489.104 120.611 490.104 H 469.111 C 480.511 490.104 489.911 480.704 489.911 469.304 C 490.011 457.804 480.611 448.504 469.111 448.504 Z"/>
</svg>
