<?xml version="1.0" encoding="iso-8859-1"?>
<!-- Generator: Adobe Illustrator 18.1.1, SVG Export Plug-In . SVG Version: 6.00 Build 0)  -->
<svg version="1.1" xmlns="http://www.w3.org/2000/svg" xmlns:xlink="http://www.w3.org/1999/xlink" x="0px" y="0px"
	 viewBox="0 0 22.257 22.257" style="enable-background:new 0 0 22.257 22.257;" xml:space="preserve">
	<path d="M 9.109 2.27 C 9.248 2.198 9.412 2.219 9.535 2.313 L 20.31 10.816 C 20.404 10.889 20.464 11.007 20.464 11.128 C 20.464 11.247 20.403 11.367 20.31 11.441 L 9.535 19.944 C 9.463 20.001 9.373 20.031 9.283 20.031 L 9.109 19.991 C 8.974 19.927 8.884 19.784 8.884 19.63 V 2.63 C 8.885 2.476 8.975 2.334 9.109 2.27 Z"/>
	<path d="M 0.221 2.27 C 0.362 2.198 0.528 2.219 0.645 2.313 L 11.422 10.816 C 11.518 10.889 11.576 11.007 11.576 11.128 C 11.576 11.247 11.517 11.367 11.422 11.441 L 0.645 19.944 C 0.573 20.001 0.485 20.031 0.399 20.031 L 0.221 19.991 C 0.084 19.926 0 19.784 0 19.629 V 2.63 C 0 2.476 0.084 2.334 0.221 2.27 Z"/>
	<path d="M 19.287 2.26 H 21.943 C 22.117 2.26 22.257 2.443 22.257 2.66 V 19.595 C 22.257 19.817 22.116 19.999 21.943 19.999 H 19.287 C 19.111 19.999 18.969 19.816 18.969 19.595 V 2.661 C 18.969 2.443 19.111 2.26 19.287 2.26 Z"/>
</svg>
