<svg xmlns="http://www.w3.org/2000/svg" width="512" height="328" viewBox="0 0 512 328"><title>follow</title><path d="M192,0a32.056,32.056,0,0,0-30.172,21.332A7.994,7.994,0,0,0,166.7,31.543a7.855,7.855,0,0,0,7.695-1.5L208,70.393V80a8,8,0,0,0,16,0V32A32.034,32.034,0,0,0,192,0Z" fill="#b9bbc1"/><path d="M168,16a55.815,55.815,0,0,0-39.328,16.176L26.1,144.152l11.8,10.805,2.771-3.027L208,197.806V200a8,8,0,0,0,16,0V72A56.065,56.065,0,0,0,168,16Z" fill="#8b8996"/><path d="M320,0a32.056,32.056,0,0,1,30.172,21.332A7.994,7.994,0,0,1,345.3,31.543a7.855,7.855,0,0,1-7.7-1.5L304,70.393V80a8,8,0,0,1-16,0V32A32.033,32.033,0,0,1,320,0Z" fill="#b9bbc1"/><path d="M344,16a55.815,55.815,0,0,1,39.328,16.176L485.9,144.153l-11.8,10.805-2.771-3.027L304,197.806V200a8,8,0,0,1-16,0V72A56.065,56.065,0,0,1,344,16Z" fill="#8b8996"/><circle cx="112" cy="216" r="88" fill="#aaa"/><path d="M112,104A112,112,0,1,0,224,216,112.126,112.126,0,0,0,112,104Zm0,192a80,80,0,1,1,80-80A80.092,80.092,0,0,1,112,296Z" fill="#5c546a"/><path d="M192,112H320l1.23-.017A83.746,83.746,0,0,0,296,172v28H216V172a83.746,83.746,0,0,0-25.23-60.017" fill="#5c546a"/><circle cx="128" cy="200" r="32" fill="#fff"/><circle cx="400" cy="216" r="88" fill="#aaa"/><path d="M400,104A112,112,0,1,0,512,216,112.126,112.126,0,0,0,400,104Zm0,192a80,80,0,1,1,80-80A80.092,80.092,0,0,1,400,296Z" fill="#5c546a"/><circle cx="416" cy="200" r="32" fill="#fff"/><rect x="192" y="96" width="128" height="16" fill="#8b8996"/></svg>