<?xml version="1.0" encoding="iso-8859-1"?>
<!-- Generator: Adobe Illustrator 18.1.1, SVG Export Plug-In . SVG Version: 6.00 Build 0)  -->
<svg version="1.1" xmlns="http://www.w3.org/2000/svg" xmlns:xlink="http://www.w3.org/1999/xlink" x="0px" y="0px"
	 viewBox="0 0 22.257 22.257" style="enable-background:new 0 0 22.257 22.257;" xml:space="preserve">
	<path d="M 13.148 2.27 C 13.009 2.198 12.845 2.219 12.722 2.313 L 1.947 10.816 C 1.853 10.889 1.793 11.007 1.793 11.128 C 1.793 11.247 1.854 11.367 1.947 11.441 L 12.722 19.944 C 12.794 20.001 12.884 20.031 12.974 20.031 L 13.148 19.991 C 13.283 19.927 13.373 19.784 13.373 19.63 V 2.63 C 13.372 2.476 13.282 2.334 13.148 2.27 Z"/>
	<path d="M 22.036 2.27 C 21.895 2.198 21.729 2.219 21.612 2.313 L 10.835 10.816 C 10.739 10.889 10.681 11.007 10.681 11.128 C 10.681 11.247 10.74 11.367 10.835 11.441 L 21.612 19.944 C 21.684 20.001 21.772 20.031 21.858 20.031 L 22.036 19.991 C 22.173 19.926 22.257 19.784 22.257 19.629 V 2.63 C 22.257 2.476 22.173 2.334 22.036 2.27 Z"/>
	<path d="M 2.97 2.26 H 0.314 C 0.14 2.26 0 2.443 0 2.66 V 19.595 C 0 19.817 0.141 19.999 0.314 19.999 H 2.97 C 3.146 19.999 3.288 19.816 3.288 19.595 V 2.661 C 3.288 2.443 3.146 2.26 2.97 2.26 Z"/>
</svg>
