<?xml version="1.0" encoding="utf-8"?>
<!-- Generator: Adobe Illustrator 23.0.1, SVG Export Plug-In . SVG Version: 6.00 Build 0)  -->
<svg version="1.1" id="Слой_1" xmlns="http://www.w3.org/2000/svg" xmlns:xlink="http://www.w3.org/1999/xlink" x="0px" y="0px"
	 viewBox="0 0 159.3 149.3" style="enable-background:new 0 0 159.3 149.3;" xml:space="preserve">
<g>
	<g id="Слой_1-2">
		<path fill="#666666" d="M120.9,127.3c-5.5,7.8-13.6,13.4-22.8,15.9c-28.7,8.8-57.2,7.6-85.7-0.9C3.1,139.6,0,134.9,0,124.8
			s0-20.6,0-30.4l60.1-56.2l58.2,54.2l2.6,10.1V127.3z M5.6,114.3c-0.3,1.2-0.5,2.4-0.6,3.6C4,133.2,6.5,137.3,21.6,140
			c13.1,2.4,26.4,3.8,39.7,4.3c15.5,0.3,30.7-2.2,44.7-9.6c9.6-5.1,11.3-9,8.1-20.3C78.3,126.7,42.3,126.6,5.6,114.3z M111.5,93.7
			c-15.3-16.1-31.4-30-47.2-45c-2.8,9.3-2.2,52.1,0.6,57.1l20.7-4.4l9.2,12.7l12.5-3.1c-2.5-4.6-4.3-7.9-6.5-12L111.5,93.7z
			 M57,50.6l-1.5-1C39.7,63.8,23.9,77.9,8.3,93.9c2.2,0.7,4.4,1.6,6.5,2.5c1.5,0.9,3,2,4.3,3.1L13,111.1l12.7,2.9l8.9-12.6l22.4,4.5
			V50.6z M88.9,115l-5.5-8.2c-7.7,1.9-15.5,5.2-23,5.1s-15.7-3.3-23.9-5.2l-4.5,8.4C50.7,119.5,70.2,119.5,88.9,115z M11.3,103
			l-2.5-2.3L5.4,105l1.9,1.7L11.3,103z M110.8,100.7l-1.8,2c1.3,1.1,2.6,2.3,3.9,3.4c0.6-0.6,1.2-1.2,1.8-1.9L110.8,100.7z"/>
	</g>
</g>
<rect x="118.4" fill="#666666" width="19" height="62.7"/>
<rect x="118.4" transform="matrix(6.123234e-17 -1 1 6.123234e-17 96.5759 159.2866)" fill="#666666" width="19" height="62.7"/>
</svg>
