<?xml version="1.0" encoding="utf-8"?>
<!-- Generator: Adobe Illustrator 23.0.1, SVG Export Plug-In . SVG Version: 6.00 Build 0)  -->
<svg version="1.1" id="Слой_1" xmlns="http://www.w3.org/2000/svg" xmlns:xlink="http://www.w3.org/1999/xlink" x="0px" y="0px"
	 viewBox="0 0 308.8 363.2" style="enable-background:new 0 0 308.8 363.2;" xml:space="preserve">
<style type="text/css">
	.st0{fill:#666666;}
</style>
<title>play_from_pos</title>
<path class="st0" d="M140.8,191.8h10.6c4.1,0.5,8.1,1.3,12.2,1.4c15,0.4,30,0.5,45,0.8c7.5,0.2,7.8,0.6,7.8,8.1
	c0,5.6-0.7,11.3,0,16.7c1.8,12.9-1.6,23-13.6,29.3c-4,1.8-5.8,6.5-4.1,10.5c2.6,8.1,5.5,16.1,8.3,24c1.8,5.1,5.3,6.2,10.3,6.3
	s10.3,1.1,15.5,1.7v31.8c-8.5,11.9-17.1,23.7-25.5,35.7c-2.2,3.5-6.2,5.4-10.3,4.9c-30.8-1.5-61.6-2.6-92.4-4
	c-7.1-0.3-8.4-1.9-8.3-9.3c0-5.3,1.1-10.8,0-15.9c-1.8-8.2,2.1-13,7.6-18c10.2-9.3,20.7-18.5,22.4-33.5c0.6-4.9,1.9-9.8,2.7-14.7
	c1.4-8,0-9.6-8.5-10.1c-2-0.1-4.1-0.5-6.1-0.5c-4.8,0-6.8-2-6.7-7.1c0.2-10.9,0.2-21.8,0-32.6c-0.3-3.8,1.9-7.4,5.4-8.9
	C122.5,203.3,131.6,197.4,140.8,191.8z M190.9,314.3c-3.8-18.1-7.1-34.7-11-51.2c-0.4-1.8-4.2-3.7-6.5-3.8
	c-10.2-0.8-20.5-0.8-30.8-1.4c-4.9-0.3-6.4,1.8-7.5,6.3c-2.9,13.1-6.5,26.1-9.8,39.1c-0.5,2.2-1.1,4.3-2.1,7.8
	C146.3,314.1,168.6,313.7,190.9,314.3L190.9,314.3z M184.3,253.7c0.1-9.8,0.1-18.8,0.4-27.8c0.2-5.3-2-7.2-7.3-7.4
	c-18.5-0.6-37.1-1.6-55.6-2.3c-2.5-0.1-5.1,0.3-8.7,0.5c0,9.7,0.2,18.8,0,27.8c-0.2,5.4,1.9,7.2,7.2,7.4c17.4,0.4,34.7,1.3,52,1.9
	C175.9,253.8,179.4,253.7,184.3,253.7z M198.8,333.2c-1.8-0.4-3.7-0.7-5.5-0.9c-25.5-1.1-51-2.1-76.5-3.1
	c-17.5-0.7-15.2-0.8-15.2,14.8c0,9.4,0.4,9.8,9.9,10.2c24.9,1.1,49.8,2.1,74.7,3.1c2.3,0,4.7,0,7.1,0.1c3.5,0.1,5.5-1.5,5.5-5.2
	C198.8,346.1,198.8,340,198.8,333.2L198.8,333.2z M126,207.9l0.4,2.2c16.9,0.8,33.9,1.3,50.8,2.7c10.4,0.8,16.8-4.3,23.9-12.6
	c-4.2-0.5-7.1-1-9.8-1.1c-12.9-0.5-25.9-0.3-38.7-1.5C141.5,196.6,133.7,201.9,126,207.9z M108.1,322.6c29.9,1.3,58.6,2.5,87.3,3.5
	c2,0.2,4-0.5,5.6-1.8c7.1-9.1,13.9-18.5,20.7-27.8l-1.8-2.2c-2,1.1-4.8,1.8-6,3.4c-4.4,6.1-8.1,12.8-12.7,18.8
	c-1.8,2.2-4.4,3.5-7.3,3.7c-25.9-1.3-51.6-2.6-77.4-4.5C111.6,315.4,109.6,317.2,108.1,322.6L108.1,322.6z M191.1,247.5
	c18.2-5.1,26.2-25.7,17-42.9c-4.1,2.7-8.1,5.7-11.9,8.8c-2.2,2-4.7,5-4.9,7.8C190.7,229.9,191.1,238.6,191.1,247.5L191.1,247.5z
	 M197.2,308.8c9.3-5.9,10.8-9.1,8-15.9c-3.8-9.5-7.5-19.1-11.5-28.5c-0.8-1.8-2.8-3.1-4.2-4.7c-1.1,2-3.3,4.2-3,6.1
	C188.1,280.6,191.7,295,197.2,308.8z M226.1,304.6c-1.9,1.2-3.7,2.7-5.3,4.3c-4.6,6-9.3,12-13.5,18.3s-2.5,13.6-0.8,20.7
	c5.7-6.3,10.1-13.2,15.4-19.3C228.1,321.5,227.2,313.8,226.1,304.6L226.1,304.6z"/>
<path class="st0" d="M304,97.7c-12.7-4.8-25.4-9.7-38.1-14.5c-10-3.8-20-7.6-30.8-11.7c2.2-0.5,3.6-0.8,4.9-1
	c7.6-1.5,15.3-2.7,22.8-4.4c14.7-3.6,24.5-17.4,23-32.5c-0.5-5-2.3-6.3-7.2-5.2c-31.8,6.9-63.7,13.8-95.5,20.7
	c-1.7,0.2-3.3-0.1-4.9-0.7c-3.6-1.2-7.1-3.3-10.8-4c-18.5-3.7-37-7-55.6-10.5c-8.8-1.6-17.6-3.4-26.7-1.5
	c-5.7,1.2-11.5,1.3-18.1,2.1c1.5-7.5,2.8-13.8,4-20.2c0.8-4.4-0.3-6-4.7-6.9C55.3,5,44.1,2.8,33,0.5c-6.6-1.3-7.7-0.6-9,5.8
	C16.1,46,8.2,85.6,0.3,125.3c-0.9,4.4,0.3,6.3,4.7,7.2c11.4,2.3,22.8,4.6,34.2,6.8c5.4,1.1,6.9,0,8-5.4c1.1-5.3,2.2-10.7,3.2-15.8
	c5.9-0.5,9.9,1.4,13.4,6c6,7.8,14.5,12.5,24,15c2.1,0.6,4.3,1,6.6,1.5c-0.7,7.1-1.3,13.9-2,20.7c-1.3,13.4-2.7,26.8-4,40.3
	c-0.3,3.7,1.7,5.7,5.3,5.5c1.5,0,3-0.2,4.4-0.6c6.5-2.6,13-5.4,18.8-7.8c4.9-3.2,4.9-3.2,7-6c2.7-3.6,5.1-7.6,5.1-13.8
	c2.2-16.5,4.4-32.8,6.6-48.9c0.5-3.8,1.1-7.7,1.6-11.5c0.4-1.7,1.2-3.3,2.3-4.6c6.6-8.2,15.4-11.5,25.6-9.5
	c10.1,2,17.1,8.3,19.8,18.3c3.3,12.4,5.9,25,8.9,37.5c1,4,2.4,7.8,3.7,12.1c0,4.6,11.8,19.4,17.2,19.4c4.5,1.8,9.1,3.9,13.9,5.5
	c3.6,1.2,6.1-1.1,5.9-4.9c-0.1-1.1-0.3-2.2-0.5-3.3c-3.4-18-6.7-36.1-10.1-54.1c-0.1-1.1-0.1-2.2,0-3.3c1.5,1.6,2.6,2.8,3.6,4
	c5.5,6.4,11,13,16.7,19.3c10.2,11.4,26.6,14.8,40.5,8.5c5-2.3,5.7-4.9,2.3-9.2c-9.7-12.2-19.5-24.4-29.3-36.6
	c-0.5-0.7-1-1.5-1.9-2.9c5.2,2.1,9.5,4.1,13.9,5.7c14.1,5.2,29.8-0.5,37.2-13.5C310,101.9,309.3,99.7,304,97.7z M276.5,37.9
	c-0.1,9.5-7.5,17.9-17.1,19.7c-18.5,3.5-37,6.9-55.6,10.2v0c-1.2,0.2-2.4-0.1-3.4-0.7c-3.8-3.1-7.3-6.4-11.6-10.1
	C218.4,50.5,247.3,44.2,276.5,37.9z M38.8,130c-9.9-2-19.3-3.9-29.1-5.8C17.3,86,24.9,48,32.6,9.6c9.7,1.9,19.2,3.8,29.1,5.8
	C54,53.7,46.4,91.6,38.8,130z M224.3,186c-11.3-6-18.3-14.7-21.2-26.6c-2.9-12-5.5-24.1-8.4-36.1c-3.6-15.2-13-25.1-28.4-27.8
	c-14.4-2.6-26.3,2.7-35,14.6c-4,5.4-3.8,12.1-4.7,18.3c-2,14.3-3.5,28.8-5.3,43.1c-1.7,12.5-10.9,22.7-23.2,25.7
	c0.3-3.5,0.5-6.9,0.8-10.3c1.6-16.3,3.2-32.5,4.8-48.8c0.4-4.3-1-6-5.3-6.3c-13.6-1-24.2-7.1-31.9-18.3c-1.1-1.6-3.4-2.7-5.4-3.3
	c-2.7-0.8-5.6-0.9-9-1.3c4.4-22.2,8.8-44,13.2-66.2c1.5,0,2.9,0.1,4.4,0c6.4-0.6,12.8-1.7,19.3-1.7c7.1,0,14.1,0.6,21.1,1.8
	c18.6,3.2,37.1,6.6,55.6,10.4c4,0.9,7.7,2.7,10.9,5.3c7.7,6.2,14.9,12.9,22.3,19.4c4.6,4,7.6,9.4,8.6,15.4
	c5.5,29.7,11,59.4,16.5,89.1C224.2,183.3,224.2,184.5,224.3,186z M276.5,155.1L276.5,155.1c0.2,0.3,0.4,0.6,0.5,1
	c-7.8,3.5-19.1,0.3-26.1-7.5c-6.8-7.6-13.4-15.5-20.1-23.2c-1.3-1.7-2.7-3.3-4.2-4.8c-6.7-5.6-8-13.4-8.9-22.1
	c6.8,2.9,13.1,5.5,19.4,8.2c0.8,0.4,1.4,1,1.9,1.7C251.6,123.9,264.1,139.5,276.5,155.1z M273.5,111.9L273.5,111.9
	c-18.9-7.7-37.7-15.8-56.5-23.7c-0.8-0.3-1.4-0.9-1.9-1.6c-1.7-3.4-3.3-6.9-4.9-10.5c5.1-2.2,9.7-0.9,14.5,0.9
	c23.1,9,46.3,17.7,69.5,26.5c1,0.4,2,0.9,3,1.3C291.9,112.4,282.1,115.3,273.5,111.9z"/>
</svg>
