<?xml version="1.0" encoding="iso-8859-1"?>
<!-- Generator: Adobe Illustrator 16.0.0, SVG Export Plug-In . SVG Version: 6.00 Build 0)  -->
<!DOCTYPE svg PUBLIC "-//W3C//DTD SVG 1.1//EN" "http://www.w3.org/Graphics/SVG/1.1/DTD/svg11.dtd">
<svg version="1.1" xmlns="http://www.w3.org/2000/svg" xmlns:xlink="http://www.w3.org/1999/xlink" x="0px" y="0px"
	 width="402.917px" height="402.917px" viewBox="0 0 402.917 402.917" style="enable-background:new 0 0 402.917 402.917;"
	 xml:space="preserve">
	<path d="M 386.004 20.848 V 382.061 C 386.004 389.508 382.032 396.394 375.577 400.124 C 369.117 403.848 361.179 403.848 354.724 400.124 L 138.281 219.515 C 131.829 215.796 127.845 208.911 127.845 201.457 C 127.845 194.006 131.823 187.117 138.281 183.396 L 354.725 2.79 C 357.952 0.928 361.551 0 365.151 0 C 368.756 0 372.35 0.934 375.578 2.79 C 382.033 6.508 386.004 13.397 386.004 20.848 Z M 94.066 0.201 H 25.261 C 20.648 0.201 16.912 3.936 16.912 8.541 V 394.349 C 16.912 398.953 20.647 402.689 25.261 402.689 H 94.066 C 98.673 402.689 102.406 398.954 102.406 394.349 V 8.547 C 102.406 3.943 98.673 0.201 94.066 0.201 Z"/>
</svg>
