<?xml version="1.0" encoding="iso-8859-1"?>
<!-- Generator: Adobe Illustrator 19.0.0, SVG Export Plug-In . SVG Version: 6.00 Build 0)  -->
<svg version="1.1" xmlns="http://www.w3.org/2000/svg" xmlns:xlink="http://www.w3.org/1999/xlink" x="0px" y="0px"
	 viewBox="0 0 458.624 458.624" style="enable-background:new 0 0 458.624 458.624;" xml:space="preserve">
		<path d="M 339.588 314.529 C 325.373 314.529 312.132 318.662 300.967 325.768 L 188.285 247.098 C 190.094 240.783 191.083 234.122 191.083 227.227 C 191.083 220.331 190.094 213.67 188.285 207.356 L 297.925 130.809 C 309.689 139.165 324.058 144.095 339.587 144.095 C 379.377 144.095 411.634 111.838 411.634 72.048 C 411.634 32.258 379.378 0 339.588 0 C 299.798 0 267.541 32.257 267.541 72.047 C 267.541 77.302 268.119 82.42 269.187 87.355 L 156.763 165.846 C 145.789 159.087 132.871 155.18 119.036 155.18 C 79.246 155.18 46.989 187.437 46.989 227.227 S 79.245 299.274 119.036 299.274 C 132.87 299.274 145.789 295.367 156.763 288.608 L 270.055 367.705 C 268.426 373.722 267.541 380.045 267.541 386.577 C 267.541 426.367 299.798 458.624 339.588 458.624 C 379.378 458.624 411.635 426.367 411.635 386.577 C 411.635 346.787 379.378 314.529 339.588 314.529 Z"/>
</svg>
