<?xml version="1.0" encoding="iso-8859-1"?>
<!-- Generator: Adobe Illustrator 19.0.0, SVG Export Plug-In . SVG Version: 6.00 Build 0)  -->
<svg version="1.1" id="Layer_1" xmlns="http://www.w3.org/2000/svg" xmlns:xlink="http://www.w3.org/1999/xlink" x="0px" y="0px"
	 viewBox="0 0 392.598 392.598" style="enable-background:new 0 0 392.598 392.598;" xml:space="preserve">
<path style="fill:#FFFFFF;" d="M354.563,154.699c-0.388-81.907-71.499-134.594-136.533-132.913
	c-72.533,0-131.62,59.022-131.62,131.62v17.067c0,2.457-0.84,4.848-2.392,6.788l-34.069,42.731h25.471
	c6.012,0,10.925,4.848,10.925,10.925v72.792h45.446c6.012,0,10.925,4.848,10.925,10.925v56.048h143.257v-0.776
	c0-49.39,15.838-98.651,45.77-142.545C346.417,205.899,354.304,180.752,354.563,154.699z"/>
<path style="fill:#194F82;" d="M218.094,0C133.472,0,64.688,68.784,64.688,153.406v13.317l-45.834,57.471
	c-6.723,7.434,1.228,18.683,8.469,17.713h37.236v72.792c0,6.012,4.848,10.925,10.925,10.925h45.446v56.048
	c0,6.012,4.848,10.925,10.925,10.925h165.042c6.012,0,10.925-4.848,10.925-10.925v-11.766c0-44.994,14.545-90.053,41.956-130.263
	c17.067-25.018,26.246-54.303,26.505-84.752C374.862,60.315,302.652,1.939,218.094,0z M286.102,370.747H142.846v-56.048
	c0-6.012-4.848-10.925-10.925-10.925H86.474v-72.727c0-6.012-4.848-10.925-10.925-10.925H50.078l34.069-42.731
	c1.552-1.939,2.392-4.331,2.392-6.788v-17.067c0-72.533,59.022-131.62,131.62-131.62c64.97-1.681,136.145,51.006,136.533,132.913
	c-0.259,26.053-8.145,51.2-22.691,72.727c-29.931,43.895-45.77,93.22-45.77,142.545v0.646H286.102z"/>
<path style="fill:#FFC10D;" d="M219.581,43.572c-62.836,0-111.257,49.196-111.257,109.834v28.509L95.33,198.206h12.994v83.782
	h56.307v66.974h100.525c3.879-46.61,20.493-92.509,48.679-133.818c12.218-17.907,19.782-38.853,18.941-60.574
	C329.674,69.366,258.821,43.572,219.581,43.572z"/>
<path style="fill:#56ACE0;" d="M214.215,160.97c-11.895,0-21.527,9.632-21.527,21.527c0,11.895,9.632,21.527,21.527,21.527
	c11.895,0,21.527-9.632,21.527-21.527C235.743,170.602,226.11,160.97,214.215,160.97z"/>
<path style="fill:#FFFFFF;" d="M158.425,82.166c-5.947,0-10.731,4.784-10.731,10.731c0,5.947,4.784,10.731,10.731,10.731
	c5.947,0,10.731-4.784,10.731-10.731C169.221,87.014,164.373,82.166,158.425,82.166z"/>
<path style="fill:#56ACE0;" d="M285.326,97.81c-5.947,0-10.731,4.784-10.731,10.731c0,5.947,4.784,10.731,10.731,10.731
	s10.731-4.784,10.731-10.731C296.058,102.659,291.274,97.81,285.326,97.81z"/>
<path style="fill:#FFFFFF;" d="M223.912,271.515c-5.947,0-10.731,4.784-10.731,10.731c0,5.947,4.784,10.731,10.731,10.731
	s10.731-4.784,10.731-10.731S229.86,271.515,223.912,271.515z"/>
<path style="fill:#194F82;" d="M285.326,76.024c-17.907,0-32.517,14.61-32.517,32.517c0,5.236,1.228,10.15,3.491,14.545
	l-20.687,21.527c-6.271-3.556-13.511-5.56-21.269-5.56c-4.461,0-8.857,0.711-12.994,2.004l-17.39-27.992
	c4.396-5.56,7.111-12.606,7.111-20.234c0-17.907-14.61-32.517-32.517-32.517s-32.517,14.61-32.517,32.517
	s14.61,32.517,32.517,32.517c2.392,0,4.719-0.323,6.982-0.776l17.39,27.992c-7.434,7.822-11.96,18.23-11.96,29.802
	c0,21.527,15.903,39.499,36.525,42.796l2.651,27.539c-11.055,5.172-18.747,16.485-18.747,29.414
	c0,17.907,14.61,32.517,32.517,32.517s32.517-14.61,32.517-32.517c0-15.192-10.537-27.992-24.63-31.547l-2.651-27.539
	c16.614-6.077,28.509-22.044,28.509-40.727c0-8.339-2.392-16.097-6.465-22.626l20.687-21.527c4.073,1.875,8.598,2.909,13.382,2.909
	c17.907,0,32.517-14.61,32.517-32.582C317.844,90.634,303.234,76.024,285.326,76.024z M158.425,103.693
	c-5.947,0-10.731-4.784-10.731-10.731s4.784-10.731,10.731-10.731c5.947,0,10.731,4.784,10.731,10.731
	C169.221,98.844,164.373,103.693,158.425,103.693z M223.912,293.042c-5.947,0-10.731-4.784-10.731-10.731
	c0-5.947,4.784-10.731,10.731-10.731s10.731,4.784,10.731,10.731C234.644,288.194,229.86,293.042,223.912,293.042z M214.215,204.089
	c-11.895,0-21.527-9.632-21.527-21.527s9.632-21.527,21.527-21.527c11.895,0,21.527,9.632,21.527,21.527
	S226.11,204.089,214.215,204.089z M285.326,119.402c-5.947,0-10.731-4.784-10.731-10.731c0-5.947,4.784-10.731,10.731-10.731
	s10.731,4.784,10.731,10.731C296.058,114.489,291.274,119.402,285.326,119.402z"/>
<g>
</g>
<g>
</g>
<g>
</g>
<g>
</g>
<g>
</g>
<g>
</g>
<g>
</g>
<g>
</g>
<g>
</g>
<g>
</g>
<g>
</g>
<g>
</g>
<g>
</g>
<g>
</g>
<g>
</g>
</svg>
