<?xml version="1.0" encoding="utf-8"?>
<!-- Generator: Adobe Illustrator 23.0.1, SVG Export Plug-In . SVG Version: 6.00 Build 0)  -->
<svg version="1.1" id="Слой_1" xmlns="http://www.w3.org/2000/svg" xmlns:xlink="http://www.w3.org/1999/xlink" x="0px" y="0px"
	 viewBox="0 0 16 16" style="enable-background:new 0 0 16 16;" xml:space="preserve">
<path fill="#FFE633" stroke="#DDB300" stroke-width="0.5" stroke-miterlimit="10" d="M5.5,0.4C5.6,0.1,5.8,0,6,0h4c0.3,0,0.5,0.2,0.5,0.5c0,0.1,0,0.1,0,0.2L8.7,6h3.8C12.8,6,13,6.2,13,6.5
	c0,0.1,0,0.2-0.1,0.3l-7,9c-0.2,0.2-0.5,0.3-0.7,0.1C5,15.8,5,15.6,5,15.4l1.8-5.9H3.5C3.2,9.5,3,9.3,3,9c0,0,0-0.1,0-0.1L5.5,0.4z"
	/>
</svg>
