<?xml version="1.0" encoding="utf-8"?>
<!-- Generator: Adobe Illustrator 23.0.1, SVG Export Plug-In . SVG Version: 6.00 Build 0)  -->
<svg version="1.1" id="Capa_1" xmlns="http://www.w3.org/2000/svg" xmlns:xlink="http://www.w3.org/1999/xlink" x="0px" y="0px"
	 viewBox="0 0 60.8 40.7" xml:space="preserve">
<path fill="#76D6B1" stroke="#22B27E" stroke-width="0.75" stroke-miterlimit="10" d="M60.4,1.2C60.4,1.2,60.4,1.2,60.4,1.2c0-0.1-0.1-0.2-0.1-0.4c0,0,0,0,0,0c0,0,0,0,0,0c-0.1-0.1-0.1-0.2-0.2-0.3
	c0,0,0,0-0.1,0c-0.1,0-0.2-0.1-0.2-0.1c-0.1,0-0.1,0-0.2,0c0,0-0.1,0-0.1,0h0c0,0-0.1,0-0.1,0c0,0,0,0,0,0c0,0,0,0,0,0
	c0,0-0.1,0-0.1,0l-58.1,12c-0.4,0.1-0.7,0.4-0.8,0.8s0.1,0.8,0.5,1L17.5,23l2.9,16.2c0,0,0,0,0,0c0,0.1,0,0.2,0,0.2c0,0,0,0.1,0,0.1
	c0,0.1,0.1,0.2,0.1,0.3c0,0,0,0,0,0.1c0,0,0,0,0,0c0,0,0,0,0,0.1c0,0.1,0.1,0.1,0.2,0.2c0,0,0,0,0,0c0,0,0,0,0,0
	c0.1,0,0.1,0.1,0.2,0.1c0,0,0.1,0,0.1,0c0.1,0,0.2,0,0.3,0c0,0,0,0,0,0l0,0l0,0c0,0,0,0,0,0c0,0,0,0,0.1,0c0.3,0,0.5-0.1,0.7-0.3
	l11.1-7.4l11.6,7.5c0.2,0.1,0.4,0.2,0.5,0.2c0.1,0,0.2,0,0.3-0.1c0.3-0.1,0.5-0.3,0.6-0.6L60.3,1.9c0.1-0.2,0.1-0.3,0.1-0.5
	C60.5,1.3,60.4,1.3,60.4,1.2z M48.8,7.9l-24,17.6c0,0-0.1,0.1-0.1,0.1c0,0,0,0,0,0c0,0,0,0-0.1,0.1c0,0,0,0,0,0.1
	c0,0.1-0.1,0.1-0.1,0.2c0,0,0,0,0,0c0,0,0,0,0,0L21.7,35l-2.2-12.1L48.8,7.9z M23.3,36.9l2.7-9l4.2,2.8l1.2,0.8l-4.1,2.7L23.3,36.9z
	"/>
</svg>
