<?xml version="1.0" encoding="utf-8"?>
<!-- Generator: Adobe Illustrator 23.0.1, SVG Export Plug-In . SVG Version: 6.00 Build 0)  -->
<svg version="1.1" id="Слой_1" xmlns="http://www.w3.org/2000/svg" xmlns:xlink="http://www.w3.org/1999/xlink" x="0px" y="0px"
	 viewBox="0 0 512 512" style="enable-background:new 0 0 512 512;" xml:space="preserve">
<linearGradient id="SVGID_1_" gradientUnits="userSpaceOnUse" x1="134.2135" y1="137.8458" x2="471.7187" y2="466.5181">
	<stop  offset="0" style="stop-color:#CC3E00"/>
	<stop  offset="0.3119" style="stop-color:#CA3D00"/>
	<stop  offset="0.4906" style="stop-color:#C13800"/>
	<stop  offset="0.6357" style="stop-color:#B33000"/>
	<stop  offset="0.7627" style="stop-color:#A02400"/>
	<stop  offset="0.8779" style="stop-color:#861500"/>
	<stop  offset="0.9831" style="stop-color:#670300"/>
	<stop  offset="1" style="stop-color:#610000"/>
</linearGradient>
<path fill="url(#SVGID_1_)" d="M492,491.6l-65.5-249l-15.3,92.4l-27.3-31.5l16.7,60.5L160,30l-21.1-10l142.3,208.9L109.5,42.2l99,138.5
	L45.2,20L20.9,52.3l357.8,338.9L20.9,101.4L33,161l343.8,249.6L290,393l26.9,30.9l-70.5,3L492,491.6z"/>
<linearGradient id="SVGID_2_" gradientUnits="userSpaceOnUse" x1="145" y1="463.105" x2="367.95" y2="463.105">
	<stop  offset="0" style="stop-color:#CC3E00"/>
	<stop  offset="0.3119" style="stop-color:#CA3D00"/>
	<stop  offset="0.4906" style="stop-color:#C13800"/>
	<stop  offset="0.6357" style="stop-color:#B33000"/>
	<stop  offset="0.7627" style="stop-color:#A02400"/>
	<stop  offset="0.8779" style="stop-color:#861500"/>
	<stop  offset="0.9831" style="stop-color:#670300"/>
	<stop  offset="1" style="stop-color:#610000"/>
</linearGradient>
<polygon fill="url(#SVGID_2_)" points="368,478.4 200,476.8 145,457 201.2,447.8 "/>
<linearGradient id="SVGID_3_" gradientUnits="userSpaceOnUse" x1="448.1641" y1="85.3684" x2="507.1641" y2="474.3684">
	<stop  offset="0" style="stop-color:#CC3E00"/>
	<stop  offset="0.3119" style="stop-color:#CA3D00"/>
	<stop  offset="0.4906" style="stop-color:#C13800"/>
	<stop  offset="0.6357" style="stop-color:#B33000"/>
	<stop  offset="0.7627" style="stop-color:#A02400"/>
	<stop  offset="0.8779" style="stop-color:#861500"/>
	<stop  offset="0.9831" style="stop-color:#670300"/>
	<stop  offset="1" style="stop-color:#610000"/>
</linearGradient>
<polygon fill="url(#SVGID_3_)" points="483.8,319.4 425.3,115.5 447,74.4 479,108.4 "/>
</svg>
