<?xml version='1.0' encoding='iso-8859-1'?>
<!DOCTYPE svg PUBLIC '-//W3C//DTD SVG 1.1//EN' 'http://www.w3.org/Graphics/SVG/1.1/DTD/svg11.dtd'>
<svg version="1.1" xmlns="http://www.w3.org/2000/svg" viewBox="0 0 315 315" xmlns:xlink="http://www.w3.org/1999/xlink" enable-background="new 0 0 315 315">
    <path fill="#333333" d="M256.774,23.942H191.938V17.477C191.938,7.841000000000001,184.194,0,174.67499999999998,0H140.327C130.80599999999998,0,123.061,7.841,123.061,17.478V23.943H58.22600000000001C48.60700000000001,23.943,40.78100000000001,31.703000000000003,40.78100000000001,41.24V52.669000000000004C40.78100000000001,59.837,45.201000000000015,65.99900000000001,51.47900000000001,68.62C53.46800000000001,108.243,64.97900000000001,299.813,65.49700000000001,308.421C65.71900000000001,312.117,68.78100000000002,315.001,72.48400000000001,315.001H242.517C246.22,315.001,249.283,312.11699999999996,249.504,308.421C250.022,299.81399999999996,261.532,108.243,263.522,68.62C269.8,65.99900000000001,274.21999999999997,59.837,274.21999999999997,52.669000000000004V41.239000000000004C274.22,31.702000000000005,266.39399999999995,23.942000000000004,256.77399999999994,23.942000000000004ZM137.061,17.478C137.061,15.560000000000002,138.526,14.000000000000002,140.327,14.000000000000002H174.675C176.47500000000002,14.000000000000002,177.93900000000002,15.560000000000002,177.93900000000002,17.478V23.943H137.062V17.478ZM54.77900000000001,41.239000000000004C54.77900000000001,39.42100000000001,56.32500000000001,37.94200000000001,58.22400000000001,37.94200000000001H256.773C258.672,37.94200000000001,260.218,39.42000000000001,260.218,41.239000000000004V52.668000000000006C260.218,54.48700000000001,258.672,55.967000000000006,256.773,55.967000000000006H58.22500000000002C56.32600000000002,55.967000000000006,54.78000000000002,54.48800000000001,54.78000000000002,52.668000000000006V41.239000000000004ZM235.92200000000003,301H79.07400000000001C77.019,266.753,67.59500000000001,109.326,65.56400000000001,69.96700000000001H249.43099999999998C247.39999999999998,109.32600000000002,237.97699999999998,266.75300000000004,235.92199999999997,301Z"/>
    <path fill="#333333" d="M157.5,95.125C153.634,95.125,150.5,98.259,150.5,102.125V278.23400000000004C150.5,282.1,153.634,285.23400000000004,157.5,285.23400000000004C161.366,285.23400000000004,164.5,282.1,164.5,278.23400000000004V102.12500000000003C164.5,98.25900000000003,161.366,95.12500000000003,157.5,95.12500000000003Z"/>
    <path fill="#333333" d="M110.2,102.04C109.998,98.18,106.693,95.203,102.845,95.415C98.985,95.616,96.018,98.909,96.22,102.77000000000001L105.402,278.59900000000005C105.597,282.33500000000004,108.687,285.23400000000004,112.386,285.23400000000004C112.509,285.23400000000004,112.633,285.23100000000005,112.75699999999999,285.22400000000005C116.61699999999999,285.023,119.58399999999999,281.73,119.38199999999999,277.869L110.19999999999999,102.04000000000002Z"/>
    <path fill="#333333" d="M212.155,95.415C208.256,95.19200000000001,205.002,98.179,204.8,102.04L195.616,277.869C195.41400000000002,281.73,198.381,285.023,202.241,285.22400000000005C202.366,285.23100000000005,202.489,285.23400000000004,202.61200000000002,285.23400000000004C206.31000000000003,285.23400000000004,209.401,282.336,209.59600000000003,278.59900000000005L218.78000000000003,102.77000000000004C218.98200000000003,98.90900000000003,216.01600000000002,95.61600000000004,212.15500000000003,95.41500000000003Z"/>
</svg>
