<svg xmlns="http://www.w3.org/2000/svg" width="384.504" height="384" viewBox="0 0 384.504 384">
<path fill="#666666" d="M 181.254 384 C 172.741 382.79 164.104 382.142 155.736 380.28 C 82.82 364.059 33.013 320.849 9.859 249.89 C -9.919 189.275 0.548 132.046 36.875 79.621 C 37.365 78.914 37.82 78.182 38.565 77.04 A 29.913 29.913 0 0 0 35.549 76.701 C 28.177 76.676 20.803 76.739 13.431 76.669 C 5.787 76.6 0.445 71.55 0.515 64.61 C 0.583 57.792 5.842 52.751 13.282 52.716 Q 38.96 52.592 64.64 52.725 C 72.223 52.772 77.111 57.677 77.148 65.192 Q 77.277 91.058 77.148 116.925 C 77.115 124.145 72.168 129.259 65.418 129.389 S 53.38 124.213 53.211 116.911 C 53.079 111.175 53.185 105.432 53.185 98.675 C 51.997 100.195 51.3 100.936 50.772 101.781 C 29.5 135.867 20.163 172.969 26.016 212.754 C 36.147 281.622 74.87 327.84 140.227 351.563 C 156.172 357.351 172.889 359.679 189.862 359.993 A 25.291 25.291 0 0 1 195.785 360.567 A 11.654 11.654 0 0 1 204.426 370.78 C 204.846 375.872 202.692 379.728 198.395 382.412 C 197.464 382.993 196.469 383.473 195.504 384 Z"/>
<path fill="#666666" d="M 384.5 322.5 C 381.316 329.36 375.857 331.574 368.474 331.415 C 352.982 331.079 337.474 331.323 321.979 331.309 C 312.307 331.299 307.832 326.789 307.827 317.04 C 307.819 300.166 307.771 283.292 307.879 266.419 A 11.867 11.867 0 0 1 330.679 261.906 A 19.844 19.844 0 0 1 331.774 268.481 C 331.925 273.781 331.823 279.089 331.823 284.394 L 332.95 284.755 C 336.527 278.27 340.425 271.939 343.634 265.277 A 167.744 167.744 0 0 0 223.047 26.955 C 214.005 25.26 204.719 24.664 195.513 24.116 C 187.069 23.616 182.35 20.965 180.813 14.687 C 179.348 8.724 182.137 4.012 189.5 0 H 204.5 A 20.458 20.458 0 0 0 207.381 0.628 C 232.981 2.538 257.342 9.138 279.965 21.187 Q 363.758 65.815 381.555 159.305 C 382.898 166.385 383.536 173.598 384.5 180.75 V 203.25 A 34.738 34.738 0 0 0 383.848 206.841 A 190.911 190.911 0 0 1 349.061 303.1 C 348.233 304.28 347.409 305.463 346.118 307.311 C 354.357 307.311 361.806 307.611 369.218 307.226 S 381.744 309.552 384.503 316.498 Z"/>
<polygon fill="none" stroke="#666666" points="272.508 165.25 258.488 249.532 178.488 279.532 112.508 225.25 126.527 140.968 206.527 110.968 272.508 165.25" stroke-miterlimit="10" stroke-width="21"/>
</svg>