<?xml version="1.0" encoding="utf-8"?>
<!-- Svg Vector Icons : http://www.onlinewebfonts.com/icon -->
<!DOCTYPE svg PUBLIC "-//W3C//DTD SVG 1.1//EN" "http://www.w3.org/Graphics/SVG/1.1/DTD/svg11.dtd">
<svg version="1.1" xmlns="http://www.w3.org/2000/svg" xmlns:xlink="http://www.w3.org/1999/xlink" x="0px" y="0px" viewBox="0 0 1000 1000"  xml:space="preserve">
<path d="M 896.48 26.4 C 891.9 27.79 884.15 31.37 879.57 34.16 C 874.8 36.95 795.03 115.32 702.13 208.22 L 533.24 377.3 L 524.69 370.74 C 513.35 362.19 503.8 359 488.88 359 C 475.35 359 470.98 360.99 439.35 379.69 C 375.5 417.29 287.57 438.17 208.8 434.59 C 157.08 432.2 115.11 424.45 61.4 407.34 C 15.84 392.82 13.65 394.21 10.87 437.97 C 1.92 573.44 62.39 717.66 175.98 831.04 C 261.91 916.97 360.78 969.49 447.71 975.66 C 471.18 977.45 498.63 973.47 505 967.7 C 508.38 964.72 523.9 922.94 564.48 808.36 C 594.52 723.02 628.14 627.74 639.08 596.7 C 656.78 546.77 659.17 538.42 659.17 526.88 C 659.17 511.36 653.4 497.84 642.26 487.1 L 635.3 480.34 L 806.18 309.07 C 989.59 125.66 985.21 130.44 989.19 105.97 C 993.96 74.94 977.65 43.51 949.8 30.18 C 936.26 23.81 910.2 21.82 896.48 26.4 Z M 928.7 59.62 C 939.04 62.6 950.38 74.14 953.76 85.08 C 956.74 95.03 954.16 108.35 947.4 116.91 C 945.21 119.7 868.03 196.68 776.13 287.98 L 609.03 453.88 L 583.37 428.22 L 557.71 402.56 L 728.19 232.28 C 877.38 83.29 899.86 61.6 906.82 59.82 C 917.56 57.03 919.55 57.03 928.7 59.62 Z M 500.02 396.99 C 508.77 402.96 619.57 513.76 622.76 519.72 C 624.55 523.1 625.15 527.48 624.35 530.66 C 621.96 540.21 588.94 633.31 587.15 635.29 C 586.15 636.48 547.57 599.28 488.09 539.81 C 434.58 486.3 391.41 441.94 392.21 441.34 C 393.01 440.74 398.97 437.96 405.54 435.37 C 422.65 428.61 454.08 412.89 470.79 402.55 C 486.1 392.82 492.46 391.82 500.02 396.99 Z M 113.51 458.06 C 187.11 473.58 264.89 473.78 332.52 458.46 L 352.61 454.08 L 463.21 564.68 L 573.81 675.28 L 527.86 805.57 C 502.4 876.98 480.72 936.86 479.52 938.45 C 477.73 940.64 472.16 941.04 452.27 940.04 C 438.54 939.44 423.82 937.85 419.45 936.66 C 415.07 935.67 408.11 933.68 403.93 932.48 L 396.37 930.49 L 402.14 923.13 C 430.39 887.32 468.18 812.33 468.98 791.04 C 469.18 780.9 462.22 773.54 452.27 773.54 C 441.33 773.54 437.35 777.72 431.38 795.82 C 420.64 828.64 389.41 884.34 367.13 910.6 L 361.36 917.56 L 350.62 912.98 C 338.68 907.81 302.88 887.72 289.55 878.57 L 281.19 872.8 L 303.27 851.51 C 337.68 818.49 372.69 772.34 372.69 760.01 C 372.69 752.85 362.35 743.7 354.39 743.7 C 345.84 743.9 343.45 745.89 332.71 762.6 C 319.98 782.09 295.91 810.34 275.62 829.44 C 251.55 851.92 251.95 851.72 238.02 839.98 C 231.65 834.61 215.34 819.49 201.82 806.16 L 177.15 782.09 L 198.43 771.95 C 224.69 759.42 251.14 743.5 260.3 734.95 C 269.05 726.59 269.85 716.25 262.29 708.89 C 254.33 700.93 247.37 702.33 225.89 716.05 C 204.6 729.97 159.25 752.25 154.48 751.26 C 150.5 750.46 128.22 719.63 112.31 692.98 C 95.2 664.14 94.21 666.92 121.46 665.53 C 161.84 663.54 207.79 653.99 215.75 646.03 C 220.72 641.06 220.72 628.33 215.75 622.16 C 210.98 616.19 203.22 616.39 172.78 623.16 C 154.08 627.34 141.55 628.73 114.89 629.73 L 80.87 630.92 L 74.7 615.2 C 67.34 595.71 59.18 570.05 57.19 559.9 C 56 552.54 56 552.14 60.57 553.34 C 96.18 562.09 198.62 558.51 219.51 547.77 C 231.05 541.8 231.64 526.29 220.9 518.13 C 215.73 514.35 215.53 514.35 195.24 518.13 C 169.38 522.9 88.42 523.3 64.35 518.73 C 49.83 515.95 49.63 515.75 48.04 508.98 C 46.08 498.64 43.69 450.5 45.08 444.93 L 46.47 439.96 L 67.95 446.52 C 79.7 450.11 100.19 455.28 113.51 458.06 Z"/>
</svg>