<svg xmlns="http://www.w3.org/2000/svg" width="232.573" height="260.346" viewBox="0 0 232.573 260.346">
<path fill="#666666" d="M 56.306 138 V 133.243 Q 56.306 71 56.306 8.757 C 56.306 1.668 57.987 0.004 65.206 0.003 Q 116.2 -0.006 167.2 0 C 174.841 0 176.305 1.508 176.305 9.306 Q 176.305 71.173 176.305 133.042 V 137.789 C 177.916 137.868 179.241 137.989 180.566 137.989 Q 202.125 138.01 223.686 138.004 A 22.464 22.464 0 0 1 227.423 138.171 C 232.238 138.993 234.135 143.989 231.123 147.861 A 27.287 27.287 0 0 1 228.799 150.302 Q 175.776 203.333 122.746 256.358 C 117.464 261.639 115.199 261.658 110.016 256.478 Q 56.718 203.194 3.427 149.9 C 3.162 149.635 2.904 149.361 2.627 149.107 C 0.434 147.082 -0.74 144.729 0.507 141.752 S 4.258 138 7.225 138 Q 29.349 138.023 51.471 138 C 52.942 138 54.414 138 56.306 138 Z"/>
</svg>