<svg width="24px" height="24px" viewBox="0 0 24 24" xmlns="http://www.w3.org/2000/svg">
<path d="M 2.344 15.271 L 4.344 18.731 A 1 1 0 0 0 5.71 19.096 L 7.106 18.29 C 7.686 18.747 8.327 19.122 9.001 19.402 V 21 A 1 1 0 0 0 10.001 22 H 14.001 A 1 1 0 0 0 15.001 21 V 19.402 A 8.094 8.094 0 0 0 16.896 18.29 L 18.292 19.096 C 18.769 19.371 19.383 19.206 19.658 18.731 L 21.658 15.271 A 1.004 1.004 0 0 0 21.293 13.905 L 19.921 13.112 A 7.683 7.683 0 0 0 19.919 10.888 L 21.291 10.095 C 21.767 9.82 21.932 9.205 21.656 8.729 L 19.656 5.269 A 1 1 0 0 0 18.29 4.904 L 16.894 5.71 A 8.034 8.034 0 0 0 15 4.598 V 3 A 1 1 0 0 0 14 2 H 10 A 1 1 0 0 0 9 3 V 4.598 A 8.094 8.094 0 0 0 7.105 5.71 L 5.71 4.904 A 0.999 0.999 0 0 0 4.344 5.269 L 2.344 8.729 A 1.004 1.004 0 0 0 2.709 10.095 L 4.081 10.888 A 7.683 7.683 0 0 0 4.081 13.112 L 2.709 13.905 C 2.233 14.18 2.068 14.795 2.344 15.271 Z M 12 8 C 14.206 8 16 9.794 16 12 S 14.206 16 12 16 S 8 14.206 8 12 S 9.794 8 12 8 Z"/>
</svg>