<svg width="512px" height="512px" viewBox="0 0 512 512" xmlns="http://www.w3.org/2000/svg"><path fill="#666666" d="M20.91,20.002V52.292L378.70300000000003,391.192L20.91,101.407V160.349L376.85200000000003,410.573L289.96200000000005,393.046L316.87500000000006,423.993L246.37300000000005,427.001L492.0060000000001,491.604L426.5040000000001,242.54999999999998L411.1520000000001,334.90999999999997L383.8520000000001,303.45L400.5350000000001,363.914L161.26,20.002H138.89L281.166,228.937L109.496,42.17L208.471,180.71699999999998L45.194,20.002H20.91ZM453.91,112.188L421.67600000000004,150.67000000000002L476.86600000000004,358.88L492.15200000000004,141.08599999999998L453.91,112.18599999999998ZM222.03000000000003,440.078L197.05500000000004,463.548L218.72900000000004,491.168L367.95400000000006,478.38800000000003L222.02800000000008,440.07800000000003Z"/></svg>