<?xml version="1.0" encoding="utf-8"?>
<!-- Generator: Adobe Illustrator 23.0.1, SVG Export Plug-In . SVG Version: 6.00 Build 0)  -->
<svg version="1.1" id="Capa_1" xmlns="http://www.w3.org/2000/svg" xmlns:xlink="http://www.w3.org/1999/xlink" x="0px" y="0px"
	 viewBox="0 0 181.8 181.8" style="enable-background:new 0 0 181.8 181.8;" xml:space="preserve">
<path fill="#FFDF9F" stroke="#C6AC7D" stroke-miterlimit="10" d="M146.7,90.6v86c0,2.8-2.2,5-5,5H40.1c-2.8,0-5-2.2-5-5v-86c5-0.2,9.7-1.4,14-3.3v78.1c0,2.8,2.2,5,5,5
	s5-2.2,5-5v-84c0-0.2,0-0.4-0.1-0.6c6.4-5.7,10.8-13.5,12.2-22.4h2.3v106.9c0,2.8,2.2,5,5,5c2.8,0,5-2.2,5-5V58.4h14.5v106.9
	c0,2.8,2.2,5,5,5c2.8,0,5-2.2,5-5V58.4h2.3c1.4,8.8,5.9,16.6,12.2,22.4c0,0.2-0.1,0.4-0.1,0.6v84c0,2.8,2.2,5,5,5c2.8,0,5-2.2,5-5
	V87.3C137,89.2,141.7,90.4,146.7,90.6z M148.3,46.8c-3,0-5.5,2.5-5.5,5.5c0,3,2.5,5.5,5.5,5.5s5.5-2.5,5.5-5.5
	C153.8,49.2,151.4,46.8,148.3,46.8z M33.1,46.8c-3,0-5.5,2.5-5.5,5.5c0,3,2.5,5.5,5.5,5.5s5.5-2.5,5.5-5.5
	C38.6,49.2,36.2,46.8,33.1,46.8z M176.8,52.3c0,2-0.2,3.9-0.6,5.7c-2.6,12.9-14.1,22.7-27.8,22.7c-0.6,0-1.1,0-1.7-0.1l0,0
	C131.8,79.7,120,67.4,120,52.3c0-1.3,0.1-2.6,0.3-3.8H61.6c0.2,1.3,0.3,2.5,0.3,3.8c0,15.1-11.8,27.5-26.7,28.4l0,0
	c-0.6,0-1.1,0.1-1.7,0.1C19.7,80.7,8.2,70.9,5.6,58C5.2,56.1,5,54.2,5,52.3c0-2,0.2-3.9,0.6-5.7c2.6-12.9,14.1-22.7,27.8-22.7h115
	c13.7,0,25.2,9.7,27.8,22.7C176.6,48.4,176.8,50.3,176.8,52.3z M48.6,52.3c0-8.5-7-15.5-15.5-15.5s-15.5,7-15.5,15.5
	s7,15.5,15.5,15.5S48.6,60.8,48.6,52.3z M163.8,52.3c0-8.5-7-15.5-15.5-15.5c-8.5,0-15.5,7-15.5,15.5s7,15.5,15.5,15.5
	C156.9,67.8,163.8,60.8,163.8,52.3z M176.8,0.1H5c-2.8,0-5,2.2-5,5v7c0,2.8,2.2,5,5,5h171.8c2.8,0,5-2.2,5-5v-7
	C181.8,2.4,179.6,0.1,176.8,0.1z"/>
</svg>
