<?xml version="1.0" encoding="utf-8"?>
<!-- Generator: Adobe Illustrator 23.0.1, SVG Export Plug-In . SVG Version: 6.00 Build 0)  -->
<svg version="1.1" id="Capa_1" xmlns="http://www.w3.org/2000/svg" xmlns:xlink="http://www.w3.org/1999/xlink" x="0px" y="0px"
	 viewBox="0 0 200 140.4" style="enable-background:new 0 0 189.3 140.4;" xml:space="preserve">
<g>
	<g>
		<g>
			<linearGradient id="SVGID_1_" gradientUnits="userSpaceOnUse" x1="0" y1="70.2102" x2="189.3298" y2="70.2102">
				<stop  offset="0" style="stop-color:#B8B8B8"/>
				<stop  offset="7.285234e-02" style="stop-color:#9CA194"/>
				<stop  offset="0.1982" style="stop-color:#6F7D5B"/>
				<stop  offset="0.3058" style="stop-color:#4F6332"/>
				<stop  offset="0.3903" style="stop-color:#3B5318"/>
				<stop  offset="0.4412" style="stop-color:#344D0F"/>
			</linearGradient>
			<path fill="url(#SVGID_1_)" d="M122.4,16.3c0,2.7,0,4.9,0,7.5c-5.5,1-10.9,2.5-16.4,2.8C84.7,28,63.4,28.9,42,30.1c-2.3,0.1-4.6,0.4-6.9,1
				c19.4,1,38.9,2,58.3,3c-3.1,3.5-5.7,6.8-11,7c-12.2,0.3-24.4,1.4-36.6,2.7c11.9,0.7,23.8,1.5,36,2.2c-1.8,4.3-4,6.4-8.7,6.6
				c-19.9,0.9-39.9,2.3-59.8,4.1c20,1.2,40.1,2.4,60.1,3.6c-0.5,5.8-0.7,5.9-5.8,6.2c-13.6,0.8-27.2,1.6-40.8,3
				c14.5,0.9,29,1.8,43.4,2.8c0.7,6.5,0.5,6.6-5.2,6.9C43.4,80.5,21.7,81.9,0,83.7c2.3,0.2,4.5,0.4,6.8,0.6
				c19.2,1.1,38.4,2.2,57.6,3.5c6.3,0.4,6-1.2,6.9,7.5C57.5,96.1,43.7,97,30,97.9c0,0.2,0,0.4,0,0.6c8.4,0.5,16.9,1.1,25.3,1.6
				c4.5,0.3,9,0.6,13.5,0.8c4.9,0.3,4.9,0.2,6.2,5.9c-20,1.3-40,2.6-60,3.9c0,0.2,0,0.4,0,0.6c7.8,0.5,15.7,1,23.5,1.5
				c12.6,0.8,25.2,1.8,37.8,2.2c3.9,0.1,5.8,1.9,7.7,5.5c-13,0.9-25.6,1.7-38.2,2.5c0,0.1,0,0.3,0,0.4c7.4,0.5,14.8,1,22.2,1.4
				c6.5,0.4,13,0.6,19.4,1.2c2.1,0.2,4.1,1.5,6.1,2.3c-0.1,0.4-0.2,0.9-0.3,1.3c-19.3,1-38.5,2-57.8,3.1c0,0.1,0,0.3,0,0.4
				c7.5,0.5,14.9,1,22.4,1.4c15.7,0.9,31.4,1.6,47.1,2.6c2.5,0.1,5,0.5,7.3,1.2c40.3,11.1,78.5-21,74.1-62.7
				c-0.9-8.5-2.7-17.5-13.5-31.8c0.4-0.5,0.8-1.1,1.3-1.7c0.5-0.5,1.1-1,1.9-1.7c2.4,2.8,4.2,1.5,6.1-0.6c1.9-2.2,4-4.1,6.1-6.1
				c1.6-1.5,1.7-2.8,0.1-4.4c-2.4-2.3-4.8-4.7-7.1-7.2c-1.6-1.7-2.9-1.4-4.4,0.2c-2,2.2-4.2,4.3-6.3,6.4c-1.8,1.7-3.3,3.4-0.1,5.6
				c-1.2,1.3-2.2,2.4-3.4,3.6c-9.4-8-20.2-12.6-32.3-14c0-2.6,0-4.9,0-7.1c0.4-0.2,0.5-0.2,0.6-0.3c7.8-0.2,7.8,0.8,7.7-8.7
				c0-0.2,0-0.5,0-0.7c0-6.9,0-7-6.8-7c-5.7,0-11.5,0-17.2,0c-4,0-4.7,0.8-4.8,4.9c0,2.1,0,4.2,0,6.4c0,4.4,0.6,5,5,5
				C120,16.3,120.9,16.3,122.4,16.3z M169.6,109.4c-4.8,4.8-9.1,9.1-13.8,13.8c-1.3-2.1-2.2-3.5-3-4.8c-1-1.6-2.4-2.7-4.3-1.6
				c-1.9,1.1-1.8,2.8-0.8,4.5c0.8,1.4,1.5,2.8,2.4,4.4c-6.1,3-11.9,4.9-18.8,4.9c0-1.9,0-3.4,0-4.8c0-1.9-0.5-3.6-2.8-3.6
				c-2.3,0-2.9,1.6-3,3.5c-0.1,1.7-0.2,3.3-0.4,5.1c-6.7-0.4-12.6-2.1-18.2-5.2c1-1.8,2.1-3.1,2.4-4.6c0.2-1.3-0.5-2.8-0.8-4.2
				c-1.4,0.4-3.1,0.4-4.1,1.3c-1.2,1.1-1.9,2.9-3.3,5.2c-4.7-4.7-9.1-9.1-13.9-13.9c2.4-1.4,4.1-2.1,5.2-3.3c0.9-1,0.9-2.7,1.4-4.1
				c-1.4-0.3-2.9-1.1-4.2-0.8c-1.6,0.3-3,1.5-4.8,2.5c-2.9-6-4.7-11.9-4.9-18.7c2,0,3.5,0,5,0c2,0,3.6-0.7,3.6-2.9
				c0-2.3-1.5-3-3.5-3c-1.6,0-3.2,0-4.7,0c-0.5-5.6,2-14.9,5-18.6c1.5,0.8,2.9,2.1,4.5,2.4c1.3,0.3,2.8-0.6,4.2-1
				c-0.4-1.3-0.4-2.9-1.3-3.8c-1.2-1.3-3-2.1-5.4-3.6c4.8-4.7,9.2-8.9,13.9-13.6c1.4,2.3,2.1,4,3.3,5.2c0.9,0.8,2.5,0.9,3.8,1.3
				c0.4-1.4,1.3-2.8,1.1-4.1c-0.3-1.7-1.4-3.3-2.2-4.9c5.6-3.3,12.8-5.1,18.2-4.5c0,1.6-0.4,3.5,0.1,5c0.4,1.2,2,2,3,3
				c0.9-1,2.3-1.9,2.6-3c0.4-1.6,0.1-3.4,0.1-5.5c7,0.3,12.9,1.8,18.7,5c-0.9,1.7-2.1,3.1-2.4,4.6c-0.3,1.3,0.4,2.8,0.7,4.2
				c1.4-0.4,3.1-0.4,4.1-1.2c1.3-1.1,1.9-2.8,3-4.6c5.5,3.7,9.9,8,13.5,13.6c-1.7,1-3,1.8-4.4,2.7c-1.7,1.1-2.6,2.5-1.4,4.4
				c1.2,1.9,2.9,1.7,4.6,0.6c1.3-0.8,2.7-1.6,4.3-2.5c2.6,6.2,5.1,11.9,4.7,18.8c-1.9,0-3.3,0-4.8,0c-2,0-3.8,0.8-3.3,3
				c0.2,1.1,1.9,2.3,3.2,2.7c1.4,0.5,3.1,0.1,5.1,0.1c-0.4,6.9-1.8,12.9-5,18.7c-1.8-1-3.3-2.2-4.9-2.6c-1.2-0.3-2.6,0.5-3.9,0.8
				c0.3,1.4,0.3,3.2,1.1,4.1C165.3,107.2,167.1,107.9,169.6,109.4z"/>
			<path fill="#344D0F" d="M145.3,51.6c-0.8,0.9-1.6,1.8-2.2,2.8c-3.8,5.6-7.6,11.1-11.4,16.7c-1.7,2.4-2.9,5.1-6.2,6
				c-1.1,0.3-2.6,2.3-2.5,3.4c0.3,3.8-2,6.3-3.8,9.1c-0.3,0.4-0.3,0.9-0.6,1.8c2.1,1.3,4.2,2.5,6.6,4c0.9-1.6,1.5-2.9,2.4-4.1
				c1.2-1.5,2.7-2.7,3.8-4.3c1.1-1.6,2.1-3.4,2.8-5.3c0.7-2,0.6-4.4,1.5-6.3c3.2-6.6,6.6-13.2,9.9-19.7c0.5-1.1,0.7-2.3,1.1-3.4
				C146.2,52,145.8,51.8,145.3,51.6z"/>
		</g>
	</g>
</g>
</svg>
