<svg width="38.25px" height="22.14px" viewBox="0 0 38.25 22.14" xmlns="http://www.w3.org/2000/svg">
<path d="M 12.6875 0 L 12.3125 0.125 L 2.3125 4.125 L 0 5.0625 L 2.3125 6 L 6.2188 7.5625 L 2.3125 9.125 L 0 10.0625 L 2.3125 11 L 6.2188 12.5625 L 2.3125 14.125 L 0 15.0625 L 2.3125 16 L 12.3125 20 L 12.6875 20.125 L 13.0625 20 L 23.0625 16 L 25.375 15.0625 L 23.0625 14.125 L 19.1563 12.5625 L 23.0625 11 L 25.375 10.0625 L 23.0625 9.125 L 19.1563 7.5625 L 23.0625 6 L 25.375 5.0625 L 23.0625 4.125 L 13.0625 0.125 Z M 12.6875 2.1563 L 19.9688 5.0625 L 12.6875 7.9688 L 5.4063 5.0625 Z M 8.9375 8.6563 L 12.3125 10 L 12.6875 10.125 L 13.0625 10 L 16.4375 8.6563 L 19.9688 10.0625 L 12.6875 12.9688 L 5.4063 10.0625 Z M 8.9375 13.6563 L 12.3125 15 L 12.6875 15.125 L 13.0625 15 L 16.4375 13.6563 L 19.9688 15.0625 L 12.6875 17.9688 L 5.4063 15.0625 Z"/>
</svg>