<?xml version="1.0"?>
<svg xmlns="http://www.w3.org/2000/svg" width="480" height="500" viewBox="-5 103 240 250">
  <path fill="#666666" d="M137.5312 335.1094v-17.1563q9.2813-16.1719 25.5938-30.7969l9.8438-8.7187q10.8281-9.7031 16.3124-18.7031 5.4844-9 5.4844-17.4375 0-10.4063-5.6953-15.6797-5.6953-5.2734-17.0859-5.2734-13.5 0-31.3594 9.7031v-16.4531q17.7188-7.4532 35.4375-7.4532 18.2813 0 29.5313 9.4922t11.25 24.961q0 9.8437-6.4688 20.1093-6.4688 10.2657-19.2656 20.8125l-7.4532 6.0469q-18.7031 15.3281-21.9374 29.3906h54.7031v17.1563h-78.8907Zm-123.6093 5.2031 153-218.5313h18.9843L33.0469 340.3125h-19.125ZM38.25 251.8594V145.125l-27.8438 6.8906v-16.0312L59.0625 123.75v128.1094H38.25Z"/>
</svg>