<?xml version="1.0" encoding="iso-8859-1"?>
<!-- Generator: Adobe Illustrator 16.0.0, SVG Export Plug-In . SVG Version: 6.00 Build 0)  -->
<!DOCTYPE svg PUBLIC "-//W3C//DTD SVG 1.1//EN" "http://www.w3.org/Graphics/SVG/1.1/DTD/svg11.dtd">
<svg version="1.1" xmlns="http://www.w3.org/2000/svg" xmlns:xlink="http://www.w3.org/1999/xlink" x="0px" y="0px"
	 width="470.083px" height="470.083px" viewBox="0 0 470.083 470.083" xml:space="preserve">
	<path fill="#666666" d="M 434.961 270.163 C 434.961 380.404 345.277 470.083 235.038 470.083 C 124.803 470.083 35.121 380.404 35.121 270.163 C 35.121 233.723 45.036 198.034 63.779 166.985 L 115.942 198.472 C 102.929 220.032 96.052 244.825 96.046 270.169 C 96.046 346.809 158.396 409.154 235.031 409.154 C 311.673 409.154 374.02 346.808 374.02 270.169 C 374.02 196.305 316.059 135.894 243.261 131.603 H 213.453 L 238.553 195.144 C 239.396 197.272 238.713 199.702 236.884 201.076 C 235.057 202.456 232.533 202.45 230.716 201.05 L 105.91 105.085 C 104.66 104.119 103.921 102.641 103.921 101.048 C 103.921 99.464 104.66 97.974 105.91 97.011 L 230.724 1.052 C 231.64 0.346 232.727 0 233.824 0 C 234.906 0 235.978 0.34 236.892 1.022 C 238.721 2.396 239.404 4.829 238.561 6.96 L 213.461 70.494 L 235.047 70.24 C 242.767 70.24 268.372 72.838 272.592 73.831 C 364.931 91.46 434.961 172.766 434.961 270.163 Z"/>
</svg>
