<?xml version="1.0" encoding="iso-8859-1"?>
<svg version="1.1" id="Capa_1" xmlns="http://www.w3.org/2000/svg" xmlns:xlink="http://www.w3.org/1999/xlink" x="0px" y="0px"
	 viewBox="0 0 181.791 181.791" style="enable-background:new 0 0 181.791 181.791;" xml:space="preserve">
<path fill="#666666" d="M146.69,90.624V176.667C146.69,179.429,144.451,181.667,141.69,181.667H40.101C37.339999999999996,181.667,35.101,179.429,35.101,176.667V90.624C40.086999999999996,90.407,44.826,89.228,49.146,87.28V165.374C49.146,168.136,51.385,170.374,54.146,170.374C56.907000000000004,170.374,59.146,168.136,59.146,165.374V81.374C59.146,81.172,59.11,80.979,59.086,80.783C65.444,75.054,69.89099999999999,67.243,71.32,58.428H73.645V165.374C73.645,168.136,75.884,170.374,78.645,170.374C81.40599999999999,170.374,83.645,168.136,83.645,165.374V58.428H98.145V165.374C98.145,168.136,100.384,170.374,103.145,170.374C105.90599999999999,170.374,108.145,168.136,108.145,165.374V58.428H110.47C111.9,67.24199999999999,116.346,75.054,122.704,80.782C122.681,80.978,122.645,81.17099999999999,122.645,81.37299999999999V165.373C122.645,168.135,124.884,170.373,127.645,170.373C130.406,170.373,132.64499999999998,168.135,132.64499999999998,165.373V87.28C136.966,89.228,141.704,90.407,146.69,90.624ZM148.337,46.754C145.304,46.754,142.837,49.221999999999994,142.837,52.254C142.837,55.286,145.304,57.754,148.337,57.754S153.837,55.286,153.837,52.254C153.837,49.222,151.37,46.754,148.337,46.754ZM33.127,46.754C30.094,46.754,27.627000000000002,49.221999999999994,27.627000000000002,52.254C27.627000000000002,55.286,30.094,57.754,33.127,57.754S38.627,55.286,38.627,52.254C38.627,49.222,36.16,46.754,33.127,46.754ZM176.791,52.255C176.791,54.216,176.59199999999998,56.131,176.214,57.980000000000004C173.565,70.92500000000001,162.111,80.66300000000001,148.383,80.66300000000001C147.81400000000002,80.66300000000001,147.251,80.64200000000001,146.69,80.608V80.608C131.79,79.732,119.975,67.375,119.975,52.254000000000005C119.975,50.955000000000005,120.07,49.679,120.23899999999999,48.42700000000001H61.552C61.721,49.67900000000001,61.816,50.955000000000005,61.816,52.254000000000005C61.816,67.375,50.001000000000005,79.73100000000001,35.101,80.608V80.608C34.541,80.641,33.977,80.66300000000001,33.408,80.66300000000001C19.68,80.66300000000001,8.226000000000003,70.92600000000002,5.577000000000002,57.98000000000001C5.199,56.131,5,54.216,5,52.255C5,50.294000000000004,5.199,48.379000000000005,5.577,46.53C8.226,33.584,19.68,23.847,33.408,23.847H148.38299999999998C162.111,23.847,173.56499999999997,33.584,176.21399999999997,46.53C176.592,48.379,176.791,50.294,176.791,52.255ZM48.627,52.254C48.627,43.706999999999994,41.674,36.754,33.127,36.754S17.627000000000002,43.707,17.627000000000002,52.254C17.627000000000002,60.801,24.580000000000002,67.75399999999999,33.127,67.75399999999999S48.627,60.801,48.627,52.254ZM163.837,52.254C163.837,43.706999999999994,156.884,36.754,148.337,36.754C139.79,36.754,132.837,43.707,132.837,52.254C132.837,60.801,139.79,67.75399999999999,148.337,67.75399999999999C156.884,67.754,163.837,60.801,163.837,52.254ZM176.791,0.124H5C2.239,0.124,0,2.362,0,5.124V12.123999999999999C0,14.886,2.239,17.124,5,17.124H176.791C179.552,17.124,181.791,14.886,181.791,12.123999999999999V5.123999999999999C181.791,2.362,179.552,0.124,176.791,0.124Z"/>
</svg>
