<?xml version="1.0" encoding="iso-8859-1"?>
<!-- Generator: Adobe Illustrator 19.0.0, SVG Export Plug-In . SVG Version: 6.00 Build 0)  -->
<svg version="1.1" id="Capa_1" xmlns="http://www.w3.org/2000/svg" xmlns:xlink="http://www.w3.org/1999/xlink" x="0px" y="0px"
	 viewBox="0 0 60.083 60.083" style="enable-background:new 0 0 60.083 60.083;" xml:space="preserve">
<path fill="#666666" d="M60.049,10.871C60.049,10.869,60.048,10.866,60.048,10.864C60.025,10.739,59.982,10.625,59.916000000000004,10.521C59.915000000000006,10.520000000000001,59.915000000000006,10.518,59.915000000000006,10.517000000000001C59.91400000000001,10.515,59.912000000000006,10.514000000000001,59.91100000000001,10.512C59.848000000000006,10.414,59.772000000000006,10.33,59.67900000000001,10.259C59.66000000000001,10.244,59.64000000000001,10.233,59.62000000000001,10.219000000000001C59.54500000000001,10.170000000000002,59.46800000000001,10.129000000000001,59.381000000000014,10.102C59.326000000000015,10.083,59.27000000000002,10.077,59.213000000000015,10.068C59.16900000000002,10.062,59.13000000000002,10.042,59.08400000000002,10.042H59.08C59.041,10.041,59.013999999999996,10.045,58.986,10.048C58.977,10.049,58.968999999999994,10.048,58.959999999999994,10.049C58.95099999999999,10.049999999999999,58.940999999999995,10.049,58.93099999999999,10.051C58.90399999999999,10.055,58.87699999999999,10.059,58.85099999999999,10.065L0.798,22.062C0.38500000000000006,22.148,0.06900000000000006,22.483,0.010000000000000009,22.901S0.16,23.729,0.533,23.926L17.165000000000003,32.699L20.082,48.885999999999996C20.080000000000002,48.897999999999996,20.083000000000002,48.910999999999994,20.082,48.922999999999995C20.072,49.00299999999999,20.071,49.080999999999996,20.081,49.16C20.086,49.199999999999996,20.091,49.238,20.101,49.276999999999994C20.124,49.37199999999999,20.160999999999998,49.46099999999999,20.211,49.544999999999995C20.221,49.56099999999999,20.221,49.57999999999999,20.232,49.596C20.235,49.601,20.24,49.605,20.244,49.608999999999995C20.257,49.62799999999999,20.275,49.642999999999994,20.29,49.66199999999999C20.337,49.71999999999999,20.386,49.77299999999999,20.442,49.81799999999999C20.451,49.82499999999999,20.457,49.83599999999999,20.467,49.84299999999999C20.482,49.85399999999999,20.499,49.85699999999999,20.514,49.86699999999999C20.575,49.90699999999999,20.637999999999998,49.93999999999999,20.705,49.96599999999999C20.732,49.975999999999985,20.756999999999998,49.987999999999985,20.784999999999997,49.99599999999999C20.874999999999996,50.02199999999999,20.967999999999996,50.039999999999985,21.061999999999998,50.039999999999985C21.063,50.039999999999985,21.063999999999997,50.039999999999985,21.064999999999998,50.039999999999985H21.064999999999998C21.064999999999998,50.039999999999985,21.064999999999998,50.039999999999985,21.064999999999998,50.039999999999985C21.069,50.039999999999985,21.072999999999997,50.03799999999998,21.076999999999998,50.03799999999998C21.093999999999998,50.03899999999998,21.110999999999997,50.039999999999985,21.127999999999997,50.039999999999985C21.404999999999998,50.039999999999985,21.654999999999998,49.91599999999998,21.839999999999996,49.72499999999999L32.919,42.338999999999984L44.519,49.878999999999984C44.683,49.984999999999985,44.873,50.039999999999985,45.064,50.039999999999985C45.169,50.039999999999985,45.276,50.02299999999998,45.379,49.98899999999998C45.666999999999994,49.89299999999999,45.897,49.670999999999985,46.001999999999995,49.384999999999984L59.937999999999995,11.559999999999981C60.031,11.408999999999981,60.083999999999996,11.22999999999998,60.083999999999996,11.03899999999998C60.083,10.981,60.059,10.928,60.049,10.871ZM48.464,17.594L24.471,35.236C24.432,35.265,24.401,35.300999999999995,24.367,35.334999999999994C24.354,35.346999999999994,24.341,35.35699999999999,24.330000000000002,35.36999999999999C24.309,35.392999999999994,24.290000000000003,35.41599999999999,24.271,35.44099999999999C24.253,35.46499999999999,24.239,35.48999999999999,24.223000000000003,35.514999999999986C24.186000000000003,35.57499999999999,24.155,35.636999999999986,24.131000000000004,35.70299999999999C24.126000000000005,35.71599999999999,24.118000000000002,35.72599999999999,24.114000000000004,35.73899999999999C24.113000000000003,35.74299999999999,24.109000000000005,35.74499999999999,24.108000000000004,35.74899999999999L21.358000000000004,44.685999999999986L19.179000000000006,32.594999999999985L48.464,17.594ZM22.908,46.61L25.634,37.606L29.878,40.365L31.092,41.154L26.968,43.903000000000006L22.908,46.61Z"/>
</svg>
