<?xml version="1.0" encoding="iso-8859-1"?>
<!-- Generator: Adobe Illustrator 19.0.0, SVG Export Plug-In . SVG Version: 6.00 Build 0)  -->
<svg version="1.1" id="Capa_1" xmlns="http://www.w3.org/2000/svg" xmlns:xlink="http://www.w3.org/1999/xlink" x="0px" y="0px"
	 viewBox="0 0 60 60" style="enable-background:new 0 0 60 60;" xml:space="preserve">
	<path fill="#666666" d="M34.74,36.53L44.103,23.586C44.39,23.189,44.347,22.641,43.999,22.293C43.651,21.947,43.103,21.903,42.706,22.189L29.76,31.555C28.916,32.169,28.385,33.118,28.304000000000002,34.159S28.6,36.219,29.337000000000003,36.955999999999996C30.01,37.629,30.904,38,31.854,38C32.992,38,34.07,37.451,34.74,36.53Z"/>
	<path fill="#666666" d="M54.534,19.564C54.524,19.543,54.524,19.521,54.513,19.5C54.501,19.48,54.482,19.469,54.469,19.45C53.458,17.716,52.262,16.102999999999998,50.904,14.640999999999998L53.051,12.493999999999998L54.465,13.907999999999998L58.707,9.665999999999997L54.465,5.4229999999999965L50.222,9.665999999999997L51.637,11.079999999999997L49.49,13.226999999999997C48.028,11.868999999999996,46.416000000000004,10.671999999999997,44.681000000000004,9.660999999999998C44.662000000000006,9.647999999999998,44.651,9.628999999999998,44.63100000000001,9.616999999999997C44.61000000000001,9.604999999999997,44.58800000000001,9.605999999999998,44.56700000000001,9.594999999999997C41.474000000000004,7.812999999999997,37.99900000000001,6.625999999999998,34.29500000000001,6.190999999999997V5H35.79500000000001C37.17400000000001,5,38.29500000000001,3.879,38.29500000000001,2.5S37.172,0,35.793,0H26.793C25.413999999999998,0,24.293,1.121,24.293,2.5S25.413999999999998,5,26.793,5H28.293V6.156C27.213,6.271,26.134999999999998,6.447,25.069,6.691C24.531,6.814,24.194,7.351,24.317999999999998,7.888999999999999C24.441,8.427,24.977999999999998,8.763,25.516,8.639999999999999C26.462,8.422999999999998,27.418,8.261999999999999,28.375999999999998,8.155L29.366999999999997,8.08C29.701999999999998,8.055,30.002,8.037,30.291999999999998,8.023H30.291999999999998V10C30.291999999999998,10.553,30.738999999999997,11,31.291999999999998,11S32.292,10.553,32.292,10V8.03C36.053000000000004,8.203,39.597,9.213,42.748000000000005,10.875L41.76200000000001,12.583C41.486000000000004,13.062,41.650000000000006,13.673,42.12800000000001,13.949C42.285000000000004,14.04,42.45700000000001,14.083,42.62700000000001,14.083C42.973000000000006,14.083,43.30900000000001,13.903,43.49400000000001,13.583L44.477000000000004,11.879C47.606,13.863999999999999,50.264,16.522,52.249,19.651L50.546,20.634C50.07,20.91,49.906,21.521,50.183,22C50.369,22.321,50.704,22.5,51.05,22.5C51.22,22.5,51.391999999999996,22.457,51.549,22.366L53.256,21.38C54.941,24.576,55.954,28.177999999999997,56.105000000000004,31.999H54.13C53.577000000000005,31.999,53.13,32.446,53.13,32.998999999999995S53.577000000000005,33.998999999999995,54.13,33.998999999999995H56.105000000000004C55.954,37.81999999999999,54.941,41.422,53.256,44.617999999999995L51.549,43.632C51.071,43.355,50.458999999999996,43.518,50.183,43.998C49.907,44.477,50.071,45.088,50.549,45.364L52.252,46.346999999999994C50.267,49.47599999999999,47.609,52.13399999999999,44.480000000000004,54.11899999999999L43.49700000000001,52.41599999999999C43.220000000000006,51.93599999999999,42.607000000000006,51.77199999999999,42.13100000000001,52.04999999999999C41.65200000000001,52.32599999999999,41.48800000000001,52.93799999999999,41.76500000000001,53.41599999999999L42.751000000000005,55.12299999999999C39.60000000000001,56.78499999999999,36.056000000000004,57.79499999999999,32.295,57.96799999999999V56C32.295,55.447,31.848000000000003,55,31.295,55S30.295,55.447,30.295,56V57.976C28.698,57.921,27.096000000000004,57.721,25.519000000000002,57.359C24.981,57.234,24.444000000000003,57.572,24.321,58.11C24.197000000000003,58.647999999999996,24.534000000000002,59.185,25.072000000000003,59.308C27.068,59.768,29.107,60,31.13,60C31.179,60,31.226,59.997,31.275,59.996C31.282,59.996,31.287,60,31.293,60C31.301,60,31.308,59.995,31.316,59.995C36.123,59.961999999999996,40.632999999999996,58.663999999999994,44.535,56.422C44.565999999999995,56.407999999999994,44.599,56.400999999999996,44.629,56.382999999999996C44.649,56.370999999999995,44.66,56.352,44.678999999999995,56.339C48.717999999999996,53.985,52.092999999999996,50.614,54.452,46.578C54.471,46.551,54.495,46.53,54.512,46.5C54.524,46.479,54.523,46.457,54.533,46.436C56.817,42.476,58.13,37.89,58.13,33S56.817,23.524,54.534,19.564Z"/>
	<path fill="#666666" d="M22.293,13H17.293C16.189,13,15.293,13.896,15.293,15S16.189,17,17.293,17H22.293C23.397,17,24.293,16.104,24.293,15S23.397,13,22.293,13Z"/>
	<path fill="#666666" d="M22.293,20H12.293C11.189,20,10.293,20.896,10.293,22S11.189,24,12.293,24H22.293C23.397,24,24.293,23.104,24.293,22S23.397,20,22.293,20Z"/>
	<path fill="#666666" d="M22.293,27H7.292999999999999C6.188999999999999,27,5.292999999999999,27.896,5.292999999999999,29S6.188999999999999,31,7.292999999999999,31H22.293C23.397,31,24.293,30.104,24.293,29S23.397,27,22.293,27Z"/>
	<path fill="#666666" d="M22.293,34H3.2929999999999993C2.188999999999999,34,1.2929999999999993,34.896,1.2929999999999993,36S2.188999999999999,38,3.2929999999999993,38H22.293C23.397,38,24.293,37.104,24.293,36S23.397,34,22.293,34Z"/>
	<path fill="#666666" d="M22.293,41H9.293C8.189,41,7.292999999999999,41.896,7.292999999999999,43S8.189,45,9.293,45H22.293C23.397,45,24.293,44.104,24.293,43S23.397,41,22.293,41Z"/>
	<path fill="#666666" d="M22.293,48H15.293C14.189,48,13.293,48.896,13.293,50S14.189,52,15.293,52H22.293C23.397,52,24.293,51.104,24.293,50S23.397,48,22.293,48Z"/>
</svg>
