<?xml version="1.0" encoding="utf-8"?>
<!DOCTYPE svg PUBLIC "-//W3C//DTD SVG 1.1//EN" "http://www.w3.org/Graphics/SVG/1.1/DTD/svg11.dtd">
<svg width="40px" height="40px" viewBox="0 0 40 40" xmlns="http://www.w3.org/2000/svg" xmlns:xlink="http://www.w3.org/1999/xlink" version="1.1" baseProfile="full" enable-background="new 0 0 76.00 76.00" xml:space="preserve">
	<path fill="#666666" fill-opacity="1" stroke-linejoin="round" d="M 21 14 L 33.375 14 L 28.375 9 L 33.625 9 L 40.625 16 L 33.625 23 L 28.375 23 L 33.375 18 L 21 18 L 21 14 Z M 2 3.0002 L 37.9998 3.0002 C 39.1044 3.0002 39.9998 3.8956 39.9998 5.0002 L 39.9998 13.4999 L 36.9998 10.4999 L 36.9998 6.0002 L 3 6.0002 L 3 26.0001 L 36.9999 26.0001 L 36.9998 21.5001 L 39.9998 18.5001 L 39.9999 27.0001 C 39.9999 28.1046 39.1044 29.0001 37.9999 29.0001 L 23 29 L 23 33 L 27 33 C 28.1046 33 29 33.8954 29 35 L 29 37 L 11 37 L 11 35 C 11 33.8954 11.8955 33 13 33 L 17 33 L 17 29 L 2 29.0001 C 0.8954 29.0001 0 28.1046 0 27.0001 L 0 5.0002 C 0 3.8956 0.8954 3.0002 2 3.0002 Z"/>
</svg>
