<svg xmlns="http://www.w3.org/2000/svg" viewBox="0 0 77.43 116.66"><defs><style>.cls-1{fill:#fff;}</style></defs><title>Agressor_White</title><g id="Слой_2" data-name="Слой 2"><g id="Слой_1-2" data-name="Слой 1"><path d="M37.27,116.66C29.580000000000002,113.28999999999999,21.910000000000004,109.89999999999999,14.210000000000004,106.58A83.93,83.93,0,0,0,4.050000000000004,102.58C-0.4599999999999955,101.28999999999999,-0.8099999999999961,98.81,1.0500000000000043,95.14Q8.48,80.78,15.8,66.37C18.96,60.190000000000005,22.200000000000003,54.06,25.15,47.78C26.029999999999998,45.910000000000004,26.15,43.65,26.47,41.56S26.47,37.25,27.41,35.77C30.78,30.700000000000003,28.22,26.770000000000003,25.72,22.580000000000005Q20.29,13.46,15.21,4.12C13.610000000000001,1.2000000000000002,15.55,0.1200000000000001,18.07,0.1200000000000001Q37.75,-0.009999999999999898,57.410000000000004,0.1200000000000001C58.99,0.1200000000000001,60.550000000000004,0.8700000000000001,62.77,1.4400000000000002A56,56,0,0,1,60.61,6.61C56.89,13.46,52.89,20.18,49.47,27.169999999999998C48.56,29.04,49.269999999999996,31.74,49.47,34.05C49.53,34.989999999999995,50.47,35.949999999999996,50.379999999999995,36.82C49.17999999999999,46.21,55.14999999999999,53.120000000000005,58.779999999999994,60.74C64.11999999999999,71.94,70.13,82.83,75.78,93.87C78.64,99.41000000000001,78.08,100.30000000000001,72.05,102.87C61.4,107.36,50.86,112.11,40.28,116.75ZM29.270000000000003,47.2L3.32,98.43C13.11,102.5,22.12,106.26,31.15,109.97C36.839999999999996,112.31,37.04,112.2,37.06,106.22C37.06,89.73,36.830000000000005,73.22,37.21,56.76C37.35,51,35.49,48,29.23,47.2ZM73.78,98.53C73.02,96.59,72.59,95.16,71.92,93.85C64.56,79.36,57.21,64.85,49.7,50.459999999999994C49.040000000000006,49.199999999999996,46.7,47.459999999999994,46.1,47.75999999999999C43.9,48.98999999999999,40.45,50.90999999999999,40.410000000000004,52.63999999999999C39.99,71.25,40.14,89.86999999999999,40.120000000000005,108.49C40.120000000000005,111.35,41.550000000000004,112.02,43.96000000000001,111.02C53.75,107,63.52,102.83,73.78,98.53ZM25.25,4.26L24.57,5.56C28.66,8.23,32.71,10.969999999999999,36.870000000000005,13.559999999999999A3.28,3.28,0,0,0,39.7,13.69C44,11.07,48.21,8.29,52.45,5.58L52,4.26ZM55.66,8.74C42.089999999999996,12.74,36.72,21.97,41.42999999999999,33.74C46.31,25.18,50.81,17.27,55.66,8.74ZM38.38,46.26C43.160000000000004,46.43,46.99,43.93,47.24,40.12A7,7,0,0,0,45.910000000000004,35.66C45.550000000000004,35.209999999999994,43.050000000000004,35.809999999999995,42.09,36.66C39.400000000000006,38.93,37.32000000000001,38.72,34.78,36.309999999999995C31.67,33.309999999999995,30.41,35.9,29.92,38.629999999999995C29.2,42.65,33.1,46.07,38.38,46.26ZM35.49,33C39.09,20.42,33.230000000000004,10.71,22.26,9.530000000000001Z"/><path d="M29.23,47.2C35.49,48.03,37.35,51.03,37.230000000000004,56.760000000000005C36.85,73.24000000000001,37.11000000000001,89.76,37.080000000000005,106.22C37.080000000000005,112.22,36.86000000000001,112.31,31.170000000000005,109.97C22.170000000000005,106.26,13.170000000000005,102.5,3.340000000000007,98.43Z" fill="#fff" /><path d="M73.78,98.53C63.52,102.83,53.75,107,44,111C41.59,112,40.16,111.33,40.16,108.47C40.16,89.85,40.029999999999994,71.22999999999999,40.449999999999996,52.62C40.449999999999996,50.89,43.94,48.97,46.13999999999999,47.739999999999995C46.699999999999996,47.42999999999999,49.07999999999999,49.17999999999999,49.739999999999995,50.44C57.24999999999999,64.85,64.6,79.34,71.96,93.83C72.59,95.16,73,96.59,73.78,98.53Z" fill="#fff" /><path d="M25.25,4.26H52L52.49,5.58C48.21,8.29,44,11.07,39.7,13.66A3.28,3.28,0,0,1,36.870000000000005,13.53C32.71000000000001,10.969999999999999,28.660000000000004,8.23,24.570000000000004,5.529999999999999Z" fill="#fff" /><path d="M55.66,8.74C50.809999999999995,17.27,46.309999999999995,25.18,41.42999999999999,33.74C36.72,22,42.09,12.76,55.66,8.74Z" fill="#fff" /><path d="M38.38,46.26C33.1,46.07,29.200000000000003,42.65,29.92,38.58C30.41,35.85,31.67,33.3,34.78,36.26C37.32,38.67,39.4,38.879999999999995,42.09,36.61C43.09,35.81,45.550000000000004,35.21,45.910000000000004,35.61A7,7,0,0,1,47.24,40.07C47,43.93,43.16,46.43,38.38,46.26Z" fill="#fff" /><path d="M35.49,33L22.26,9.55C33.23,10.73,39.09,20.44,35.49,33Z" fill="#fff" /></g></g></svg>