<svg xmlns="http://www.w3.org/2000/svg" viewBox="0 0 79.44 118.66">
<path d="M38.06,118.66L31.240000000000002,115.66Q23.040000000000003,112.05,14.82,108.49L13.15,107.77A66.93,66.93,0,0,0,4.780000000000001,104.53999999999999C2.4200000000000013,103.86999999999999,0.9700000000000011,102.83999999999999,0.34000000000000075,101.38999999999999S-0.03999999999999926,98.07,1.1900000000000008,95.67999999999999Q8.590000000000002,81.30999999999999,15.920000000000002,66.89999999999999C16.66,65.44,17.41,63.989999999999995,18.160000000000004,62.529999999999994C20.540000000000003,57.89999999999999,23.000000000000004,53.11999999999999,25.250000000000004,48.349999999999994A14.8,14.8,0,0,0,26.250000000000004,44.099999999999994C26.330000000000002,43.519999999999996,26.410000000000004,42.949999999999996,26.500000000000004,42.379999999999995A14.76,14.76,0,0,0,26.670000000000005,40.379999999999995A8,8,0,0,1,27.600000000000005,36.17999999999999C30.510000000000005,31.799999999999994,28.480000000000004,28.39999999999999,26.130000000000006,24.459999999999994L25.880000000000006,24.049999999999994C22.39,18.25,18.85,12,15.34,5.6C14.52,4.109999999999999,14.41,2.8299999999999996,15.01,1.8099999999999996S17.07,0.1,19.07,0.08C26.81,0,34.49,0,41.88,0Q50.160000000000004,0,58.42,0.05A11.85,11.85,0,0,1,62,0.81C62.62,1,63.28,1.21,64,1.4L65.11,1.69L64.7,2.75C64.43,3.4,64.2,4,64,4.59A28,28,0,0,1,62.49,8C61.25,10.29,59.980000000000004,12.559999999999999,58.71,14.83C56.21,19.29,53.64,23.89,51.370000000000005,28.53C50.82000000000001,29.67,51.03,31.39,51.230000000000004,33.06C51.31,33.690000000000005,51.38,34.31,51.42,34.900000000000006A3,3,0,0,0,51.79,35.830000000000005A3.6,3.6,0,0,1,52.32,37.830000000000005C51.46,44.61000000000001,54.480000000000004,49.980000000000004,57.69,55.660000000000004C58.69,57.46,59.739999999999995,59.31,60.69,61.18000000000001C64.31,68.78,68.31,76.37,72.17,83.7C74.03,87.23,75.89,90.7,77.71000000000001,94.3C79.18,97.13,79.86000000000001,98.97,79.28,100.57C78.63,102.36,76.56,103.35,73.48,104.64999999999999C65.99000000000001,107.80999999999999,58.42,111.14999999999999,51.11,114.38Q46.41,116.46,41.72,118.52L41.53,118.61ZM47.36,49.75999999999999C45.81,50.62999999999999,42.44,52.55999999999999,42.36,53.66999999999999C42.04,67.89999999999999,42.06,82.38999999999999,42.07,96.41C42.07,100.77,42.07,105.13,42.07,109.49C42.07,110.66,42.34,111.1,42.5,111.25999999999999A0.73,0.73,0,0,0,43.09,111.46H43.09A4.07,4.07,0,0,0,44.53,111.1C51.67,108.1,58.8,105.1,66.12,102.1L73.5,99C73.38,98.68,73.27,98.38,73.17,98.08A26.57,26.57,0,0,0,72,95.3L70.88,93C64,79.53,56.93,65.57,49.82,51.92A6.68,6.68,0,0,0,47.36,49.76ZM13.45,102.14C19.98,104.86,26.25,107.46000000000001,32.53,110.05A15.9,15.9,0,0,0,36.53,111.39A0.41,0.41,0,0,0,36.69,111.39C37.04,111.09,37.05,108.68,37.05,107.23C37.05,102,37.05,96.77000000000001,37.05,91.54C37,80.45,37,69,37.22,57.73C37.339999999999996,52.39,35.65,50.11,30.799999999999997,49.3L5.7,98.92ZM33.349999999999994,36.94C32.769999999999996,36.94,32.21999999999999,38.019999999999996,31.909999999999993,39.76A4.48,4.48,0,0,0,32.91,43.44A8.77,8.77,0,0,0,39.419999999999995,46.26H39.849999999999994C43.99999999999999,46.26,47.03999999999999,44.11,47.24999999999999,41.04A6,6,0,0,0,46.24999999999999,37.5A5.5,5.5,0,0,0,43.699999999999996,38.36A6.49,6.49,0,0,1,39.55,40.18C38.07,40.18,36.65,39.48,35.059999999999995,37.97C34.1,37,33.54,36.94,33.35,36.94ZM54.5,11.52C48.93,13.6,45,16.73,43.12,20.66C41.47,24.08,41.309999999999995,28,42.65,32.35ZM36.11,31.31C37.11,26.049999999999997,36.38,21.31,33.96,17.68A13.94,13.94,0,0,0,25.16,11.870000000000001ZM29.23,7.77C32.230000000000004,9.77,35.3,11.77,38.39,13.68A2.44,2.44,0,0,0,39.52,13.92H39.52A1.59,1.59,0,0,0,40.190000000000005,13.81C43.410000000000004,11.870000000000001,46.63,9.81,49.74000000000001,7.8100000000000005L52.1,6.26H26.94Z"/>
<path d="M38.27,117.66C30.590000000000003,114.28999999999999,22.92,110.89999999999999,15.210000000000004,107.58A84.44,84.44,0,0,0,5.060000000000004,103.58C0.5500000000000043,102.28999999999999,0.19000000000000394,99.81,2.060000000000004,96.14Q9.460000000000004,81.77,16.790000000000006,67.36C20,61.19,23.2,55.06,26.15,48.78C27.029999999999998,46.92,27.15,44.65,27.47,42.56S27.47,38.25,28.41,36.77C31.78,31.700000000000003,29.22,27.770000000000003,26.72,23.580000000000005Q21.29,14.460000000000006,16.22,5.1200000000000045C14.61,2.2000000000000046,16.549999999999997,1.1200000000000045,19.07,1.1200000000000045Q38.75,0.9800000000000045,58.42,1.1200000000000045C59.99,1.1200000000000045,61.56,1.8700000000000045,63.78,2.440000000000005C63,4.35,62.43,6,61.61,7.54C57.9,14.39,53.89,21.11,50.47,28.11C49.56,29.97,50.269999999999996,32.67,50.47,34.98C50.54,35.919999999999995,51.47,36.879999999999995,51.379999999999995,37.75C50.17999999999999,47.14,56.16,54.05,59.78999999999999,61.67C65.13,72.87,71.13,83.76,76.78999999999999,94.80000000000001C79.64999999999999,100.34000000000002,79.08999999999999,101.23000000000002,73.05999999999999,103.80000000000001C62.40999999999999,108.29,51.86999999999999,113.04,41.28999999999999,117.68ZM30.270000000000003,48.2L4.32,99.43C14.120000000000001,103.5,23.13,107.26,32.15,110.97C37.839999999999996,113.31,38.05,113.2,38.06,107.22C38.06,90.73,37.830000000000005,74.22,38.22,57.76C38.35,52,36.49,49,30.23,48.2ZM74.78,99.53C74.03,97.59,73.59,96.16,72.93,94.85C65.57000000000001,80.36,58.220000000000006,65.85,50.7,51.459999999999994C50.040000000000006,50.199999999999996,47.7,48.459999999999994,47.1,48.75999999999999C44.9,49.98999999999999,41.45,51.90999999999999,41.410000000000004,53.63999999999999C40.99,72.25,41.150000000000006,90.86999999999999,41.120000000000005,109.49C41.120000000000005,112.35,42.56,113.02,44.970000000000006,112.02C54.75,108,64.52,103.83,74.78,99.53ZM26.25,5.26L25.57,6.56C29.66,9.23,33.71,11.969999999999999,37.870000000000005,14.559999999999999A3.28,3.28,0,0,0,40.7,14.69C45,12.08,49.21,9.29,53.45,6.58L53,5.26ZM56.66,9.74C43.089999999999996,13.74,37.72,22.97,42.44,34.74ZM39.39,47.26C44.16,47.43,47.99,44.93,48.24,41.12A7,7,0,0,0,46.910000000000004,36.66C46.550000000000004,36.209999999999994,44.050000000000004,36.809999999999995,43.1,37.66C40.4,39.93,38.32,39.72,35.79,37.309999999999995C32.67,34.309999999999995,31.41,36.9,30.93,39.629999999999995C30.2,43.65,34.11,47.07,39.39,47.26ZM36.49,34C40.09,21.42,34.230000000000004,11.71,23.270000000000003,10.530000000000001C27.55,18.16,31.73,25.56,36.49,34Z" fill="#fff"/>
<path d="M30.23,48.2C36.49,49.03,38.35,52.03,38.230000000000004,57.760000000000005C37.84,74.24000000000001,38.11000000000001,90.76,38.07000000000001,107.22C38.07000000000001,113.22,37.85000000000001,113.31,32.16000000000001,110.97C23.16000000000001,107.26,14.16000000000001,103.5,4.3300000000000125,99.43Z"/>
<path d="M74.78,99.53C64.52,103.83,54.75,108,45,112C42.59,113,41.15,112.33,41.15,109.47C41.15,90.85,41.019999999999996,72.22999999999999,41.44,53.62C41.44,51.89,44.93,49.97,47.129999999999995,48.739999999999995C47.69,48.42999999999999,50.06999999999999,50.17999999999999,50.73,51.44C58.25,65.85,65.6,80.34,72.96,94.83C73.59,96.16,74,97.59,74.78,99.53Z"/>
<path d="M26.25,5.26H53L53.49,6.58C49.21,9.29,45,12.08,40.7,14.66A3.28,3.28,0,0,1,37.870000000000005,14.53C33.71000000000001,11.969999999999999,29.660000000000004,9.23,25.570000000000004,6.529999999999999Z"/>
<path d="M56.66,9.74L42.44,34.74C37.72,23,43.09,13.76,56.66,9.74Z"/>
<path d="M39.39,47.26C34.11,47.07,30.200000000000003,43.65,30.93,39.58C31.41,36.85,32.67,34.3,35.79,37.26C38.32,39.67,40.4,39.879999999999995,43.1,37.61C44.050000000000004,36.81,46.550000000000004,36.21,46.910000000000004,36.61A7,7,0,0,1,48.24,41.07C48,44.93,44.16,47.43,39.39,47.26Z"/>
<path d="M36.49,34C31.730000000000004,25.54,27.550000000000004,18.14,23.270000000000003,10.530000000000001C34.23,11.73,40.09,21.44,36.49,34Z"/>
</svg>