<svg xmlns="http://www.w3.org/2000/svg" viewBox="0 0 79.44 118.66"><defs><style>.cls-1{fill:#fff;}</style></defs><title>Agressor_Black_1</title><g id="Слой_2" data-name="Слой 2"><g id="Слой_1-2" data-name="Слой 1"><path d="M38.06,118.66l-6.82-3q-8.2-3.61-16.42-7.17l-1.67-.72a66.93,66.93,0,0,0-8.37-3.23c-2.36-.67-3.81-1.7-4.44-3.15s-.38-3.32.85-5.71q7.4-14.37,14.73-28.78c.74-1.46,1.49-2.91,2.24-4.37,2.38-4.63,4.84-9.41,7.09-14.18a14.8,14.8,0,0,0,1-4.25c.08-.58.16-1.15.25-1.72a14.76,14.76,0,0,0,.17-2,8,8,0,0,1,.93-4.2c2.91-4.38.88-7.78-1.47-11.72l-.25-.41C22.39,18.25,18.85,12,15.34,5.6c-.82-1.49-.93-2.77-.33-3.79S17.07.1,19.07.08C26.81,0,34.49,0,41.88,0q8.28,0,16.54.05A11.85,11.85,0,0,1,62,.81c.62.19,1.28.4,2,.59l1.11.29L64.7,2.75C64.43,3.4,64.2,4,64,4.59A28,28,0,0,1,62.49,8c-1.24,2.29-2.51,4.56-3.78,6.83-2.5,4.46-5.07,9.06-7.34,13.7-.55,1.14-.34,2.86-.14,4.53.08.63.15,1.25.19,1.84a3,3,0,0,0,.37.93,3.6,3.6,0,0,1,.53,2c-.86,6.78,2.16,12.15,5.37,17.83,1,1.8,2.05,3.65,3,5.52,3.62,7.6,7.62,15.19,11.48,22.52,1.86,3.53,3.72,7,5.54,10.6,1.47,2.83,2.15,4.67,1.57,6.27-.65,1.79-2.72,2.78-5.8,4.08-7.49,3.16-15.06,6.5-22.37,9.73q-4.7,2.08-9.39,4.14l-.19.09Zm9.3-68.9c-1.55.87-4.92,2.8-5,3.91-.32,14.23-.3,28.72-.29,42.74,0,4.36,0,8.72,0,13.08,0,1.17.27,1.61.43,1.77a.73.73,0,0,0,.59.2h0a4.07,4.07,0,0,0,1.44-.36c7.14-3,14.27-6,21.59-9L73.5,99c-.12-.32-.23-.62-.33-.92A26.57,26.57,0,0,0,72,95.3L70.88,93C64,79.53,56.93,65.57,49.82,51.92A6.68,6.68,0,0,0,47.36,49.76ZM13.45,102.14c6.53,2.72,12.8,5.32,19.08,7.91a15.9,15.9,0,0,0,4,1.34.41.41,0,0,0,.16,0c.35-.3.36-2.71.36-4.16,0-5.23,0-10.46,0-15.69C37,80.45,37,69,37.22,57.73c.12-5.34-1.57-7.62-6.42-8.43L5.7,98.92Zm19.9-65.2c-.58,0-1.13,1.08-1.44,2.82a4.48,4.48,0,0,0,1,3.68,8.77,8.77,0,0,0,6.51,2.82h.43c4.15,0,7.19-2.15,7.4-5.22a6,6,0,0,0-1-3.54,5.5,5.5,0,0,0-2.55.86,6.49,6.49,0,0,1-4.15,1.82c-1.48,0-2.9-.7-4.49-2.21C34.1,37,33.54,36.94,33.35,36.94ZM54.5,11.52C48.93,13.6,45,16.73,43.12,20.66c-1.65,3.42-1.81,7.34-.47,11.69ZM36.11,31.31c1-5.26.27-10-2.15-13.63a13.94,13.94,0,0,0-8.8-5.81ZM29.23,7.77c3,2,6.07,4,9.16,5.91a2.44,2.44,0,0,0,1.13.24h0a1.59,1.59,0,0,0,.67-.11c3.22-1.94,6.44-4,9.55-6L52.1,6.26H26.94Z"/><path class="cls-1" d="M38.27,117.66c-7.68-3.37-15.35-6.76-23.06-10.08a84.44,84.44,0,0,0-10.15-4c-4.51-1.29-4.87-3.77-3-7.44q7.4-14.37,14.73-28.78C20,61.19,23.2,55.06,26.15,48.78c.88-1.86,1-4.13,1.32-6.22s0-4.31.94-5.79c3.37-5.07.81-9-1.69-13.19q-5.43-9.12-10.5-18.46c-1.61-2.92.33-4,2.85-4q19.68-.14,39.35,0c1.57,0,3.14.75,5.36,1.32C63,4.35,62.43,6,61.61,7.54c-3.71,6.85-7.72,13.57-11.14,20.57-.91,1.86-.2,4.56,0,6.87.07.94,1,1.9.91,2.77-1.2,9.39,4.78,16.3,8.41,23.92,5.34,11.2,11.34,22.09,17,33.13,2.86,5.54,2.3,6.43-3.73,9-10.65,4.49-21.19,9.24-31.77,13.88Zm-8-69.46L4.32,99.43c9.8,4.07,18.81,7.83,27.83,11.54,5.69,2.34,5.9,2.23,5.91-3.75,0-16.49-.23-33,.16-49.46C38.35,52,36.49,49,30.23,48.2ZM74.78,99.53c-.75-1.94-1.19-3.37-1.85-4.68-7.36-14.49-14.71-29-22.23-43.39-.66-1.26-3-3-3.6-2.7-2.2,1.23-5.65,3.15-5.69,4.88-.42,18.61-.26,37.23-.29,55.85,0,2.86,1.44,3.53,3.85,2.53C54.75,108,64.52,103.83,74.78,99.53ZM26.25,5.26l-.68,1.3c4.09,2.67,8.14,5.41,12.3,8a3.28,3.28,0,0,0,2.83.13C45,12.08,49.21,9.29,53.45,6.58L53,5.26ZM56.66,9.74c-13.57,4-18.94,13.23-14.22,25ZM39.39,47.26c4.77.17,8.6-2.33,8.85-6.14a7,7,0,0,0-1.33-4.46c-.36-.45-2.86.15-3.81,1-2.7,2.27-4.78,2.06-7.31-.35-3.12-3-4.38-.41-4.86,2.32C30.2,43.65,34.11,47.07,39.39,47.26ZM36.49,34c3.6-12.58-2.26-22.29-13.22-23.47C27.55,18.16,31.73,25.56,36.49,34Z"/><path d="M30.23,48.2c6.26.83,8.12,3.83,8,9.56-.39,16.48-.12,33-.16,49.46,0,6-.22,6.09-5.91,3.75-9-3.71-18-7.47-27.83-11.54Z"/><path d="M74.78,99.53C64.52,103.83,54.75,108,45,112c-2.41,1-3.85.33-3.85-2.53,0-18.62-.13-37.24.29-55.85,0-1.73,3.49-3.65,5.69-4.88.56-.31,2.94,1.44,3.6,2.7,7.52,14.41,14.87,28.9,22.23,43.39C73.59,96.16,74,97.59,74.78,99.53Z"/><path d="M26.25,5.26H53l.49,1.32C49.21,9.29,45,12.08,40.7,14.66a3.28,3.28,0,0,1-2.83-.13c-4.16-2.56-8.21-5.3-12.3-8Z"/><path d="M56.66,9.74l-14.22,25C37.72,23,43.09,13.76,56.66,9.74Z"/><path d="M39.39,47.26c-5.28-.19-9.19-3.61-8.46-7.68.48-2.73,1.74-5.28,4.86-2.32,2.53,2.41,4.61,2.62,7.31.35.95-.8,3.45-1.4,3.81-1a7,7,0,0,1,1.33,4.46C48,44.93,44.16,47.43,39.39,47.26Z"/><path d="M36.49,34c-4.76-8.46-8.94-15.86-13.22-23.47C34.23,11.73,40.09,21.44,36.49,34Z"/></g></g></svg>