<svg xmlns="http://www.w3.org/2000/svg" viewBox="0 0 77.43 116.66"><defs><style>.cls-1{fill:#fff;}</style></defs><title>Agressor_White</title><g id="Слой_2" data-name="Слой 2"><g id="Слой_1-2" data-name="Слой 1"><path d="M37.27,116.66c-7.69-3.37-15.36-6.76-23.06-10.08a83.93,83.93,0,0,0-10.16-4c-4.51-1.29-4.86-3.77-3-7.44Q8.48,80.78,15.8,66.37c3.16-6.18,6.4-12.31,9.35-18.59.88-1.87,1-4.13,1.32-6.22s0-4.31.94-5.79c3.37-5.07.81-9-1.69-13.19Q20.29,13.46,15.21,4.12c-1.6-2.92.34-4,2.86-4q19.68-.13,39.34,0c1.58,0,3.14.75,5.36,1.32a56,56,0,0,1-2.16,5.17c-3.72,6.85-7.72,13.57-11.14,20.56-.91,1.87-.2,4.57,0,6.88.06.94,1,1.9.91,2.77-1.2,9.39,4.77,16.3,8.4,23.92,5.34,11.2,11.35,22.09,17,33.13,2.86,5.54,2.3,6.43-3.73,9-10.65,4.49-21.19,9.24-31.77,13.88Zm-8-69.46L3.32,98.43c9.79,4.07,18.8,7.83,27.83,11.54,5.69,2.34,5.89,2.23,5.91-3.75,0-16.49-.23-33,.15-49.46C37.35,51,35.49,48,29.23,47.2ZM73.78,98.53c-.76-1.94-1.19-3.37-1.86-4.68-7.36-14.49-14.71-29-22.22-43.39-.66-1.26-3-3-3.6-2.7-2.2,1.23-5.65,3.15-5.69,4.88-.42,18.61-.27,37.23-.29,55.85,0,2.86,1.43,3.53,3.84,2.53C53.75,107,63.52,102.83,73.78,98.53ZM25.25,4.26l-.68,1.3c4.09,2.67,8.14,5.41,12.3,8a3.28,3.28,0,0,0,2.83.13C44,11.07,48.21,8.29,52.45,5.58L52,4.26ZM55.66,8.74c-13.57,4-18.94,13.23-14.23,25C46.31,25.18,50.81,17.27,55.66,8.74ZM38.38,46.26c4.78.17,8.61-2.33,8.86-6.14a7,7,0,0,0-1.33-4.46c-.36-.45-2.86.15-3.82,1-2.69,2.27-4.77,2.06-7.31-.35-3.11-3-4.37-.41-4.86,2.32C29.2,42.65,33.1,46.07,38.38,46.26ZM35.49,33c3.6-12.58-2.26-22.29-13.23-23.47Z"/><path class="cls-1" d="M29.23,47.2c6.26.83,8.12,3.83,8,9.56-.38,16.48-.12,33-.15,49.46,0,6-.22,6.09-5.91,3.75-9-3.71-18-7.47-27.83-11.54Z"/><path class="cls-1" d="M73.78,98.53C63.52,102.83,53.75,107,44,111c-2.41,1-3.84.33-3.84-2.53,0-18.62-.13-37.24.29-55.85,0-1.73,3.49-3.65,5.69-4.88.56-.31,2.94,1.44,3.6,2.7,7.51,14.41,14.86,28.9,22.22,43.39C72.59,95.16,73,96.59,73.78,98.53Z"/><path class="cls-1" d="M25.25,4.26H52l.49,1.32C48.21,8.29,44,11.07,39.7,13.66a3.28,3.28,0,0,1-2.83-.13c-4.16-2.56-8.21-5.3-12.3-8Z"/><path class="cls-1" d="M55.66,8.74c-4.85,8.53-9.35,16.44-14.23,25C36.72,22,42.09,12.76,55.66,8.74Z"/><path class="cls-1" d="M38.38,46.26c-5.28-.19-9.18-3.61-8.46-7.68.49-2.73,1.75-5.28,4.86-2.32,2.54,2.41,4.62,2.62,7.31.35,1-.8,3.46-1.4,3.82-1a7,7,0,0,1,1.33,4.46C47,43.93,43.16,46.43,38.38,46.26Z"/><path class="cls-1" d="M35.49,33,22.26,9.55C33.23,10.73,39.09,20.44,35.49,33Z"/></g></g></svg>