<svg xmlns="http://www.w3.org/2000/svg" viewBox="0 0 67.7 103.02"><defs><style>.cls-1{fill:#fff;stroke:#000;}</style></defs><title>Defensor_Black</title><g id="Слой_2" data-name="Слой 2"><g id="Слой_1-2" data-name="Слой 1"><path class="cls-1" d="M33.07,102.52c-5.58-.81-11.15-1.07-16.4-2.5C10.82,98.42,4.45,96.69,2.9,89.39,1.22,81.53,4.19,75.17,9.61,69.55c2-2.07,4.27-4.59,4.72-7.2.39-2.22-.94-6.07-2.74-7.12C2.59,49.94.86,41.28.51,32.26c-.16-3.95,1.7-8.06,3.06-12a5.81,5.81,0,0,1,3.37-3.24C11,15.89,12.3,13.48,12.3,9.37c0-1.79,1.61-4.56,3.17-5.2,12-4.9,24.23-4.79,36.39-.28,3,1.13,4.47,3.23,4,6.55s.76,5.36,4.37,6.54c5.78,1.89,5.7,7.77,6.58,12.4,1.58,8.3-1.7,15.65-6.11,22.51a6.46,6.46,0,0,1-2.11,2c-7.17,4.18-7.79,9.5-1.52,15.1A21.09,21.09,0,0,1,64.17,85c.16,8.16-4.58,13.13-14.36,15.14C44.29,101.26,38.63,101.74,33.07,102.52ZM26.55,41.45c-.75,3.08-.91,4.81-1.58,6.32-2.95,6.67-6,13.29-9.09,19.93-1.45,3.14-1.09,5.73,2,7.78,7.78,5.24,24.4,5.35,32.07.17,2.65-1.8,3.78-3.75,2.1-7.09-3.27-6.53-6.2-13.23-9.15-19.91A45.47,45.47,0,0,1,41.17,43l1.15-.89C46.21,44.16,50,46.52,54,48.19c1.48.61,4.59.23,5.31-.83,3.57-5.21,5.32-11.09,3.67-17.48-2-7.86-2.62-8.06-9.87-4.65-3.44,1.62-7,3-10.48,4.5l-1-1.22c.53-1.46.93-3,1.6-4.38,1.88-3.89,3.73-7.8,5.85-11.55C51.32,8.65,50.71,6.22,46,5.81c-6.42-.55-12.89-1.53-19.26-1.16C16.45,5.26,15.8,6.89,20.25,16c2.05,4.19,4,8.42,6,12.64l-1,1a29.66,29.66,0,0,1-4-1.16c-3.34-1.48-6.68-3-9.9-4.7-2.93-1.56-4.47-.85-5.6,2.26A23.54,23.54,0,0,0,7.22,46.17c1.67,3.07,3.51,4,6.77,2C17.57,45.91,21.44,44.14,26.55,41.45ZM10.7,73.72c-6.93,6.92-8.37,19,4,22.53a65.87,65.87,0,0,0,36.87.07c11-3.11,10.56-11.52,7.53-19.41-1.06-2.75-2.33-3.51-5-1a22.33,22.33,0,0,1-8.87,5.13C32.67,84.61,20.9,83.28,10.7,73.72Zm45.75-53.6-5.11-4.63L47.51,23l.91.81ZM16.68,15.86,11,20.14l8,3.32.71-1ZM17.73,56l2.72-6.43-.95-.73-5.27,2.76Zm32.18.35,3.34-5-5-2.53-.93.91Z"/><path d="M26.55,41.45c-5.11,2.69-9,4.46-12.56,6.69-3.26,2-5.1,1.1-6.77-2A23.54,23.54,0,0,1,5.75,26c1.13-3.11,2.67-3.82,5.6-2.26,3.22,1.71,6.56,3.22,9.9,4.7a29.66,29.66,0,0,0,4,1.16l1-1c-2-4.22-4-8.45-6-12.64-4.45-9.07-3.8-10.7,6.44-11.31,6.37-.37,12.84.61,19.26,1.16,4.76.41,5.37,2.84,3.13,6.77-2.12,3.75-4,7.66-5.85,11.55-.67,1.39-1.07,2.92-1.6,4.38l1,1.22c3.5-1.49,7-2.88,10.48-4.5C60.4,21.82,61,22,63,29.88c1.65,6.39-.1,12.27-3.67,17.48-.72,1.06-3.83,1.44-5.31.83-4.06-1.67-7.83-4-11.72-6.12L41.17,43a45.47,45.47,0,0,0,1.69,5.69c3,6.68,5.88,13.38,9.15,19.91,1.68,3.34.55,5.29-2.1,7.09-7.67,5.18-24.29,5.07-32.07-.17-3.05-2-3.41-4.64-2-7.78,3-6.64,6.14-13.26,9.09-19.93C25.64,46.26,25.8,44.53,26.55,41.45Z"/><path d="M10.7,73.72c10.2,9.56,22,10.89,34.53,7.36A22.33,22.33,0,0,0,54.1,76c2.71-2.55,4-1.79,5,1,3,7.89,3.48,16.3-7.53,19.41a65.87,65.87,0,0,1-36.87-.07C2.33,92.71,3.77,80.64,10.7,73.72Z"/><path d="M56.45,20.12l-8,3.64L47.51,23l3.83-7.46Z"/><path d="M16.68,15.86l3,6.58-.71,1-8-3.32Z"/><path d="M17.73,56l-3.5-4.4,5.27-2.76.95.73Z"/><path d="M49.91,56.39,47.3,49.82l.93-.91,5,2.53Z"/></g></g></svg>