<svg xmlns="http://www.w3.org/2000/svg" viewBox="0 0 66.7 102.02"><defs><style>.cls-1{fill:#fff;}</style></defs><title>Defensor_White</title><g id="Слой_2" data-name="Слой 2"><g id="Слой_1-2" data-name="Слой 1"><path d="M32.57,102C26.990000000000002,101.19,21.42,100.93,16.17,99.5C10.32,97.92,4,96.19,2.4,88.89C0.72,81,3.69,74.67,9.11,69.05C11.11,66.98,13.379999999999999,64.46,13.829999999999998,61.849999999999994C14.219999999999999,59.629999999999995,12.889999999999999,55.779999999999994,11.089999999999998,54.73C2.09,49.44,0.36,40.78,0,31.76C-0.16,27.76,1.7,23.700000000000003,3.06,19.76A5.81,5.81,0,0,1,6.43,16.520000000000003C10.52,15.39,11.8,13,11.8,8.87C11.8,7.079999999999999,13.41,4.31,14.97,3.669999999999999C26.97,-1.2300000000000013,39.2,-1.120000000000001,51.36,3.389999999999999C54.36,4.519999999999999,55.83,6.619999999999999,55.36,9.939999999999998S56.12,15.299999999999997,59.73,16.479999999999997C65.50999999999999,18.369999999999997,65.42999999999999,24.249999999999996,66.31,28.879999999999995C67.89,37.17999999999999,64.61,44.529999999999994,60.2,51.39A6.46,6.46,0,0,1,58.09,53.39C50.92,57.57,50.300000000000004,62.89,56.57,68.49A21.09,21.09,0,0,1,63.68,84.42999999999999C63.839999999999996,92.58999999999999,59.1,97.55999999999999,49.32,99.57C43.79,100.76,38.13,101.24,32.57,102ZM26.05,41C25.3,44.08,25.14,45.81,24.47,47.32C21.52,53.99,18.47,60.61,15.379999999999999,67.25C13.93,70.39,14.29,72.98,17.38,75.03C25.16,80.27,41.78,80.38,49.45,75.2C52.1,73.4,53.230000000000004,71.45,51.550000000000004,68.11C48.28,61.58,45.35,54.879999999999995,42.400000000000006,48.2A45.47,45.47,0,0,1,40.71000000000001,42.510000000000005L41.86000000000001,41.620000000000005C45.75000000000001,43.71000000000001,49.52000000000001,46.07000000000001,53.580000000000005,47.74C55.06,48.35,58.17,47.97,58.89000000000001,46.910000000000004C62.46000000000001,41.7,64.21000000000001,35.82000000000001,62.56000000000001,29.430000000000003C60.56000000000001,21.570000000000004,59.94000000000001,21.370000000000005,52.69000000000001,24.78C49.250000000000014,26.400000000000002,45.69000000000001,27.78,42.21000000000001,29.28L41.21000000000001,28.060000000000002C41.74000000000001,26.6,42.14000000000001,25.060000000000002,42.81000000000001,23.680000000000003C44.69000000000001,19.790000000000003,46.540000000000006,15.880000000000003,48.66000000000001,12.130000000000003C50.90000000000001,8.200000000000003,50.29000000000001,5.770000000000002,45.53000000000001,5.360000000000003C39,4.76,32.56,3.78,26.19,4.15C16,4.76,15.3,6.39,19.75,15.46C21.8,19.650000000000002,23.75,23.880000000000003,25.75,28.1L24.75,29.1A29.66,29.66,0,0,1,20.75,27.94C17.41,26.46,14.07,24.94,10.85,23.240000000000002C7.92,21.680000000000003,6.38,22.39,5.25,25.5A23.54,23.54,0,0,0,6.72,45.67C8.39,48.74,10.23,49.67,13.489999999999998,47.67C17.07,45.41,20.94,43.64,26.05,41ZM10.2,73.22C3.2699999999999996,80.14,1.83,92.22,14.2,95.75A65.87,65.87,0,0,0,51.06999999999999,95.82C62.06999999999999,92.71,61.629999999999995,84.3,58.599999999999994,76.41C57.53999999999999,73.66,56.269999999999996,72.89999999999999,53.599999999999994,75.41A22.33,22.33,0,0,1,44.73,80.53999999999999C32.17,84.11,20.4,82.78,10.2,73.22ZM56,19.62L50.84,15L47,22.45L47.91,23.259999999999998ZM16.18,15.36L10.48,19.64L18.48,22.96L19.19,21.96ZM17.23,55.54L20,49.11L19,48.38L13.73,51.14ZM49.41,55.89L52.75,50.89L47.75,48.36L46.82,49.269999999999996Z"/><path d="M26.05,41C20.94,43.69,17.05,45.46,13.49,47.69C10.23,49.69,8.39,48.79,6.720000000000001,45.69A23.54,23.54,0,0,1,5.25,25.48C6.38,22.37,7.92,21.66,10.85,23.22C14.07,24.93,17.41,26.439999999999998,20.75,27.919999999999998A29.66,29.66,0,0,0,24.75,29.08L25.75,28.08C23.75,23.86,21.75,19.63,19.75,15.439999999999998C15.3,6.39,16,4.76,26.19,4.15C32.56,3.7800000000000002,39.03,4.760000000000001,45.45,5.3100000000000005C50.21,5.720000000000001,50.82,8.15,48.580000000000005,12.08C46.46000000000001,15.83,44.580000000000005,19.740000000000002,42.730000000000004,23.630000000000003C42.06,25.020000000000003,41.660000000000004,26.550000000000004,41.13,28.01L42.13,29.23C45.63,27.740000000000002,49.13,26.35,52.61,24.73C59.86,21.32,60.44,21.52,62.48,29.380000000000003C64.13,35.77,62.379999999999995,41.650000000000006,58.809999999999995,46.86C58.089999999999996,47.92,54.98,48.3,53.49999999999999,47.69C49.43999999999999,46.019999999999996,45.669999999999995,43.69,41.779999999999994,41.57L40.629999999999995,42.46A45.47,45.47,0,0,0,42.31999999999999,48.15C45.31999999999999,54.83,48.199999999999996,61.53,51.46999999999999,68.06C53.14999999999999,71.4,52.01999999999999,73.35000000000001,49.36999999999999,75.15C41.69999999999999,80.33000000000001,25.07999999999999,80.22,17.29999999999999,74.98C14.24999999999999,72.98,13.88999999999999,70.34,15.29999999999999,67.2C18.29999999999999,60.56,21.43999999999999,53.940000000000005,24.38999999999999,47.27C25.14,45.76,25.3,44,26.05,41Z" fill="#fff" /><path d="M10.2,73.22C20.4,82.78,32.2,84.11,44.730000000000004,80.58A22.33,22.33,0,0,0,53.6,75.45C56.31,72.9,57.6,73.66,58.6,76.45C61.6,84.34,62.08,92.75,51.07,95.86A65.87,65.87,0,0,1,14.200000000000003,95.79C1.83,92.21,3.27,80.14,10.2,73.22Z" fill="#fff" /><path d="M56,19.62L48,23.26L47,22.45L50.84,15Z" fill="#fff" /><path d="M16.18,15.36L19.18,21.939999999999998L18.47,22.939999999999998L10.469999999999999,19.619999999999997Z" fill="#fff" /><path d="M17.23,55.54L13.73,51.14L19,48.38L19.95,49.11Z" fill="#fff" /><path d="M49.41,55.89L46.8,49.32L47.73,48.410000000000004L52.73,50.940000000000005Z" fill="#fff" /></g></g></svg>