<svg xmlns="http://www.w3.org/2000/svg" viewBox="0 0 79.25 118.67"><defs><style>.cls-1{fill:#fff;}</style></defs><title>Dominator_White</title><g id="Слой_2" data-name="Слой 2"><g id="Слой_1-2" data-name="Слой 1"><path d="M66.17,115.37C63.36,117.28,60.650000000000006,117.16000000000001,57.61,115.98A108.91,108.91,0,0,0,43.9,111.45A16.7,16.7,0,0,0,35.71,111.38000000000001C28.560000000000002,113.38000000000001,21.57,116.00000000000001,13.61,118.67000000000002L12.45,109.39000000000001C10.45,109.39000000000001,8.169999999999998,109.23000000000002,5.969999999999999,109.39000000000001C0.33,109.89,-1.16,108.1,0.86,103Q10.51,78.49,20.2,54C20.87,52.3,21.39,50.54,21.96,48.81C23.53,44.010000000000005,23.2,42.870000000000005,19.37,39.81C12.270000000000001,34.1,12.260000000000002,34.08,19.6,28.96C21.5,27.64,23.540000000000003,26.53,26.26,24.86C25.22,20,24.13,14.89,23,9.76C22.82,8.95,22.51,8.18,22.27,7.38C20.28,0.78,20.94,0,28,0C35.67,0,43.33,0,51,0C57,0,57.79,1,56.26,6.7C55.08,10.88,53.93,15,53,19.23A47,47,0,0,0,52.35,24.9C56.15,27.36,59.61,29.58,63.06,31.83C65.35000000000001,33.32,65.23,34.96,63.27,36.64C62.77,37.07,62.18,37.410000000000004,61.660000000000004,37.82C55.300000000000004,42.82,55.17,43.41,58.24,51.26Q68.41,77.25999999999999,78.52000000000001,103.18C80.4,108.01,78.88000000000001,109.83000000000001,73.66000000000001,109.56C71.42000000000002,109.45,69.17000000000002,109.56,66.73000000000002,109.56ZM61.34,113.83C60.78,109.89,60.56,106.96,59.940000000000005,104.12C58.02,95.37,55.940000000000005,86.67,53.940000000000005,77.94C51.50000000000001,67.27,49.150000000000006,56.56999999999999,46.59,45.94C46.31,44.78,44.870000000000005,43.94,43.970000000000006,42.94C43.300000000000004,44.14,42.260000000000005,45.28,42.040000000000006,46.559999999999995A42.22,42.22,0,0,0,41.86,53Q41.64,77.44,41.41,101.87C41.41,104.08,41.19,106.44,43.68,107.41000000000001C49.18,109.52,54.75,111.44,61.34,113.83ZM38.17,43L35.910000000000004,42.7C31.910000000000004,54.11,29.67,66.02000000000001,26.570000000000004,77.7S20.11,101,18.09,113.79C24.4,111.56,29.68,109.68,34.97,107.79C37.83,106.79,38.379999999999995,104.66000000000001,38.4,101.9C38.51,83.9,38.76,66,38.9,48.06A33.72,33.72,0,0,0,38.17,43ZM4.26,104.94C13.73,107.78,15.99,106.42,18.119999999999997,97.94C22,82.46,26,67.07,30,51.65C30.7,48.879999999999995,31.11,46.03,31.69,43.05C27.93,42.55,27.400000000000002,44.68,26.6,46.72C19.6,64.62,12.600000000000001,82.5,5.600000000000001,100.4C5,101.87,4.69,103.43,4.26,104.94ZM24.94,3.84C27,11.75,28.86,19,30.78,26.4H39.39C47.39,26.4,47.53,26.4,49.65,18.799999999999997C50.96,14.079999999999998,51.93,9.279999999999998,53.21,3.799999999999997ZM51.55,43.46L50,43.78A47.85,47.85,0,0,0,50.6,49.29C52.24,56.74,54,64.17,55.7,71.61C58,81.79,60.29,92,62.78,102.14C63.120000000000005,103.51,64.47,105.48,65.6,105.66C68.6,106.14,71.6,105.78,75.86999999999999,105.75C67.45,84.17,59.5,63.82,51.55,43.46ZM27.8,39H50.88C48.690000000000005,30,47.88,29.48,35.74,29.75C30.91,29.85,29.2,31.76,27.8,39ZM22.75,38.63L27.7,30.14C22.9,29.32,20.9,32.01,18.28,34.4ZM59.82,35.32L59.63,33.910000000000004C57.300000000000004,32.25000000000001,55.63,29.140000000000004,50.910000000000004,30.610000000000003C52.550000000000004,33.080000000000005,53.690000000000005,35.42,55.46,37.1C55.93,37.54,58.31,36,59.82,35.32Z"/><path d="M61.34,113.83C54.75,111.44,49.18000000000001,109.52,43.68000000000001,107.38C41.190000000000005,106.38,41.39000000000001,104.05,41.410000000000004,101.83999999999999Q41.67,77.41,41.86000000000001,52.96999999999999A42.22,42.22,0,0,1,42,46.5C42.22,45.22,43.26,44.08,43.93,42.88C44.83,43.88,46.269999999999996,44.77,46.55,45.88C49.11,56.52,51.459999999999994,67.22,53.9,77.88C55.9,86.61,57.98,95.31,59.9,104.06C60.56,107,60.78,109.89,61.34,113.83Z" fill="#fff" /><path d="M38.17,43A33.72,33.72,0,0,1,38.9,48.06C38.76,66,38.51,84,38.4,101.94C38.4,104.7,37.83,106.83,34.97,107.83C29.68,109.67999999999999,24.4,111.56,18.09,113.83C20.09,101.05,23.47,89.44,26.57,77.77S31.94,54.19,35.91,42.769999999999996Z" fill="#fff" /><path d="M4.26,104.94C4.6899999999999995,103.42999999999999,5.01,101.87,5.58,100.39999999999999C12.58,82.5,19.58,64.61999999999999,26.58,46.71999999999999C27.38,44.71999999999999,27.909999999999997,42.54999999999999,31.669999999999998,43.04999999999999C31.09,46.04999999999999,30.669999999999998,48.87999999999999,29.979999999999997,51.64999999999999C26,67.07,22,82.46,18.12,97.89C16,106.42,13.73,107.78,4.26,104.94Z" fill="#fff" /><path d="M24.94,3.84H53.21C51.93,9.280000000000001,50.96,14.08,49.65,18.84C47.53,26.46,47.44,26.439999999999998,39.39,26.439999999999998H30.78C28.86,19,27,11.75,24.94,3.84Z" fill="#fff" /><path d="M51.55,43.46C59.55,63.82,67.45,84.17,75.87,105.75C71.63000000000001,105.75,68.55000000000001,106.14,65.60000000000001,105.66C64.47000000000001,105.47999999999999,63.12000000000001,103.50999999999999,62.78000000000001,102.14C60.29,92,58,81.79,55.7,71.61C54,64.17,52.24,56.74,50.61,49.29A47.85,47.85,0,0,1,50.01,43.78Z" fill="#fff" /><path d="M27.8,39C29.2,31.759999999999998,30.91,29.85,35.74,29.75C47.85,29.48,48.69,30,50.88,39Z" fill="#fff" /><path d="M22.75,38.63L18.28,34.4C20.9,32,22.9,29.32,27.7,30.14Z" fill="#fff" /><path d="M59.82,35.32C58.31,35.97,55.93,37.54,55.46,37.1C53.69,35.42,52.55,33.1,50.910000000000004,30.61C55.650000000000006,29.14,57.300000000000004,32.25,59.63,33.91Z" fill="#fff" /></g></g></svg>