<svg xmlns="http://www.w3.org/2000/svg" viewBox="0 0 79.25 118.67"><defs><style>.cls-1{fill:#fff;}</style></defs><title>Dominator_White</title><g id="Слой_2" data-name="Слой 2"><g id="Слой_1-2" data-name="Слой 1"><path d="M66.17,115.37c-2.81,1.91-5.52,1.79-8.56.61a108.91,108.91,0,0,0-13.71-4.53,16.7,16.7,0,0,0-8.19-.07c-7.15,2-14.14,4.62-22.1,7.29l-1.16-9.28c-2,0-4.28-.16-6.48,0C.33,109.89-1.16,108.1.86,103Q10.51,78.49,20.2,54c.67-1.7,1.19-3.46,1.76-5.19,1.57-4.8,1.24-5.94-2.59-9-7.1-5.71-7.11-5.73.23-10.85,1.9-1.32,3.94-2.43,6.66-4.1C25.22,20,24.13,14.89,23,9.76c-.18-.81-.49-1.58-.73-2.38C20.28.78,20.94,0,28,0c7.67,0,15.33,0,23,0,6,0,6.79,1,5.26,6.7C55.08,10.88,53.93,15,53,19.23a47,47,0,0,0-.65,5.67c3.8,2.46,7.26,4.68,10.71,6.93,2.29,1.49,2.17,3.13.21,4.81-.5.43-1.09.77-1.61,1.18-6.36,5-6.49,5.59-3.42,13.44q10.17,26,20.28,51.92c1.88,4.83.36,6.65-4.86,6.38-2.24-.11-4.49,0-6.93,0Zm-4.83-1.54c-.56-3.94-.78-6.87-1.4-9.71-1.92-8.75-4-17.45-6-26.18-2.44-10.67-4.79-21.37-7.35-32-.28-1.16-1.72-2-2.62-3-.67,1.2-1.71,2.34-1.93,3.62A42.22,42.22,0,0,0,41.86,53q-.22,24.44-.45,48.87c0,2.21-.22,4.57,2.27,5.54C49.18,109.52,54.75,111.44,61.34,113.83ZM38.17,43l-2.26-.3c-4,11.41-6.24,23.32-9.34,35S20.11,101,18.09,113.79c6.31-2.23,11.59-4.11,16.88-6,2.86-1,3.41-3.13,3.43-5.89.11-18,.36-35.9.5-53.84A33.72,33.72,0,0,0,38.17,43ZM4.26,104.94c9.47,2.84,11.73,1.48,13.86-7C22,82.46,26,67.07,30,51.65c.7-2.77,1.11-5.62,1.69-8.6-3.76-.5-4.29,1.63-5.09,3.67-7,17.9-14,35.78-21,53.68C5,101.87,4.69,103.43,4.26,104.94ZM24.94,3.84C27,11.75,28.86,19,30.78,26.4h8.61c8,0,8.14,0,10.26-7.6,1.31-4.72,2.28-9.52,3.56-15ZM51.55,43.46,50,43.78a47.85,47.85,0,0,0,.6,5.51C52.24,56.74,54,64.17,55.7,71.61,58,81.79,60.29,92,62.78,102.14c.34,1.37,1.69,3.34,2.82,3.52,3,.48,6,.12,10.27.09C67.45,84.17,59.5,63.82,51.55,43.46ZM27.8,39H50.88c-2.19-9-3-9.52-15.14-9.25C30.91,29.85,29.2,31.76,27.8,39Zm-5.05-.37,4.95-8.49c-4.8-.82-6.8,1.87-9.42,4.26Zm37.07-3.31-.19-1.41c-2.33-1.66-4-4.77-8.72-3.3,1.64,2.47,2.78,4.81,4.55,6.49C55.93,37.54,58.31,36,59.82,35.32Z"/><path class="cls-1" d="M61.34,113.83c-6.59-2.39-12.16-4.31-17.66-6.45-2.49-1-2.29-3.33-2.27-5.54q.26-24.43.45-48.87A42.22,42.22,0,0,1,42,46.5c.22-1.28,1.26-2.42,1.93-3.62.9,1,2.34,1.89,2.62,3,2.56,10.64,4.91,21.34,7.35,32,2,8.73,4.08,17.43,6,26.18C60.56,107,60.78,109.89,61.34,113.83Z"/><path class="cls-1" d="M38.17,43a33.72,33.72,0,0,1,.73,5.06C38.76,66,38.51,84,38.4,101.94c0,2.76-.57,4.89-3.43,5.89-5.29,1.85-10.57,3.73-16.88,6,2-12.78,5.38-24.39,8.48-36.06s5.37-23.58,9.34-35Z"/><path class="cls-1" d="M4.26,104.94c.43-1.51.75-3.07,1.32-4.54,7-17.9,14-35.78,21-53.68.8-2,1.33-4.17,5.09-3.67-.58,3-1,5.83-1.69,8.6C26,67.07,22,82.46,18.12,97.89,16,106.42,13.73,107.78,4.26,104.94Z"/><path class="cls-1" d="M24.94,3.84H53.21c-1.28,5.44-2.25,10.24-3.56,15-2.12,7.62-2.21,7.6-10.26,7.6H30.78C28.86,19,27,11.75,24.94,3.84Z"/><path class="cls-1" d="M51.55,43.46c8,20.36,15.9,40.71,24.32,62.29-4.24,0-7.32.39-10.27-.09-1.13-.18-2.48-2.15-2.82-3.52C60.29,92,58,81.79,55.7,71.61c-1.7-7.44-3.46-14.87-5.09-22.32a47.85,47.85,0,0,1-.6-5.51Z"/><path class="cls-1" d="M27.8,39c1.4-7.24,3.11-9.15,7.94-9.25C47.85,29.48,48.69,30,50.88,39Z"/><path class="cls-1" d="M22.75,38.63,18.28,34.4C20.9,32,22.9,29.32,27.7,30.14Z"/><path class="cls-1" d="M59.82,35.32c-1.51.65-3.89,2.22-4.36,1.78-1.77-1.68-2.91-4-4.55-6.49,4.74-1.47,6.39,1.64,8.72,3.3Z"/></g></g></svg>