<svg xmlns="http://www.w3.org/2000/svg" viewBox="0 0 80.25 119.84"><defs><style>.cls-1{fill:#fff;stroke:#000;}</style></defs><title>Dominator_Black</title><g id="Слой_2" data-name="Слой 2"><g id="Слой_1-2" data-name="Слой 1"><path class="cls-1" d="M66.67,115.87c-2.81,1.91-5.52,1.79-8.56.61A108.91,108.91,0,0,0,44.4,112a16.7,16.7,0,0,0-8.19-.07c-7.15,2-14.14,4.62-22.1,7.29L13,109.89c-2,0-4.28-.16-6.48,0-5.64.47-7.13-1.32-5.11-6.44Q11,79,20.7,54.51c.67-1.7,1.19-3.46,1.76-5.19,1.57-4.8,1.24-5.94-2.59-9-7.1-5.71-7.11-5.73.23-10.85C22,28.12,24,27,26.76,25.34c-1-4.82-2.13-9.95-3.26-15.08-.18-.81-.49-1.58-.73-2.38-2-6.6-1.33-7.42,5.68-7.38,7.67,0,15.33,0,23,0,6,0,6.79,1,5.26,6.7-1.13,4.16-2.28,8.31-3.25,12.51a47,47,0,0,0-.65,5.67c3.8,2.46,7.26,4.68,10.71,6.93,2.29,1.49,2.17,3.13.21,4.81-.5.43-1.09.77-1.61,1.18-6.36,5-6.49,5.59-3.42,13.44q10.17,26,20.28,51.92c1.88,4.83.36,6.65-4.86,6.38-2.24-.11-4.49,0-6.93,0Zm-4.83-1.54c-.56-3.94-.78-6.87-1.4-9.71-1.92-8.75-4-17.45-6-26.18-2.44-10.67-4.79-21.37-7.35-32-.28-1.16-1.72-2-2.62-3-.67,1.2-1.71,2.34-1.93,3.62a42.22,42.22,0,0,0-.18,6.47q-.22,24.44-.45,48.87c0,2.21-.22,4.57,2.27,5.54C49.68,110,55.25,111.94,61.84,114.33ZM38.67,43.54l-2.26-.3c-4,11.41-6.24,23.32-9.34,35s-6.46,23.28-8.48,36.06c6.31-2.23,11.59-4.11,16.88-6,2.86-1,3.41-3.13,3.43-5.89.11-18,.36-35.9.5-53.84A33.72,33.72,0,0,0,38.67,43.54ZM4.76,105.44c9.47,2.84,11.73,1.48,13.86-7C22.47,83,26.54,67.57,30.47,52.15c.7-2.77,1.11-5.62,1.69-8.6-3.76-.5-4.29,1.63-5.09,3.67-7,17.9-14,35.78-21,53.68C5.51,102.37,5.19,103.93,4.76,105.44ZM25.44,4.34c2,7.91,3.92,15.16,5.84,22.56h8.61c8,0,8.14,0,10.26-7.6,1.31-4.72,2.28-9.52,3.56-15ZM52.05,44l-1.54.32a47.85,47.85,0,0,0,.6,5.51c1.63,7.45,3.39,14.88,5.09,22.32,2.34,10.18,4.59,20.38,7.08,30.53C63.62,104,65,106,66.1,106.16c3,.48,6,.12,10.27.09C68,84.67,60,64.32,52.05,44ZM28.3,39.5H51.38c-2.19-9-3-9.52-15.14-9.25C31.41,30.35,29.7,32.26,28.3,39.5Zm-5.05-.37,4.95-8.49c-4.8-.82-6.8,1.87-9.42,4.26Zm37.07-3.31-.19-1.41c-2.33-1.66-4-4.77-8.72-3.3,1.64,2.47,2.78,4.81,4.55,6.49C56.43,38,58.81,36.47,60.32,35.82Z"/><path d="M61.84,114.33c-6.59-2.39-12.16-4.31-17.66-6.45-2.49-1-2.29-3.33-2.27-5.54q.26-24.43.45-48.87A42.22,42.22,0,0,1,42.54,47c.22-1.28,1.26-2.42,1.93-3.62.9,1,2.34,1.89,2.62,3,2.56,10.64,4.91,21.34,7.35,32,2,8.73,4.08,17.43,6,26.18C61.06,107.46,61.28,110.39,61.84,114.33Z"/><path d="M38.67,43.54a33.72,33.72,0,0,1,.73,5.06c-.14,17.94-.39,35.89-.5,53.84,0,2.76-.57,4.89-3.43,5.89-5.29,1.85-10.57,3.73-16.88,6,2-12.78,5.38-24.39,8.48-36.06s5.37-23.58,9.34-35Z"/><path d="M4.76,105.44c.43-1.51.75-3.07,1.32-4.54,7-17.9,14-35.78,21-53.68.8-2,1.33-4.17,5.09-3.67-.58,3-1,5.83-1.69,8.6-3.93,15.42-8,30.81-11.85,46.24C16.49,106.92,14.23,108.28,4.76,105.44Z"/><path d="M25.44,4.34H53.71c-1.28,5.44-2.25,10.24-3.56,15-2.12,7.62-2.21,7.6-10.26,7.6H31.28C29.36,19.5,27.49,12.25,25.44,4.34Z"/><path d="M52.05,44C60,64.32,68,84.67,76.37,106.25c-4.24,0-7.32.39-10.27-.09C65,106,63.62,104,63.28,102.64c-2.49-10.15-4.74-20.35-7.08-30.53-1.7-7.44-3.46-14.87-5.09-22.32a47.85,47.85,0,0,1-.6-5.51Z"/><path d="M28.3,39.5c1.4-7.24,3.11-9.15,7.94-9.25,12.11-.27,12.95.22,15.14,9.25Z"/><path d="M23.25,39.13,18.78,34.9c2.62-2.39,4.62-5.08,9.42-4.26Z"/><path d="M60.32,35.82C58.81,36.47,56.43,38,56,37.6c-1.77-1.68-2.91-4-4.55-6.49,4.74-1.47,6.39,1.64,8.72,3.3Z"/></g></g></svg>