<svg xmlns="http://www.w3.org/2000/svg" viewBox="0 0 75.29 119.13"><defs><style>.cls-1{fill:#fff;stroke:#000;}</style></defs><title>Intellector_Black</title><g id="Слой_2" data-name="Слой 2"><g id="Слой_1-2" data-name="Слой 1"><path class="cls-1" d="M7.67,34l5.61,1.54c3.1-4.65,6-9.39,9.27-13.77,3.66-4.84,7-9.7,8.26-15.82.81-4,4.83-6.18,8.88-5.14,3.88,1,5.13,3.83,5.21,8.56,1.47,2.78,3,5.54,4.41,8.32a9.3,9.3,0,0,0,.74,1.76c4,4.83,8,9.62,12.48,15,4.89-1,4.87-.34,4.72,6-.17,7-5.2,10.29-8.67,14.94-1,1.38-1.79,3.91-1.24,5.36,3.85,10,8.17,19.85,12.17,29.82a147.66,147.66,0,0,1,5.22,15c.34,1.21-.74,3.61-1.87,4.31-8.33,5.17-16.64,10-27.31,8.59-7-.91-14.31-.33-21.44.06-9,.48-15.47-5.35-22.75-9-1-.48-1.12-4.27-.44-6.07q7.83-20.62,16.24-41c1.64-4,1.53-6.74-2-9.55C9.2,48.1,7.37,43.26,7.67,34ZM31.19,15.69l.15-.11-.3.18S31.17,15.72,31.19,15.69Zm22.44,98.58c-.24-2.38-.26-4.19-.61-5.94-2.86-14.53-5.86-29-8.62-43.58-.59-3.1-2-4.45-5-4.06s-7.08-1.83-8.1,3.85c-1.81,10-4.25,19.84-6.35,29.77-1.36,6.45-2.59,12.93-4,20Zm2-72c.29-.78,1.4-2.48,1.5-4.24.53-9.64-7.89-17.78-17.49-17.2a30.33,30.33,0,0,1-4.47-.08c-9-.79-18.54,9.4-17,18.35a9.36,9.36,0,0,0,1.63,3.21A110.64,110.64,0,0,1,55.62,42.28ZM17.5,114.38C21.35,96.24,25,78.94,28.78,61.26l-7.2-1.46L3.09,106.65Zm29.41-52.6c3.44,17.28,6.87,34.52,10.45,52.46,4.18-2.13,7.37-3.84,10.63-5.41,2.92-1.41,3.58-3.15,2.26-6.35-5.13-12.39-10.14-24.84-14.8-37.42C53.91,60.9,52.09,59.22,46.91,61.78Zm-33.47-20-1.52.81c.95,1.89,1.54,4.14,2.94,5.61a86.25,86.25,0,0,0,8.62,7.55c2.85,2.29,25.19,2.51,28.16.41a7.89,7.89,0,0,0,.76-.65,109.47,109.47,0,0,0,8.07-7.42c1.38-1.51,2-3.71,3.5-6.69C56.34,43.28,54,51,46.7,51.86l1.58-7.32H26.7l1.17,6.9-1.2,1.14ZM39.73,17.36l0-.35H35.37l.05.35Z"/><path d="M53.63,114.27H20.92c1.4-7,2.63-13.51,4-20,2.1-9.93,4.54-19.79,6.35-29.77,1-5.68,5-3.45,8.1-3.85s4.45,1,5,4.06C47.16,79.3,50.16,93.8,53,108.33,53.37,110.08,53.39,111.89,53.63,114.27Z"/><path d="M55.62,42.28a110.64,110.64,0,0,0-35.82,0,9.36,9.36,0,0,1-1.63-3.21c-1.55-8.95,8-19.14,17-18.35a30.33,30.33,0,0,0,4.47.08c9.6-.58,18,7.56,17.49,17.2C57,39.8,55.91,41.5,55.62,42.28Z"/><path d="M17.5,114.38,3.09,106.65,21.58,59.8l7.2,1.46C25,78.94,21.35,96.24,17.5,114.38Z"/><path d="M46.91,61.78c5.18-2.56,7-.88,8.54,3.28,4.66,12.58,9.67,25,14.8,37.42,1.32,3.2.66,4.94-2.26,6.35-3.26,1.57-6.45,3.28-10.63,5.41C53.78,96.3,50.35,79.06,46.91,61.78Z"/><path d="M13.44,41.74,26.67,52.58l1.2-1.14-1.17-6.9H48.28L46.7,51.86C54,51,56.34,43.28,64,41.36c-1.51,3-2.12,5.18-3.5,6.69a109.47,109.47,0,0,1-8.07,7.42,7.89,7.89,0,0,1-.76.65c-3,2.1-25.31,1.88-28.16-.41a86.25,86.25,0,0,1-8.62-7.55c-1.4-1.47-2-3.72-2.94-5.61Z"/><path d="M39.73,17.36H35.42L35.37,17h4.34Z"/><path d="M31.17,15.72l-.13,0Z"/><path d="M31,15.76l.3-.18a1.53,1.53,0,0,0-.16.13Z"/></g><g id="Слой_2-2" data-name="Слой 2"><circle cx="37.64" cy="7.28" r="3.23"/></g><g id="Слой_3" data-name="Слой 3"><path d="M45.53,15.65c0,1.14-3.54,2.07-7.9,2.07s-9-1.76-7.91-2.07c3-.88,3.2.76,7.56.76S45.53,14.5,45.53,15.65Z"/></g></g></svg>