<svg xmlns="http://www.w3.org/2000/svg" viewBox="0 0 74.29 118.13"><defs><style>.cls-1{fill:#fff;}</style></defs><title>Intellector_White</title><g id="Слой_2" data-name="Слой 2"><g id="Слой_1-2" data-name="Слой 1"><path d="M7.17,33.45L12.78,35C15.879999999999999,30.35,18.78,25.61,22.049999999999997,21.23C25.709999999999997,16.39,29.049999999999997,11.530000000000001,30.309999999999995,5.41C31.119999999999994,1.4100000000000001,35.13999999999999,-0.7699999999999996,39.19,0.27000000000000046C43.07,1.2700000000000005,44.32,4.1000000000000005,44.4,8.830000000000002C45.87,11.610000000000001,47.4,14.370000000000001,48.81,17.150000000000002A9.3,9.3,0,0,0,49.550000000000004,18.910000000000004C53.550000000000004,23.740000000000002,57.550000000000004,28.53,62.03,33.910000000000004C66.92,32.910000000000004,66.9,33.57,66.75,39.910000000000004C66.58,46.910000000000004,61.55,50.2,58.08,54.85C57.08,56.230000000000004,56.29,58.760000000000005,56.839999999999996,60.21C60.69,70.2,65,80,69,90A147.66,147.66,0,0,1,74.22,105C74.56,106.21,73.48,108.61,72.35,109.31C64.02,114.48,55.709999999999994,119.31,45.03999999999999,117.9C38.03999999999999,116.99000000000001,30.72999999999999,117.57000000000001,23.59999999999999,117.96000000000001C14.59999999999999,118.44000000000001,8.12999999999999,112.61000000000001,0.8499999999999908,108.96000000000001C-0.15000000000000924,108.48,-0.27000000000000934,104.69000000000001,0.40999999999999076,102.89000000000001Q8.239999999999991,82.27000000000001,16.649999999999988,61.890000000000015C18.28999999999999,57.890000000000015,18.17999999999999,55.15000000000001,14.649999999999988,52.34000000000002C8.7,47.6,6.87,42.76,7.17,33.45ZM30.69,15.19L30.84,15.08L30.54,15.26S30.67,15.22,30.69,15.19ZM53.13,113.77C52.89,111.39,52.870000000000005,109.58,52.52,107.83C49.660000000000004,93.3,46.660000000000004,78.83,43.900000000000006,64.25C43.31,61.15,41.900000000000006,59.8,38.900000000000006,60.19S31.820000000000007,58.36,30.800000000000004,64.03999999999999C29,74,26.51,83.88,24.41,93.81C23.05,100.26,21.82,106.74000000000001,20.41,113.81ZM55.13,41.769999999999996C55.42,40.989999999999995,56.53,39.29,56.63,37.529999999999994C57.160000000000004,27.889999999999993,48.74,19.749999999999993,39.14,20.329999999999995A30.33,30.33,0,0,1,34.67,20.249999999999996C25.67,19.459999999999997,16.130000000000003,29.65,17.67,38.599999999999994A9.36,9.36,0,0,0,19.3,41.809999999999995A110.64,110.64,0,0,1,55.12,41.78ZM17,113.88C20.85,95.74,24.53,78.44,28.28,60.76L21.080000000000002,59.3L2.59,106.15ZM46.41,61.279999999999994C49.849999999999994,78.56,53.279999999999994,95.8,56.86,113.74C61.04,111.61,64.23,109.89999999999999,67.49,108.33C70.41,106.92,71.07,105.17999999999999,69.75,101.98C64.62,89.59,59.61,77.14,55,64.56C53.41,60.4,51.59,58.72,46.41,61.28ZM12.939999999999998,41.279999999999994L11.419999999999998,42.089999999999996C12.369999999999997,43.98,12.959999999999997,46.23,14.359999999999998,47.699999999999996A86.25,86.25,0,0,0,23,55.21C25.85,57.5,48.19,57.72,51.16,55.62A7.89,7.89,0,0,0,51.9,55A109.47,109.47,0,0,0,60,47.55C61.38,46.04,62,43.839999999999996,63.5,40.86C55.87,42.78,53.5,50.54,46.230000000000004,51.36L47.78,44H26.2L27.369999999999997,50.9L26.169999999999998,52.04ZM39.23,16.86L39.23,16.509999999999998H34.87L34.919999999999995,16.86Z"/><path d="M53.13,113.77H20.42C21.82,106.77,23.05,100.25999999999999,24.42,93.77C26.51,83.88,29,74,30.76,64C31.76,58.32,35.760000000000005,60.55,38.86,60.15S43.31,61.15,43.86,64.21C46.62,78.75999999999999,49.62,93.25999999999999,52.48,107.78999999999999C52.87,109.58,52.89,111.39,53.13,113.77Z" fill="#fff" /><path d="M55.12,41.78A110.64,110.64,0,0,0,19.299999999999997,41.78A9.36,9.36,0,0,1,17.669999999999998,38.57C16.119999999999997,29.62,25.669999999999998,19.43,34.67,20.22A30.33,30.33,0,0,0,39.14,20.299999999999997C48.74,19.72,57.14,27.859999999999996,56.629999999999995,37.5C56.52,39.3,55.41,41,55.12,41.78Z" fill="#fff" /><path d="M17,113.88L2.59,106.15L21.08,59.3L28.279999999999998,60.76C24.53,78.44,20.85,95.74,17,113.88Z" fill="#fff" /><path d="M46.41,61.28C51.589999999999996,58.72,53.41,60.4,54.949999999999996,64.56C59.61,77.14,64.61999999999999,89.56,69.75,101.98C71.07,105.18,70.41,106.92,67.49,108.33C64.22999999999999,109.89999999999999,61.03999999999999,111.61,56.85999999999999,113.74C53.28,95.8,49.85,78.56,46.41,61.28Z" fill="#fff" /><path d="M12.94,41.24L26.17,52.08L27.37,50.94L26.2,44H47.78L46.2,51.36C53.49,50.54,55.84,42.78,63.47,40.86C62,43.84,61.35,46,60,47.55A109.47,109.47,0,0,1,51.9,55A7.89,7.89,0,0,1,51.14,55.65C48.14,57.75,25.830000000000002,57.53,22.98,55.24A86.25,86.25,0,0,1,14.360000000000001,47.690000000000005C12.96,46.220000000000006,12.360000000000001,43.970000000000006,11.420000000000002,42.080000000000005Z" fill="#fff" /><path d="M39.23,16.86H34.92L34.870000000000005,16.509999999999998H39.21000000000001Z" fill="#fff" /><path d="M30.67,15.22L30.540000000000003,15.22Z" fill="#fff" /><path d="M30.54,15.26L30.84,15.08A1.53,1.53,0,0,0,30.68,15.21Z" fill="#fff" /></g><g id="Слой_2-2" data-name="Слой 2"><circle cx="37.14" cy="6.78" r="3.23" fill="#fff" /></g><g id="Слой_3" data-name="Слой 3"><path d="M45,15.15C45,16.29,41.46,17.22,37.1,17.22S28.1,15.459999999999999,29.19,15.149999999999999C32.19,14.269999999999998,32.39,15.909999999999998,36.75,15.909999999999998S45,14,45,15.15Z" fill="#fff" /></g></g></svg>