<svg xmlns="http://www.w3.org/2000/svg" viewBox="0 0 74.29 118.13"><defs><style>.cls-1{fill:#fff;}</style></defs><title>Intellector_White</title><g id="Слой_2" data-name="Слой 2"><g id="Слой_1-2" data-name="Слой 1"><path d="M7.17,33.45,12.78,35c3.1-4.65,6-9.39,9.27-13.77,3.66-4.84,7-9.7,8.26-15.82.81-4,4.83-6.18,8.88-5.14,3.88,1,5.13,3.83,5.21,8.56,1.47,2.78,3,5.54,4.41,8.32a9.3,9.3,0,0,0,.74,1.76c4,4.83,8,9.62,12.48,15,4.89-1,4.87-.34,4.72,6-.17,7-5.2,10.29-8.67,14.94-1,1.38-1.79,3.91-1.24,5.36C60.69,70.2,65,80,69,90a147.66,147.66,0,0,1,5.22,15c.34,1.21-.74,3.61-1.87,4.31-8.33,5.17-16.64,10-27.31,8.59-7-.91-14.31-.33-21.44.06-9,.48-15.47-5.35-22.75-9-1-.48-1.12-4.27-.44-6.07q7.83-20.62,16.24-41c1.64-4,1.53-6.74-2-9.55C8.7,47.6,6.87,42.76,7.17,33.45ZM30.69,15.19l.15-.11-.3.18S30.67,15.22,30.69,15.19Zm22.44,98.58c-.24-2.38-.26-4.19-.61-5.94-2.86-14.53-5.86-29-8.62-43.58-.59-3.1-2-4.45-5-4.06s-7.08-1.83-8.1,3.85C29,74,26.51,83.88,24.41,93.81c-1.36,6.45-2.59,12.93-4,20Zm2-72c.29-.78,1.4-2.48,1.5-4.24.53-9.64-7.89-17.78-17.49-17.2a30.33,30.33,0,0,1-4.47-.08c-9-.79-18.54,9.4-17,18.35a9.36,9.36,0,0,0,1.63,3.21A110.64,110.64,0,0,1,55.12,41.78ZM17,113.88c3.85-18.14,7.53-35.44,11.28-53.12l-7.2-1.46L2.59,106.15Zm29.41-52.6c3.44,17.28,6.87,34.52,10.45,52.46,4.18-2.13,7.37-3.84,10.63-5.41,2.92-1.41,3.58-3.15,2.26-6.35C64.62,89.59,59.61,77.14,55,64.56,53.41,60.4,51.59,58.72,46.41,61.28Zm-33.47-20-1.52.81c.95,1.89,1.54,4.14,2.94,5.61A86.25,86.25,0,0,0,23,55.21c2.85,2.29,25.19,2.51,28.16.41A7.89,7.89,0,0,0,51.9,55,109.47,109.47,0,0,0,60,47.55c1.38-1.51,2-3.71,3.5-6.69-7.63,1.92-10,9.68-17.27,10.5L47.78,44H26.2l1.17,6.9-1.2,1.14ZM39.23,16.86l0-.35H34.87l.05.35Z"/><path class="cls-1" d="M53.13,113.77H20.42c1.4-7,2.63-13.51,4-20C26.51,83.88,29,74,30.76,64c1-5.68,5-3.45,8.1-3.85s4.45,1,5,4.06c2.76,14.55,5.76,29.05,8.62,43.58C52.87,109.58,52.89,111.39,53.13,113.77Z"/><path class="cls-1" d="M55.12,41.78a110.64,110.64,0,0,0-35.82,0,9.36,9.36,0,0,1-1.63-3.21c-1.55-8.95,8-19.14,17-18.35a30.33,30.33,0,0,0,4.47.08c9.6-.58,18,7.56,17.49,17.2C56.52,39.3,55.41,41,55.12,41.78Z"/><path class="cls-1" d="M17,113.88,2.59,106.15,21.08,59.3l7.2,1.46C24.53,78.44,20.85,95.74,17,113.88Z"/><path class="cls-1" d="M46.41,61.28c5.18-2.56,7-.88,8.54,3.28,4.66,12.58,9.67,25,14.8,37.42,1.32,3.2.66,4.94-2.26,6.35-3.26,1.57-6.45,3.28-10.63,5.41C53.28,95.8,49.85,78.56,46.41,61.28Z"/><path class="cls-1" d="M12.94,41.24,26.17,52.08l1.2-1.14L26.2,44H47.78L46.2,51.36c7.29-.82,9.64-8.58,17.27-10.5C62,43.84,61.35,46,60,47.55A109.47,109.47,0,0,1,51.9,55a7.89,7.89,0,0,1-.76.65c-3,2.1-25.31,1.88-28.16-.41a86.25,86.25,0,0,1-8.62-7.55c-1.4-1.47-2-3.72-2.94-5.61Z"/><path class="cls-1" d="M39.23,16.86H34.92l-.05-.35h4.34Z"/><path class="cls-1" d="M30.67,15.22l-.13,0Z"/><path class="cls-1" d="M30.54,15.26l.3-.18a1.53,1.53,0,0,0-.16.13Z"/></g><g id="Слой_2-2" data-name="Слой 2"><circle class="cls-1" cx="37.14" cy="6.78" r="3.23"/></g><g id="Слой_3" data-name="Слой 3"><path class="cls-1" d="M45,15.15c0,1.14-3.54,2.07-7.9,2.07s-9-1.76-7.91-2.07c3-.88,3.2.76,7.56.76S45,14,45,15.15Z"/></g></g></svg>