<svg xmlns="http://www.w3.org/2000/svg" viewBox="0 0 77.57 97.02"><defs><style>.cls-1{fill:#fff;}</style></defs><title>Liberator_White</title><g id="Слой_2" data-name="Слой 2"><g id="Слой_1-2" data-name="Слой 1"><path d="M25.57,0h6c2.3.27,4.59.73,6.89.79,8.49.22,17,.27,25.46.46,4.27.09,4.43.33,4.43,4.61,0,3.17-.37,6.38,0,9.48,1,7.28-.89,13-7.69,16.62a4.65,4.65,0,0,0-2.35,5.95C59.78,42.48,61.45,47,63,51.52c1,2.87,3,3.5,5.83,3.54s5.85.61,8.78.94V74c-4.83,6.74-9.71,13.45-14.46,20.24A5.89,5.89,0,0,1,57.32,97C39.87,96.16,22.41,95.52,5,94.76c-4-.17-4.77-1.07-4.72-5.25,0-3,.6-6.1,0-9-1-4.66,1.21-7.34,4.33-10.19,5.76-5.26,11.72-10.5,12.7-19,.32-2.79,1.05-5.54,1.53-8.32.77-4.52,0-5.42-4.79-5.71-1.16-.07-2.32-.27-3.48-.27-2.69,0-3.86-1.16-3.8-4,.13-6.16.1-12.32,0-18.48A5.12,5.12,0,0,1,9.81,9.48C15.17,6.5,20.33,3.18,25.57,0ZM53.93,69.38c-2.15-10.25-4-19.64-6.24-29-.23-1-2.37-2.07-3.7-2.17-5.8-.45-11.62-.44-17.42-.82-2.78-.18-3.64,1-4.22,3.56-1.64,7.44-3.67,14.79-5.55,22.17-.31,1.23-.65,2.46-1.17,4.44C28.69,69.24,41.29,69,53.93,69.38ZM50.18,35.05c.07-5.57.07-10.67.25-15.77.1-3-1.14-4.1-4.12-4.19-10.49-.33-21-.89-31.46-1.31-1.43-.06-2.87.15-4.92.28,0,5.52.1,10.65,0,15.77C9.8,32.86,11,33.91,14,34c9.83.24,19.65.71,29.47,1.06C45.43,35.12,47.4,35.05,50.18,35.05Zm8.21,45a30.7,30.7,0,0,0-3.14-.49q-21.66-.9-43.32-1.74c-9.9-.37-8.6-.44-8.62,8.36,0,5.32.2,5.53,5.63,5.77q21.17.93,42.33,1.77c1.32,0,2.65,0,4,.08,2,.06,3.13-.86,3.14-2.94C58.4,87.37,58.39,83.9,58.39,80ZM17.14,9.11l.24,1.24c9.59.48,19.2.73,28.77,1.51,5.88.48,9.49-2.46,13.52-7.14-2.39-.27-4-.55-5.55-.61-7.31-.28-14.65-.17-21.92-.83C25.94,2.71,21.54,5.68,17.14,9.11ZM7,74.07c16.93.71,33.19,1.41,49.45,2a4.3,4.3,0,0,0,3.15-1c4-5.16,7.85-10.46,11.75-15.72l-1-1.27c-1.16.62-2.72,1-3.42,1.91-2.52,3.46-4.59,7.25-7.17,10.66a5.71,5.71,0,0,1-4.12,2.07C41,72,26.4,71.22,11.83,70.19,9,70,7.89,71,7,74.07ZM54.05,31.55C64.34,28.69,68.89,17,63.68,7.27a76.58,76.58,0,0,0-6.72,5c-1.25,1.16-2.67,2.85-2.78,4.39C53.82,21.54,54.05,26.47,54.05,31.55Zm3.44,34.69c5.26-3.33,6.1-5.17,4.55-9-2.16-5.38-4.26-10.79-6.53-16.12-.44-1-1.57-1.78-2.38-2.65-.61,1.15-1.85,2.38-1.72,3.46A94.93,94.93,0,0,0,57.49,66.24Zm16.34-2.38a17.88,17.88,0,0,0-3,2.41c-2.63,3.4-5.28,6.8-7.66,10.37s-1.42,7.7-.43,11.71c3.21-3.58,5.72-7.47,8.74-10.92C75,73.44,74.48,69.1,73.83,63.86Z"/><path class="cls-1" d="M53.93,69.38c-12.64-.36-25.24-.14-38.3-1.78.52-2,.86-3.21,1.17-4.44,1.88-7.38,3.91-14.73,5.55-22.17.58-2.6,1.44-3.74,4.22-3.56,5.8.38,11.62.37,17.42.82,1.33.1,3.47,1.18,3.7,2.17C49.9,49.74,51.78,59.13,53.93,69.38Z"/><path class="cls-1" d="M50.18,35.05c-2.78,0-4.75.07-6.72,0C33.64,34.69,23.82,34.22,14,34c-3-.07-4.19-1.12-4.1-4.15.14-5.12,0-10.25,0-15.77,2.05-.13,3.49-.34,4.92-.28,10.49.42,21,1,31.46,1.31,3,.09,4.22,1.2,4.12,4.19C50.25,24.38,50.25,29.48,50.18,35.05Z"/><path class="cls-1" d="M58.39,80c0,3.88,0,7.35,0,10.81,0,2.08-1.1,3-3.14,2.94-1.33,0-2.66,0-4-.08Q30.1,92.82,8.94,91.92c-5.43-.24-5.64-.45-5.63-5.77,0-8.8-1.28-8.73,8.62-8.36q21.66.81,43.32,1.74A30.7,30.7,0,0,1,58.39,80Z"/><path class="cls-1" d="M17.14,9.11c4.4-3.43,8.8-6.4,15.06-5.83,7.27.66,14.61.55,21.92.83,1.59.06,3.16.34,5.55.61-4,4.68-7.64,7.62-13.52,7.14-9.57-.78-19.18-1-28.77-1.51Z"/><path class="cls-1" d="M7,74.07C7.89,71,9,70,11.83,70.19,26.4,71.22,41,72,55.6,72.71a5.71,5.71,0,0,0,4.12-2.07c2.58-3.41,4.65-7.2,7.17-10.66.7-1,2.26-1.29,3.42-1.91l1,1.27c-3.9,5.26-7.73,10.56-11.75,15.72a4.3,4.3,0,0,1-3.15,1C40.15,75.48,23.89,74.78,7,74.07Z"/><path class="cls-1" d="M54.05,31.55c0-5.08-.23-10,.13-14.89.11-1.54,1.53-3.23,2.78-4.39a76.58,76.58,0,0,1,6.72-5C68.89,17,64.34,28.69,54.05,31.55Z"/><path class="cls-1" d="M57.49,66.24A94.93,94.93,0,0,1,51.41,41.9c-.13-1.08,1.11-2.31,1.72-3.46.81.87,1.94,1.62,2.38,2.65,2.27,5.33,4.37,10.74,6.53,16.12C63.59,61.07,62.75,62.91,57.49,66.24Z"/><path class="cls-1" d="M73.83,63.86c.65,5.24,1.14,9.58-2.35,13.57-3,3.45-5.53,7.34-8.74,10.92-1-4-2.07-8,.43-11.71s5-7,7.66-10.37A17.88,17.88,0,0,1,73.83,63.86Z"/></g></g></svg>