<svg xmlns="http://www.w3.org/2000/svg" viewBox="0 0 77.57 97.02"><defs><style>.cls-1{fill:#fff;}</style></defs><title>Liberator_White</title><g id="Слой_2" data-name="Слой 2"><g id="Слой_1-2" data-name="Слой 1"><path d="M25.57,0H31.57C33.87,0.27,36.16,0.73,38.46,0.79C46.95,1.01,55.46,1.06,63.92,1.25C68.19,1.34,68.35,1.58,68.35,5.86C68.35,9.030000000000001,67.97999999999999,12.24,68.35,15.34C69.35,22.62,67.46,28.34,60.66,31.96A4.65,4.65,0,0,0,58.309999999999995,37.910000000000004C59.78,42.48,61.45,47,63,51.52C64,54.39,66,55.02,68.83,55.06S74.67999999999999,55.67,77.61,56V74C72.78,80.74,67.9,87.45,63.15,94.24A5.89,5.89,0,0,1,57.32,97C39.87,96.16,22.41,95.52,5,94.76C1,94.59,0.23000000000000043,93.69000000000001,0.28000000000000025,89.51C0.28000000000000025,86.51,0.8800000000000002,83.41000000000001,0.28000000000000025,80.51C-0.7199999999999998,75.85000000000001,1.4900000000000002,73.17,4.61,70.32000000000001C10.370000000000001,65.06,16.330000000000002,59.82000000000001,17.31,51.32000000000001C17.63,48.53000000000001,18.36,45.78000000000001,18.84,43.00000000000001C19.61,38.480000000000004,18.84,37.580000000000005,14.05,37.290000000000006C12.89,37.220000000000006,11.73,37.02,10.57,37.02C7.880000000000001,37.02,6.710000000000001,35.86000000000001,6.7700000000000005,33.02C6.9,26.860000000000003,6.87,20.700000000000003,6.7700000000000005,14.540000000000003A5.12,5.12,0,0,1,9.81,9.48C15.17,6.5,20.33,3.18,25.57,0ZM53.93,69.38C51.78,59.129999999999995,49.93,49.739999999999995,47.69,40.379999999999995C47.46,39.379999999999995,45.32,38.309999999999995,43.989999999999995,38.209999999999994C38.19,37.75999999999999,32.37,37.769999999999996,26.569999999999993,37.38999999999999C23.789999999999992,37.209999999999994,22.929999999999993,38.38999999999999,22.349999999999994,40.949999999999996C20.709999999999994,48.38999999999999,18.679999999999993,55.739999999999995,16.799999999999994,63.12C16.489999999999995,64.35,16.149999999999995,65.58,15.629999999999994,67.56C28.69,69.24,41.29,69,53.93,69.38ZM50.18,35.05C50.25,29.479999999999997,50.25,24.379999999999995,50.43,19.279999999999998C50.53,16.279999999999998,49.29,15.179999999999998,46.31,15.089999999999996C35.82,14.759999999999996,25.310000000000002,14.199999999999996,14.850000000000001,13.779999999999996C13.420000000000002,13.719999999999995,11.98,13.929999999999996,9.930000000000001,14.059999999999995C9.930000000000001,19.579999999999995,10.030000000000001,24.709999999999994,9.930000000000001,29.829999999999995C9.8,32.86,11,33.91,14,34C23.83,34.24,33.65,34.71,43.47,35.06C45.43,35.12,47.4,35.05,50.18,35.05ZM58.39,80.05A30.7,30.7,0,0,0,55.25,79.56Q33.59,78.66,11.93,77.82000000000001C2.0299999999999994,77.45,3.33,77.38000000000001,3.3100000000000005,86.18C3.3100000000000005,91.5,3.5100000000000007,91.71000000000001,8.940000000000001,91.95Q30.110000000000003,92.88000000000001,51.269999999999996,93.72C52.589999999999996,93.72,53.919999999999995,93.72,55.269999999999996,93.8C57.269999999999996,93.86,58.4,92.94,58.41,90.86C58.4,87.37,58.39,83.9,58.39,80ZM17.14,9.11L17.38,10.35C26.97,10.83,36.58,11.08,46.15,11.86C52.03,12.34,55.64,9.399999999999999,59.67,4.72C57.28,4.449999999999999,55.67,4.17,54.120000000000005,4.109999999999999C46.81,3.829999999999999,39.470000000000006,3.9399999999999995,32.2,3.2799999999999994C25.94,2.71,21.54,5.68,17.14,9.11ZM7,74.07C23.93,74.77999999999999,40.19,75.47999999999999,56.45,76.07A4.3,4.3,0,0,0,59.6,75.07C63.6,69.91,67.45,64.60999999999999,71.35,59.349999999999994L70.35,58.07999999999999C69.19,58.69999999999999,67.63,59.07999999999999,66.92999999999999,59.98999999999999C64.41,63.44999999999999,62.33999999999999,67.23999999999998,59.75999999999999,70.64999999999999A5.71,5.71,0,0,1,55.63999999999999,72.71999999999998C41,72,26.4,71.22,11.83,70.19C9,70,7.89,71,7,74.07ZM54.05,31.55C64.34,28.69,68.89,17,63.68,7.27A76.58,76.58,0,0,0,56.96,12.27C55.71,13.43,54.29,15.12,54.18,16.66C53.82,21.54,54.05,26.47,54.05,31.55ZM57.489999999999995,66.24C62.74999999999999,62.91,63.589999999999996,61.06999999999999,62.03999999999999,57.239999999999995C59.879999999999995,51.85999999999999,57.779999999999994,46.449999999999996,55.50999999999999,41.11999999999999C55.06999999999999,40.11999999999999,53.93999999999999,39.33999999999999,53.12999999999999,38.46999999999999C52.51999999999999,39.61999999999999,51.27999999999999,40.849999999999994,51.40999999999999,41.92999999999999A94.93,94.93,0,0,0,57.49,66.24ZM73.83,63.85999999999999A17.88,17.88,0,0,0,70.83,66.27C68.2,69.67,65.55,73.07,63.17,76.64S61.75,84.34,62.74,88.35C65.95,84.77,68.46000000000001,80.88,71.48,77.42999999999999C75,73.44,74.48,69.1,73.83,63.86Z"/><path d="M53.93,69.38C41.29,69.02,28.69,69.24,15.630000000000003,67.6C16.150000000000002,65.6,16.490000000000002,64.39,16.800000000000004,63.16C18.680000000000003,55.779999999999994,20.710000000000004,48.42999999999999,22.350000000000005,40.989999999999995C22.930000000000003,38.38999999999999,23.790000000000006,37.24999999999999,26.570000000000004,37.42999999999999C32.370000000000005,37.809999999999995,38.190000000000005,37.79999999999999,43.99000000000001,38.24999999999999C45.32000000000001,38.349999999999994,47.46000000000001,39.42999999999999,47.69000000000001,40.419999999999995C49.9,49.74,51.78,59.13,53.93,69.38Z" fill="#fff" /><path d="M50.18,35.05C47.4,35.05,45.43,35.12,43.46,35.05C33.64,34.69,23.82,34.22,14,34C11,33.93,9.809999999999999,32.88,9.9,29.85C10.040000000000001,24.73,9.9,19.6,9.9,14.080000000000002C11.95,13.950000000000001,13.39,13.740000000000002,14.82,13.800000000000002C25.310000000000002,14.220000000000002,35.82,14.800000000000002,46.28,15.110000000000003C49.28,15.200000000000003,50.5,16.310000000000002,50.4,19.300000000000004C50.25,24.38,50.25,29.48,50.18,35.05Z" fill="#fff" /><path d="M58.39,80C58.39,83.88,58.39,87.35,58.39,90.81C58.39,92.89,57.29,93.81,55.25,93.75C53.92,93.75,52.59,93.75,51.25,93.67Q30.1,92.82,8.94,91.92C3.51,91.68,3.3,91.47,3.3099999999999996,86.15C3.3099999999999996,77.35000000000001,2.0299999999999994,77.42,11.93,77.79Q33.59,78.60000000000001,55.25,79.53A30.7,30.7,0,0,1,58.39,80Z" fill="#fff" /><path d="M17.14,9.11C21.54,5.68,25.94,2.709999999999999,32.2,3.2799999999999994C39.47,3.9399999999999995,46.81,3.829999999999999,54.120000000000005,4.109999999999999C55.71000000000001,4.169999999999999,57.28,4.449999999999999,59.67,4.72C55.67,9.399999999999999,52.03,12.34,46.150000000000006,11.86C36.580000000000005,11.08,26.970000000000006,10.86,17.380000000000006,10.35Z" fill="#fff" /><path d="M7,74.07C7.89,71,9,70,11.83,70.19C26.4,71.22,41,72,55.6,72.71A5.71,5.71,0,0,0,59.72,70.64C62.3,67.23,64.37,63.44,66.89,59.980000000000004C67.59,58.980000000000004,69.15,58.690000000000005,70.31,58.07000000000001L71.31,59.34000000000001C67.41,64.60000000000001,63.58,69.9,59.56,75.06000000000002A4.3,4.3,0,0,1,56.410000000000004,76.06000000000002C40.15,75.48,23.89,74.78,7,74.07Z" fill="#fff" /><path d="M54.05,31.55C54.05,26.47,53.82,21.55,54.18,16.66C54.29,15.120000000000001,55.71,13.43,56.96,12.27A76.58,76.58,0,0,1,63.68,7.27C68.89,17,64.34,28.69,54.05,31.55Z" fill="#fff" /><path d="M57.49,66.24A94.93,94.93,0,0,1,51.41,41.9C51.279999999999994,40.82,52.519999999999996,39.589999999999996,53.129999999999995,38.44C53.94,39.309999999999995,55.06999999999999,40.059999999999995,55.51,41.089999999999996C57.78,46.419999999999995,59.879999999999995,51.83,62.04,57.209999999999994C63.59,61.07,62.75,62.91,57.49,66.24Z" fill="#fff" /><path d="M73.83,63.86C74.48,69.1,74.97,73.44,71.48,77.43C68.48,80.88000000000001,65.95,84.77000000000001,62.74,88.35000000000001C61.74,84.35000000000001,60.67,80.35000000000001,63.17,76.64000000000001S68.17,69.64000000000001,70.83,66.27000000000001A17.88,17.88,0,0,1,73.83,63.86Z" fill="#fff" /></g></g></svg>