<svg xmlns="http://www.w3.org/2000/svg" viewBox="0 0 78.57 98.02"><defs><style>.cls-1{fill:#fff;stroke:#000;}</style></defs><title>Liberator_Black</title><g id="Слой_2" data-name="Слой 2"><g id="Слой_1-2" data-name="Слой 1"><path class="cls-1" d="M26.07.5h6c2.3.27,4.59.73,6.89.79,8.49.22,17,.27,25.46.46,4.27.09,4.43.33,4.43,4.61,0,3.17-.37,6.38,0,9.48,1,7.28-.89,13-7.69,16.62a4.65,4.65,0,0,0-2.35,5.95C60.28,43,62,47.47,63.46,52c1,2.87,3,3.5,5.83,3.54s5.85.61,8.78.94v18C73.24,81.24,68.36,88,63.61,94.74a5.89,5.89,0,0,1-5.79,2.77C40.37,96.66,22.91,96,5.46,95.26,1.42,95.09.69,94.19.74,90c0-3,.6-6.1,0-9-1-4.66,1.21-7.34,4.33-10.19,5.76-5.26,11.72-10.5,12.7-19,.32-2.79,1.05-5.54,1.53-8.32.77-4.52,0-5.42-4.79-5.71-1.16-.07-2.32-.27-3.48-.27-2.69,0-3.86-1.16-3.8-4,.13-6.16.1-12.32,0-18.48A5.12,5.12,0,0,1,10.31,10C15.67,7,20.83,3.68,26.07.5ZM54.43,69.88c-2.15-10.25-4-19.64-6.24-29-.23-1-2.37-2.07-3.7-2.17-5.8-.45-11.62-.44-17.42-.82-2.78-.18-3.64,1-4.22,3.56-1.64,7.44-3.67,14.79-5.55,22.17-.31,1.23-.65,2.46-1.17,4.44C29.19,69.74,41.79,69.52,54.43,69.88ZM50.68,35.55c.07-5.57.07-10.67.25-15.77.1-3-1.14-4.1-4.12-4.19-10.49-.33-21-.89-31.46-1.31-1.43-.06-2.87.15-4.92.28,0,5.52.1,10.65,0,15.77-.09,3,1.13,4.08,4.1,4.15,9.83.24,19.65.71,29.47,1.06C45.93,35.62,47.9,35.55,50.68,35.55Zm8.21,45A30.7,30.7,0,0,0,55.75,80q-21.66-.9-43.32-1.74c-9.9-.37-8.6-.44-8.62,8.36,0,5.32.2,5.53,5.63,5.77q21.17.93,42.33,1.77c1.32,0,2.65,0,4,.08,2,.06,3.13-.86,3.14-2.94C58.9,87.87,58.89,84.4,58.89,80.52ZM17.64,9.61l.24,1.24c9.59.48,19.2.73,28.77,1.51,5.88.48,9.49-2.46,13.52-7.14-2.39-.27-4-.55-5.55-.61C47.31,4.33,40,4.44,32.7,3.78,26.44,3.21,22,6.18,17.64,9.61Zm-10.18,65c16.93.71,33.19,1.41,49.45,2a4.3,4.3,0,0,0,3.15-1c4-5.16,7.85-10.46,11.75-15.72l-1-1.27c-1.16.62-2.72,1-3.42,1.91-2.52,3.46-4.59,7.25-7.17,10.66a5.71,5.71,0,0,1-4.12,2.07c-14.6-.68-29.2-1.49-43.77-2.52C9.51,70.49,8.39,71.48,7.46,74.57ZM54.55,32.05c10.29-2.86,14.84-14.56,9.63-24.28a76.58,76.58,0,0,0-6.72,5c-1.25,1.16-2.67,2.85-2.78,4.39C54.32,22,54.55,27,54.55,32.05ZM58,66.74c5.26-3.33,6.1-5.17,4.55-9C60.38,52.33,58.28,46.92,56,41.59c-.44-1-1.57-1.78-2.38-2.65-.61,1.15-1.85,2.38-1.72,3.46A94.93,94.93,0,0,0,58,66.74Zm16.34-2.38a17.88,17.88,0,0,0-3,2.41c-2.63,3.4-5.28,6.8-7.66,10.37s-1.42,7.7-.43,11.71C66.45,85.27,69,81.38,72,77.93,75.47,73.94,75,69.6,74.33,64.36Z"/><path d="M54.43,69.88c-12.64-.36-25.24-.14-38.3-1.78.52-2,.86-3.21,1.17-4.44,1.88-7.38,3.91-14.73,5.55-22.17.58-2.6,1.44-3.74,4.22-3.56,5.8.38,11.62.37,17.42.82,1.33.1,3.47,1.18,3.7,2.17C50.4,50.24,52.28,59.63,54.43,69.88Z"/><path d="M50.68,35.55c-2.78,0-4.75.07-6.72,0-9.82-.35-19.64-.82-29.47-1.06-3-.07-4.19-1.12-4.1-4.15.14-5.12,0-10.25,0-15.77,2.05-.13,3.49-.34,4.92-.28,10.49.42,21,1,31.46,1.31,3,.09,4.22,1.2,4.12,4.19C50.75,24.88,50.75,30,50.68,35.55Z"/><path d="M58.89,80.52c0,3.88,0,7.35,0,10.81,0,2.08-1.1,3-3.14,2.94-1.33,0-2.66,0-4-.08Q30.6,93.32,9.44,92.42C4,92.18,3.8,92,3.81,86.65c0-8.8-1.28-8.73,8.62-8.36Q34.09,79.1,55.75,80A30.7,30.7,0,0,1,58.89,80.52Z"/><path d="M17.64,9.61c4.4-3.43,8.8-6.4,15.06-5.83,7.27.66,14.61.55,21.92.83,1.59.06,3.16.34,5.55.61-4,4.68-7.64,7.62-13.52,7.14-9.57-.78-19.18-1-28.77-1.51Z"/><path d="M7.46,74.57c.93-3.09,2.05-4.08,4.87-3.88,14.57,1,29.17,1.84,43.77,2.52a5.71,5.71,0,0,0,4.12-2.07c2.58-3.41,4.65-7.2,7.17-10.66.7-1,2.26-1.29,3.42-1.91l1,1.27c-3.9,5.26-7.73,10.56-11.75,15.72a4.3,4.3,0,0,1-3.15,1C40.65,76,24.39,75.28,7.46,74.57Z"/><path d="M54.55,32.05c0-5.08-.23-10,.13-14.89.11-1.54,1.53-3.23,2.78-4.39a76.58,76.58,0,0,1,6.72-5C69.39,17.49,64.84,29.19,54.55,32.05Z"/><path d="M58,66.74A94.93,94.93,0,0,1,51.91,42.4c-.13-1.08,1.11-2.31,1.72-3.46.81.87,1.94,1.62,2.38,2.65,2.27,5.33,4.37,10.74,6.53,16.12C64.09,61.57,63.25,63.41,58,66.74Z"/><path d="M74.33,64.36C75,69.6,75.47,73.94,72,77.93c-3,3.45-5.53,7.34-8.74,10.92-1-4-2.07-8,.43-11.71s5-7,7.66-10.37A17.88,17.88,0,0,1,74.33,64.36Z"/></g></g></svg>