<svg xmlns="http://www.w3.org/2000/svg" viewBox="0 0 78.23 71.85"><defs><style>.cls-1{fill:#fff;}</style></defs><title>Progressor_White</title><g id="Слой_2" data-name="Слой 2"><g id="Слой_1-2" data-name="Слой 1"><path d="M78.23,57.63A26.66,26.66,0,0,1,63.510000000000005,67.93C44.940000000000005,73.60000000000001,26.510000000000005,72.87,8.080000000000005,67.37C2,65.54,0,62.54,0,56S0,42.7,0,36.34L38.85,0L76.52,35.09L78.22999999999999,41.63ZM3.62,49.18A23.83,23.83,0,0,0,3.2,51.54C2.6,61.41,4.2,64.08,13.98,65.81A169.29,169.29,0,0,0,39.66,68.56C49.66,68.78,59.53,67.13,68.59,62.35C74.82000000000001,59.07,75.87,56.510000000000005,73.84,49.24C50.62,57.18,27.35,57.12,3.62,49.18ZM72.1,35.87C62.199999999999996,25.47,51.769999999999996,16.47,41.56999999999999,6.769999999999996C39.72999999999999,12.769999999999996,40.129999999999995,40.459999999999994,41.97999999999999,43.709999999999994L55.37999999999999,40.879999999999995L61.32999999999999,49.06999999999999L69.41999999999999,47.06999999999999C67.77999999999999,44.06999999999999,66.62999999999998,41.96999999999999,65.18999999999998,39.31999999999999ZM36.86,8L35.86,7.33C25.71,16.52,15.48,25.64,5.39,36A44.56,44.56,0,0,1,9.59,37.64A28,28,0,0,1,12.39,39.64L8.39,47.11L16.6,49L22.36,40.87L36.86,43.76ZM57.53,49.62L53.94,44.29C48.94,45.5,43.94,47.629999999999995,39.04,47.62S28.86,45.5,23.6,44.27L20.67,49.690000000000005A78.91,78.91,0,0,0,57.53,49.62ZM7.3,41.87L5.71,40.39L3.5,43.15L4.75,44.269999999999996ZM71.7,40.39L70.51,41.67C71.34,42.410000000000004,72.16000000000001,43.18,73.06,43.84A12.94,12.94,0,0,0,74.22,42.59Z"/><path d="M3.62,49.18C27.35,57.12,50.62,57.18,73.84,49.24C75.84,56.510000000000005,74.84,59.07,68.59,62.35C59.53,67.13,49.660000000000004,68.78,39.660000000000004,68.56A169.29,169.29,0,0,1,14,65.81C4.24,64.08,2.6,61.41,3.2,51.54A23.83,23.83,0,0,1,3.62,49.18Z" fill="#fff" /><path d="M72.1,35.87L65.19,39.29C66.63,41.94,67.78,44,69.42,47L61.33,49L55.379999999999995,40.81L42,43.71C40.15,40.46,39.75,12.8,41.59,6.770000000000003C51.77,16.47,62.2,25.47,72.1,35.87Z" fill="#fff" /><path d="M36.86,8V43.77L22.36,40.88L16.6,49L8.35,47.12L12.35,39.65A28,28,0,0,0,9.55,37.65A44.56,44.56,0,0,0,5.39,36C15.48,25.64,25.71,16.52,35.87,7.32Z" fill="#fff" /><path d="M57.53,49.62A78.91,78.91,0,0,1,20.67,49.69L23.6,44.269999999999996C28.86,45.5,34,47.6,39,47.62S48.89,45.5,53.9,44.29Z" fill="#fff" /><path d="M7.3,41.87L4.75,44.269999999999996L3.5,43.15L5.71,40.39Z" fill="#fff" /><path d="M71.7,40.39L74.22,42.59A12.94,12.94,0,0,1,73.06,43.84C72.16,43.18000000000001,71.34,42.410000000000004,70.51,41.67Z" fill="#fff" /></g></g></svg>