<svg xmlns="http://www.w3.org/2000/svg" viewBox="0 0 79.23 73.04"><defs><style>.cls-1{fill:#fff;stroke:#000;}</style></defs><title>Progressor_Black</title><g id="Слой_2" data-name="Слой 2"><g id="Слой_1-2" data-name="Слой 1"><path class="cls-1" d="M78.73,58.31A26.67,26.67,0,0,1,64,68.62c-18.57,5.66-37,4.94-55.43-.57-6.1-1.83-8-4.83-8.07-11.4S.51,43.38.51,37L39.35.68,77,35.78l1.71,6.53ZM4.12,49.86a23.43,23.43,0,0,0-.42,2.37c-.6,9.87,1,12.54,10.78,14.26a169.29,169.29,0,0,0,25.68,2.75c10,.22,19.87-1.43,28.93-6.2,6.23-3.29,7.28-5.84,5.25-13.12C51.12,57.86,27.85,57.8,4.12,49.86ZM72.6,36.55c-9.9-10.4-20.33-19.4-30.53-29.1-1.84,6-1.44,33.69.41,36.94l13.4-2.83,5.95,8.2,8.09-2L65.69,40ZM37.36,8.67l-1-.67C26.21,17.2,16,26.33,5.89,36.73c2.14.81,3.23,1.12,4.2,1.63a28,28,0,0,1,2.8,2l-4,7.48,8.25,1.88,5.76-8.12,14.5,2.89ZM58,50.31,54.44,45c-5,1.21-10,3.34-14.9,3.33S29.36,46.18,24.1,45l-2.93,5.42A78.91,78.91,0,0,0,58,50.31ZM7.8,42.56,6.21,41.07,4,43.84,5.25,45Zm64.4-1.49L71,42.35a33,33,0,0,0,2.55,2.18,15,15,0,0,0,1.16-1.26Z"/><path d="M4.12,49.86c23.73,7.94,47,8,70.22.06,2,7.28,1,9.83-5.25,13.12-9.06,4.77-18.93,6.42-28.93,6.2a169.29,169.29,0,0,1-25.68-2.75C4.74,64.77,3.1,62.1,3.7,52.23A23.43,23.43,0,0,1,4.12,49.86Z"/><path d="M72.6,36.55,65.69,40l4.23,7.74-8.09,2-5.95-8.2-13.4,2.83c-1.85-3.25-2.25-30.9-.41-36.94C52.27,17.15,62.7,26.15,72.6,36.55Z"/><path d="M37.36,8.67V44.46l-14.5-2.89L17.1,49.69,8.85,47.81l4-7.48a28,28,0,0,0-2.8-2c-1-.51-2.06-.82-4.2-1.63C16,26.33,26.21,17.2,36.37,8Z"/><path d="M58,50.31a78.91,78.91,0,0,1-36.86.06L24.1,45c5.26,1.23,10.35,3.33,15.44,3.35s9.89-2.12,14.9-3.33Z"/><path d="M7.8,42.56,5.25,45,4,43.84l2.21-2.77Z"/><path d="M72.2,41.07l2.52,2.2a15,15,0,0,1-1.16,1.26A33,33,0,0,1,71,42.35Z"/></g></g></svg>