<svg xmlns="http://www.w3.org/2000/svg" viewBox="0 0 78.23 71.85"><defs><style>.cls-1{fill:#fff;}</style></defs><title>Progressor_White</title><g id="Слой_2" data-name="Слой 2"><g id="Слой_1-2" data-name="Слой 1"><path d="M78.23,57.63a26.66,26.66,0,0,1-14.72,10.3c-18.57,5.67-37,4.94-55.43-.56C2,65.54,0,62.54,0,56S0,42.7,0,36.34L38.85,0,76.52,35.09l1.71,6.54ZM3.62,49.18a23.83,23.83,0,0,0-.42,2.36c-.6,9.87,1,12.54,10.78,14.27a169.29,169.29,0,0,0,25.68,2.75c10,.22,19.87-1.43,28.93-6.21,6.23-3.28,7.28-5.84,5.25-13.11C50.62,57.18,27.35,57.12,3.62,49.18ZM72.1,35.87c-9.9-10.4-20.33-19.4-30.53-29.1-1.84,6-1.44,33.69.41,36.94l13.4-2.83,5.95,8.19,8.09-2c-1.64-3-2.79-5.1-4.23-7.75ZM36.86,8l-1-.67C25.71,16.52,15.48,25.64,5.39,36a44.56,44.56,0,0,1,4.2,1.64,28,28,0,0,1,2.8,2l-4,7.47L16.6,49l5.76-8.13,14.5,2.89ZM57.53,49.62l-3.59-5.33c-5,1.21-10,3.34-14.9,3.33S28.86,45.5,23.6,44.27l-2.93,5.42A78.91,78.91,0,0,0,57.53,49.62ZM7.3,41.87,5.71,40.39,3.5,43.15l1.25,1.12Zm64.4-1.48-1.19,1.28c.83.74,1.65,1.51,2.55,2.17a12.94,12.94,0,0,0,1.16-1.25Z"/><path class="cls-1" d="M3.62,49.18c23.73,7.94,47,8,70.22.06,2,7.27,1,9.83-5.25,13.11-9.06,4.78-18.93,6.43-28.93,6.21A169.29,169.29,0,0,1,14,65.81C4.24,64.08,2.6,61.41,3.2,51.54A23.83,23.83,0,0,1,3.62,49.18Z"/><path class="cls-1" d="M72.1,35.87l-6.91,3.42C66.63,41.94,67.78,44,69.42,47l-8.09,2-5.95-8.19L42,43.71c-1.85-3.25-2.25-30.91-.41-36.94C51.77,16.47,62.2,25.47,72.1,35.87Z"/><path class="cls-1" d="M36.86,8V43.77l-14.5-2.89L16.6,49,8.35,47.12l4-7.47a28,28,0,0,0-2.8-2A44.56,44.56,0,0,0,5.39,36C15.48,25.64,25.71,16.52,35.87,7.32Z"/><path class="cls-1" d="M57.53,49.62a78.91,78.91,0,0,1-36.86.07l2.93-5.42C28.86,45.5,34,47.6,39,47.62s9.89-2.12,14.9-3.33Z"/><path class="cls-1" d="M7.3,41.87l-2.55,2.4L3.5,43.15l2.21-2.76Z"/><path class="cls-1" d="M71.7,40.39l2.52,2.2a12.94,12.94,0,0,1-1.16,1.25c-.9-.66-1.72-1.43-2.55-2.17Z"/></g></g></svg>