<svg xmlns="http://www.w3.org/2000/svg" width="216.853" height="371.282" viewBox="0 0 216.853 371.282"><title>Yapper_Black</title><path d="M199.987,336.45c-23.94-43.2-53.4-78.78-60.86-128.14-5.01-33.15-3.89-62.56,15.46-92.31,21.12-32.47,36.86-68.43,54.66-103.01.5-.98-1.87-4.15-3.57-5.38-3.31-2.38-7.09-4.11-10.67-6.11H5.807c-.15,1.21-.22,2.45-.48,3.64-1.14,5.23-5,11.86-3.09,15.45,14.09,26.56,29.57,52.38,44.12,78.71,7.76,14.04,18.57,28.01,20.87,43.1,3.82,25.13,3.41,51.23,1.74,76.72-.79,12.09-7.61,24.23-13.43,35.46-15.43,29.77-31.73,59.09-47.81,88.53-6.82,12.49-12.8,24.42,9.34,26.66h183.19C228.047,370.25,211.047,356.25,199.987,336.45ZM179.327,40.58a23.441,23.441,0,0,1-1.3,3.29q-28.965,50.88-57.98,101.73c-.47.81-1.09,1.53-1.9,2.65-1.78-3.05-3.95-5.53-4.79-8.4-13.46-45.48,9.76-82.06,62.39-98.56A30.626,30.626,0,0,1,179.327,40.58Zm-56.85,143.39c-.76,6.49-11.24,17.03-16.65,16.54-7.39-.67-17.45-9.01-19.68-16.15-1.43-4.59,5.9-17.11,17.9-25.11C116.047,169.25,123.147,178.21,122.477,183.97ZM49.487,20.46c18.36-.36,36.74-.21,55.11-.21,18.62,0,37.24-.1,55.85.18,1.67.02,3.64,2.28,4.75,3.98.39.59-1.06,3.12-2.24,3.88-16.9,10.84-33.61,22.02-51.07,31.88-4.24,2.4-12.2,2.36-16.41-.07-16.71-9.66-32.64-20.68-48.8-31.29-1.42-.93-2.38-2.55-3.55-3.85C45.247,23.39,47.337,20.5,49.487,20.46ZM33.707,46.28a14.67,14.67,0,0,1-.87-2.41,21.069,21.069,0,0,1,2.51.1c37.62,5.81,60.43,32.81,60.55,76.81-.77,4.55-2.38,14.11-4.05,23.66a8.454,8.454,0,0,1-1.03,2.12,12.491,12.491,0,0,1-1.37-1.65Q61.562,95.605,33.707,46.28Zm147.34,304.97c-4.33,3.12-59,0-75,0l-56.09.34c-5.99-.15-14.23.15-17.03-3.83-3.88-5.51-1.5-16.47,1.91-22.79,18.34-34.01,37.82-67.41,57.14-100.89,1.3-2.24,2.07-2.83,3.07-4.83,8.3-14.05,19.61.06,23.27,4.09,7.14,7.86,11.16,18.54,16.51,28.03,13.78,24.44,32.24,52.59,44.22,77.88C181.937,335.36,188.887,345.6,181.047,351.25Z" fill="#fff" stroke="#000" stroke-miterlimit="10" stroke-width="3"/><path d="M162.957,28.29c-16.9,10.84-33.61,22.02-51.07,31.88-4.24,2.4-12.2,2.36-16.41-.07-16.71-9.66-32.64-20.68-48.8-31.29-1.42-.93-2.38-2.55-3.55-3.85,2.12-1.57,4.21-4.46,6.36-4.5,18.36-.36,36.74-.21,55.11-.21,18.62,0,37.24-.1,55.85.18,1.67.02,3.64,2.28,4.75,3.98C165.587,25,164.137,27.53,162.957,28.29Z"/><path d="M95.9,120.78c-.77,4.55-2.38,14.11-4.05,23.66a8.454,8.454,0,0,1-1.03,2.12,12.491,12.491,0,0,1-1.37-1.65q-27.885-49.3-55.74-98.63a14.67,14.67,0,0,1-.87-2.41,21.069,21.069,0,0,1,2.51.1C72.967,49.78,95.777,76.78,95.9,120.78Z"/><path d="M179.327,40.58a23.441,23.441,0,0,1-1.3,3.29q-28.965,50.88-57.98,101.73c-.47.81-1.09,1.53-1.9,2.65-1.78-3.05-3.95-5.53-4.79-8.4-13.46-45.48,9.76-82.06,62.39-98.56A30.626,30.626,0,0,1,179.327,40.58Z"/><path d="M122.477,183.97c-.76,6.49-11.24,17.03-16.65,16.54-7.39-.67-17.45-9.01-19.68-16.15-1.43-4.59,5.9-17.11,17.9-25.11C116.047,169.25,123.147,178.21,122.477,183.97Z"/><path d="M181.047,351.25c-4.33,3.12-59,0-75,0l-56.09.34c-5.99-.15-14.23.15-17.03-3.83-3.88-5.51-1.5-16.47,1.91-22.79,18.34-34.01,37.82-67.41,57.14-100.89,1.3-2.24,2.07-2.83,3.07-4.83,8.3-14.05,19.61.06,23.27,4.09,7.14,7.86,11.16,18.54,16.51,28.03,13.78,24.44,32.24,52.59,44.22,77.88C181.937,335.36,188.887,345.6,181.047,351.25Z"/></svg>