<?xml version="1.0" encoding="iso-8859-1"?>
<!-- Generator: Adobe Illustrator 19.0.0, SVG Export Plug-In . SVG Version: 6.00 Build 0)  -->
<svg version="1.1" xmlns="http://www.w3.org/2000/svg" xmlns:xlink="http://www.w3.org/1999/xlink" x="0px" y="0px"
	 viewBox="0 0 330 330" style="enable-background:new 0 0 330 330;" xml:space="preserve">
<path fill="#666666" d="M4.394,154.394C-1.4639999999999995,160.251,-1.4639999999999995,169.749,4.394,175.607L41.894,213.107C44.823,216.036,48.662,217.501,52.5,217.501S60.178,216.036,63.106,213.107C68.964,207.25,68.964,197.752,63.106,191.894L51.213,180H150V278.78700000000003L138.106,266.894C132.249,261.037,122.75099999999999,261.037,116.893,266.894C111.035,272.75100000000003,111.035,282.249,116.893,288.107L154.393,325.607C157.322,328.535,161.161,330,165,330S172.678,328.535,175.606,325.606L213.106,288.106C218.964,282.24899999999997,218.964,272.751,213.106,266.893C207.249,261.03599999999994,197.751,261.03599999999994,191.893,266.893L180,278.787V180H278.78700000000003L266.894,191.894C261.036,197.751,261.036,207.249,266.894,213.107C269.823,216.036,273.661,217.501,277.5,217.501C281.339,217.501,285.178,216.036,288.106,213.107L325.606,175.607C331.464,169.75,331.464,160.252,325.606,154.394L288.106,116.894C282.24899999999997,111.037,272.751,111.037,266.893,116.894C261.03499999999997,122.751,261.03499999999997,132.249,266.893,138.107L278.787,150H180V51.213L191.894,63.106C194.823,66.035,198.662,67.5,202.5,67.5S210.178,66.035,213.106,63.106C218.964,57.249,218.964,47.751000000000005,213.106,41.893L175.606,4.393000000000001C169.749,-1.464999999999999,160.251,-1.464999999999999,154.393,4.393000000000001L116.893,41.893C111.035,47.75,111.035,57.248000000000005,116.893,63.106C122.75,68.96300000000001,132.248,68.96300000000001,138.106,63.106L150,51.213V150H51.213L63.107,138.106C68.965,132.249,68.965,122.75099999999999,63.107,116.893C57.25,111.036,47.751999999999995,111.036,41.894,116.893L4.394,154.394Z"/>
</svg>
