<svg xmlns="http://www.w3.org/2000/svg" width="470.651" height="357.43" viewBox="0 0 470.651 357.43"><title>Ресурс 7</title>
<path d="M233.521,220.8l-71.97,124.95a14.192,14.192,0,0,1-12.44,7.65,13.632,13.632,0,0,1-7.33-2.16l-5.77-3.68c-6.59-4.21-8.88-13.43-5.1-20.55l.05-.1,81.09-145.09Z" fill="#666666"/>
<path d="M162.781,8.25l71.49,133.82-22.22,39.75L192.8,146.87a4.2,4.2,0,0,0-.66-1.01,11.735,11.735,0,0,0-2.76,1.57l-.28.19c-23.8,16.36-48.5,21.74-69.52,24.84-25.97,3.83-44.34,22.16-49.35,27.69a11.077,11.077,0,0,1-3.57,2.66,9.8,9.8,0,0,1-4.16.93,10.019,10.019,0,0,1-8.89-5.65L1.2,94.6c-1.81-3.58-2.47-9.29,4.66-16.2,24.32-23.58,59.5-32.26,82.79-38,4.47-1.11,8.7-2.15,12.21-3.14,14.29-4.05,23.56-13.65,27.77-18.95-.05-4.28,3.15-9.09,8.64-12.43l5.83-3.56a13.686,13.686,0,0,1,7.09-2.01A14.188,14.188,0,0,1,162.781,8.25Z" fill="#096"/>
<path d="M233.521,220.8l22.21-38.55,79.68,149.17c3.65,7.21,1.19,16.39-5.48,20.45l-5.84,3.56a13.614,13.614,0,0,1-7.08,2,14.2,14.2,0,0,1-12.58-7.91l-49.79-90.38Z" fill="#096"/>
<path d="M469.361,97.51l-54.28,102.33a10.359,10.359,0,0,1-3.71,3.99,9.581,9.581,0,0,1-5.09,1.47,10.378,10.378,0,0,1-7.86-3.74c-4.91-5.64-22.95-24.38-48.85-28.78-20.96-3.56-45.55-9.48-69.04-26.35l-.28-.2a11.959,11.959,0,0,0-2.74-1.63,4.006,4.006,0,0,0-.66.98l-.08.15-21.04,36.52-21.46-40.18,75.11-134.4A14.222,14.222,0,0,1,321.841,0a13.546,13.546,0,0,1,7.33,2.16l5.77,3.68c5.42,3.46,8.53,8.33,8.4,12.61,4.11,5.4,13.21,15.21,27.43,19.57,3.5,1.07,7.71,2.2,12.16,3.4,23.18,6.25,58.19,15.7,82.07,39.8C472,88.29,471.231,93.98,469.361,97.51Z"  fill="#666666"/>
<polygon points="255.731 182.25 233.521 220.8 212.051 181.82 234.271 142.07 255.731 182.25" fill="#096"/>
</svg>