<?xml version="1.0" encoding="utf-8"?>
<!-- Generator: Adobe Illustrator 23.0.1, SVG Export Plug-In . SVG Version: 6.00 Build 0)  -->
<svg version="1.1" id="Слой_1" xmlns="http://www.w3.org/2000/svg" xmlns:xlink="http://www.w3.org/1999/xlink" x="0px" y="0px"
	 width="440.1px" height="370.7px" viewBox="0 0 440.1 370.7" enable-background="new 0 0 440.1 370.7" xml:space="preserve">
<path fill="#666666" d="M 432.7 62.8 C 405.6 42.4 369.5 38.2 345.7 35.4 C 341.1 34.9 336.8 34.4 333.2 33.8 C 318.5 31.6 308.1 23.2 303.2 18.4 C 302.7 14.1 298.9 9.8 293 7.2 L 286.8 4.4 C 284.4 3.3 281.8 3 279.2 3.3 C 274 4.1 269.7 7.7 268 12.7 L 212.6 158.5 L 135.2 364.4 L 151 370.7 L 155.1 358.8 L 225.4 175 L 236.2 145.6 L 247.6 148.1 C 247.7 147.7 256.3 153.3 256.5 153 C 257.5 153.3 258.5 153.7 259.4 154.2 L 259.7 154.4 C 285.4 167.7 310.6 169.9 331.8 170.4 C 358.1 171 378.6 186.9 384.3 191.7 C 386.6 193.7 389.6 194.7 392.6 194.3 C 394.4 194 396.1 193.3 397.4 192.1 C 398.8 190.9 399.9 189.4 400.5 187.6 L 439.3 78.4 C 440.8 74.5 440.7 68.8 432.7 62.8 Z"/>
<path fill="#666666" d="M 233.4 171.6 L 225.4 152.4 L 171.4 9.5 C 169.6 4.4 165.2 0.8 159.8 0.1 C 157.3 -0.2 154.8 0.2 152.5 1.3 L 146.3 4.1 C 140.5 6.8 136.7 11.2 136.3 15.4 C 131.5 20.2 121.2 28.6 106.5 30.9 C 102.9 31.5 98.6 32 94 32.6 C 70.1 35.6 34.2 40 7.2 60.6 C -0.7 66.6 -0.7 72.4 0.7 76.1 L 40.5 185.1 C 41.7 188.7 44.9 191.3 48.7 191.8 C 50.1 192 51.6 191.8 52.9 191.4 C 54.3 190.9 55.6 190.2 56.8 189.2 C 62.4 184.3 82.8 168.3 109.1 167.5 C 130.3 166.9 155.5 164.5 181.1 151.1 L 181.4 150.9 C 182.3 150.4 183.3 149.9 184.3 149.7 C 184.5 150 201.2 138.1 201.4 138.5 L 213.5 169 L 221.4 187.9 L 221.4 187.9 L 259.1 284.3 L 291.3 370.9 L 307 359.9 L 233.4 171.6"/>
</svg>
